<svg width="40" height="40" viewBox="0 0 40 40" fill="none" xmlns="http://www.w3.org/2000/svg">
<circle cx="20" cy="20" r="20" fill="#9977FF"/>
<path d="M21 13.8414C22.7048 14.444 24.056 15.7952 24.6586 17.5M21.9655 11C24.5505 11.9018 26.5982 13.9495 27.5 16.5345M18.581 20.919C17.4831 19.8211 16.6162 18.5797 15.9803 17.2552C15.9256 17.1412 15.8982 17.0843 15.8772 17.0122C15.8025 16.756 15.8562 16.4415 16.0115 16.2245C16.0552 16.1635 16.1074 16.1112 16.2119 16.0068C16.5313 15.6874 16.691 15.5276 16.7955 15.367C17.1893 14.7613 17.1893 13.9805 16.7955 13.3748C16.691 13.2142 16.5313 13.0545 16.2119 12.735L16.0338 12.557C15.5482 12.0714 15.3055 11.8286 15.0447 11.6967C14.5261 11.4344 13.9137 11.4344 13.3951 11.6967C13.1343 11.8286 12.8916 12.0714 12.406 12.557L12.2619 12.701C11.778 13.1849 11.5361 13.4269 11.3513 13.7559C11.1462 14.1209 10.9988 14.6879 11 15.1065C11.0011 15.4838 11.0743 15.7417 11.2207 16.2575C12.0074 19.0291 13.4917 21.6445 15.6736 23.8264C17.8555 26.0083 20.4709 27.4926 23.2425 28.2793C23.7583 28.4257 24.0162 28.4989 24.3935 28.5C24.8121 28.5012 25.3791 28.3538 25.7441 28.1487C26.0731 27.9639 26.3151 27.722 26.799 27.2381L26.943 27.094C27.4286 26.6084 27.6714 26.3657 27.8033 26.1049C28.0656 25.5863 28.0656 24.9739 27.8033 24.4553C27.6714 24.1945 27.4286 23.9518 26.943 23.4662L26.765 23.2881C26.4455 22.9687 26.2858 22.809 26.1252 22.7045C25.5195 22.3107 24.7387 22.3107 24.133 22.7045C23.9724 22.809 23.8126 22.9687 23.4932 23.2881C23.3888 23.3926 23.3365 23.4448 23.2755 23.4885C23.0585 23.6438 22.744 23.6975 22.4878 23.6228C22.4157 23.6018 22.3588 23.5744 22.2448 23.5197C20.9203 22.8838 19.6789 22.0169 18.581 20.919Z" stroke="white" stroke-width="1.5" stroke-linecap="round"/>
</svg>
