<svg width="40" height="40" viewBox="0 0 40 40" fill="none" xmlns="http://www.w3.org/2000/svg">
<circle cx="20" cy="20" r="20" fill="#9977FF"/>
<path d="M12.4286 18.8572H13.8571C14.0466 18.8572 14.2283 18.9324 14.3622 19.0664C14.4962 19.2003 14.5714 19.382 14.5714 19.5715V23.1429C14.5714 23.3323 14.4962 23.514 14.3622 23.648C14.2283 23.7819 14.0466 23.8572 13.8571 23.8572H12.4286C12.0497 23.8572 11.6863 23.7067 11.4184 23.4388C11.1505 23.1708 11 22.8075 11 22.4286V20.2857C11 19.9069 11.1505 19.5435 11.4184 19.2756C11.6863 19.0077 12.0497 18.8572 12.4286 18.8572V18.8572Z" stroke="white" stroke-width="1.5" stroke-linecap="round" stroke-linejoin="round"/>
<path d="M28.143 23.8572H26.7144C26.5249 23.8572 26.3433 23.7819 26.2093 23.648C26.0754 23.514 26.0001 23.3323 26.0001 23.1429V19.5715C26.0001 19.382 26.0754 19.2003 26.2093 19.0664C26.3433 18.9324 26.5249 18.8572 26.7144 18.8572H28.143C28.5218 18.8572 28.8852 19.0077 29.1531 19.2756C29.421 19.5435 29.5715 19.9069 29.5715 20.2857V22.4286C29.5715 22.8075 29.421 23.1708 29.1531 23.4388C28.8852 23.7067 28.5218 23.8572 28.143 23.8572V23.8572Z" stroke="white" stroke-width="1.5" stroke-linecap="round" stroke-linejoin="round"/>
<path d="M23.8572 27.7857C24.6149 27.7857 25.3417 27.4847 25.8775 26.9489C26.4133 26.4131 26.7143 25.6864 26.7143 24.9286V23.8572" stroke="white" stroke-width="1.5" stroke-linecap="round" stroke-linejoin="round"/>
<path d="M22.0714 26C22.545 26 22.9992 26.1881 23.3341 26.523C23.669 26.8579 23.8571 27.3121 23.8571 27.7857C23.8571 28.2593 23.669 28.7135 23.3341 29.0484C22.9992 29.3833 22.545 29.5714 22.0714 29.5714H19.9285C19.4549 29.5714 19.0007 29.3833 18.6658 29.0484C18.331 28.7135 18.1428 28.2593 18.1428 27.7857C18.1428 27.3121 18.331 26.8579 18.6658 26.523C19.0007 26.1881 19.4549 26 19.9285 26H22.0714Z" stroke="white" stroke-width="1.5" stroke-linecap="round" stroke-linejoin="round"/>
<path d="M13.8572 18.8571V17.4286C13.8572 15.7236 14.5345 14.0885 15.7401 12.8829C16.9457 11.6773 18.5808 11 20.2857 11C21.9907 11 23.6258 11.6773 24.8314 12.8829C26.037 14.0885 26.7143 15.7236 26.7143 17.4286V18.8571" stroke="white" stroke-width="1.5" stroke-linecap="round" stroke-linejoin="round"/>
<path d="M18.1428 16V18.1429" stroke="white" stroke-width="1.5" stroke-linecap="round" stroke-linejoin="round"/>
<path d="M22.4285 16V18.1429" stroke="white" stroke-width="1.5" stroke-linecap="round" stroke-linejoin="round"/>
<path d="M18.1428 21C18.1428 22.9 22.4285 22.9 22.4285 21" stroke="white" stroke-width="1.5" stroke-linecap="round" stroke-linejoin="round"/>
</svg>
