<svg width="24" height="24" viewBox="0 0 24 24" fill="none" xmlns="http://www.w3.org/2000/svg">
<circle cx="12" cy="12" r="12" fill="#0C1C19"/>
<path d="M7.45773 11.3145H8.31487C8.42854 11.3145 8.53754 11.3596 8.61792 11.44C8.69829 11.5204 8.74344 11.6294 8.74344 11.743V13.8859C8.74344 13.9995 8.69829 14.1086 8.61792 14.1889C8.53754 14.2693 8.42854 14.3145 8.31487 14.3145H7.45773C7.2304 14.3145 7.01238 14.2241 6.85164 14.0634C6.69089 13.9027 6.60059 13.6846 6.60059 13.4573V12.1716C6.60059 11.9443 6.69089 11.7263 6.85164 11.5655C7.01238 11.4048 7.2304 11.3145 7.45773 11.3145V11.3145Z" stroke="white" stroke-width="1.5" stroke-linecap="round" stroke-linejoin="round"/>
<path d="M16.886 14.3145H16.0289C15.9152 14.3145 15.8062 14.2693 15.7258 14.1889C15.6455 14.1086 15.6003 13.9995 15.6003 13.8859V11.743C15.6003 11.6294 15.6455 11.5204 15.7258 11.44C15.8062 11.3596 15.9152 11.3145 16.0289 11.3145H16.886C17.1133 11.3145 17.3314 11.4048 17.4921 11.5655C17.6529 11.7263 17.7432 11.9443 17.7432 12.1716V13.4573C17.7432 13.6846 17.6529 13.9027 17.4921 14.0634C17.3314 14.2241 17.1133 14.3145 16.886 14.3145V14.3145Z" stroke="white" stroke-width="1.5" stroke-linecap="round" stroke-linejoin="round"/>
<path d="M14.3149 16.6716C14.7696 16.6716 15.2056 16.491 15.5271 16.1695C15.8486 15.848 16.0292 15.412 16.0292 14.9573V14.3145" stroke="white" stroke-width="1.5" stroke-linecap="round" stroke-linejoin="round"/>
<path d="M13.2431 15.6001C13.5273 15.6001 13.7998 15.713 14.0007 15.9139C14.2017 16.1148 14.3146 16.3874 14.3146 16.6715C14.3146 16.9557 14.2017 17.2282 14.0007 17.4291C13.7998 17.6301 13.5273 17.743 13.2431 17.743H11.9574C11.6733 17.743 11.4007 17.6301 11.1998 17.4291C10.9989 17.2282 10.886 16.9557 10.886 16.6715C10.886 16.3874 10.9989 16.1148 11.1998 15.9139C11.4007 15.713 11.6733 15.6001 11.9574 15.6001H13.2431Z" stroke="white" stroke-width="1.5" stroke-linecap="round" stroke-linejoin="round"/>
<path d="M8.31494 11.3144V10.4572C8.31494 9.43426 8.72132 8.45318 9.44467 7.72983C10.168 7.00647 11.1491 6.6001 12.1721 6.6001C13.1951 6.6001 14.1761 7.00647 14.8995 7.72983C15.6228 8.45318 16.0292 9.43426 16.0292 10.4572V11.3144" stroke="white" stroke-width="1.5" stroke-linecap="round" stroke-linejoin="round"/>
<path d="M10.886 9.6001V10.8858" stroke="white" stroke-width="1.5" stroke-linecap="round" stroke-linejoin="round"/>
<path d="M13.4578 9.6001V10.8858" stroke="white" stroke-width="1.5" stroke-linecap="round" stroke-linejoin="round"/>
<path d="M10.886 12.6001C10.886 13.7401 13.4574 13.7401 13.4574 12.6001" stroke="white" stroke-width="1.5" stroke-linecap="round" stroke-linejoin="round"/>
</svg>
