<?xml version="1.0" encoding="UTF-8"?>
<!DOCTYPE svg PUBLIC "-//W3C//DTD SVG 1.1//EN" "http://www.w3.org/Graphics/SVG/1.1/DTD/svg11.dtd">
<svg xmlns="http://www.w3.org/2000/svg" version="1.1" width="1500px" height="1500px" style="shape-rendering:geometricPrecision; text-rendering:geometricPrecision; image-rendering:optimizeQuality; fill-rule:evenodd; clip-rule:evenodd" xmlns:xlink="http://www.w3.org/1999/xlink">
<g><path style="opacity:0.936" fill="#e4ba58" d="M 551.5,344.5 C 561.833,358.5 572.167,372.5 582.5,386.5C 555.742,386.08 541.076,372.413 538.5,345.5C 542.783,344.508 547.116,344.174 551.5,344.5 Z"/></g>
<g><path style="opacity:0.965" fill="#e2b754" d="M 551.5,344.5 C 575.5,344.5 599.5,344.5 623.5,344.5C 634.331,358.174 644.664,372.174 654.5,386.5C 630.5,386.5 606.5,386.5 582.5,386.5C 572.167,372.5 561.833,358.5 551.5,344.5 Z"/></g>
<g><path style="opacity:0.965" fill="#e1b450" d="M 623.5,344.5 C 631.833,344.5 640.167,344.5 648.5,344.5C 658.833,358.5 669.167,372.5 679.5,386.5C 671.167,386.5 662.833,386.5 654.5,386.5C 644.664,372.174 634.331,358.174 623.5,344.5 Z"/></g>
<g><path style="opacity:0.965" fill="#dfb24c" d="M 648.5,344.5 C 667.5,344.5 686.5,344.5 705.5,344.5C 715.833,358.5 726.167,372.5 736.5,386.5C 717.5,386.5 698.5,386.5 679.5,386.5C 669.167,372.5 658.833,358.5 648.5,344.5 Z"/></g>
<g><path style="opacity:0.966" fill="#ddaf49" d="M 705.5,344.5 C 715.833,344.5 726.167,344.5 736.5,344.5C 747.331,358.174 757.664,372.174 767.5,386.5C 757.167,386.5 746.833,386.5 736.5,386.5C 726.167,372.5 715.833,358.5 705.5,344.5 Z"/></g>
<g><path style="opacity:0.965" fill="#dcad46" d="M 736.5,344.5 C 749.167,344.5 761.833,344.5 774.5,344.5C 784.833,358.5 795.167,372.5 805.5,386.5C 792.833,386.5 780.167,386.5 767.5,386.5C 757.664,372.174 747.331,358.174 736.5,344.5 Z"/></g>
<g><path style="opacity:0.965" fill="#dbaa42" d="M 774.5,344.5 C 789.5,344.5 804.5,344.5 819.5,344.5C 829.833,358.5 840.167,372.5 850.5,386.5C 835.5,386.5 820.5,386.5 805.5,386.5C 795.167,372.5 784.833,358.5 774.5,344.5 Z"/></g>
<g><path style="opacity:0.966" fill="#daa940" d="M 819.5,344.5 C 823.167,344.5 826.833,344.5 830.5,344.5C 840.833,358.5 851.167,372.5 861.5,386.5C 857.833,386.5 854.167,386.5 850.5,386.5C 840.167,372.5 829.833,358.5 819.5,344.5 Z"/></g>
<g><path style="opacity:0.965" fill="#daa83f" d="M 830.5,344.5 C 835.5,344.5 840.5,344.5 845.5,344.5C 855.833,358.5 866.167,372.5 876.5,386.5C 871.5,386.5 866.5,386.5 861.5,386.5C 851.167,372.5 840.833,358.5 830.5,344.5 Z"/></g>
<g><path style="opacity:0.961" fill="#d8a53b" d="M 845.5,344.5 C 870.167,344.5 894.833,344.5 919.5,344.5C 926.5,354.5 933.5,364.5 940.5,374.5C 935.179,379.835 928.846,383.668 921.5,386C 906.504,386.5 891.504,386.667 876.5,386.5C 866.167,372.5 855.833,358.5 845.5,344.5 Z"/></g>
<g><path style="opacity:0.867" fill="#d6a237" d="M 919.5,344.5 C 930.5,344.5 941.5,344.5 952.5,344.5C 952.062,356.599 948.062,366.599 940.5,374.5C 933.5,364.5 926.5,354.5 919.5,344.5 Z"/></g>
<g><path style="opacity:0.008" fill="#d5a135" d="M 953.5,345.5 C 954.573,346.251 954.74,347.251 954,348.5C 953.517,347.552 953.351,346.552 953.5,345.5 Z"/></g>
<g><path style="opacity:0.004" fill="#e3bb58" d="M 562.5,386.5 C 562.897,385.475 563.563,385.308 564.5,386C 563.906,386.464 563.239,386.631 562.5,386.5 Z"/></g>
<g><path style="opacity:0.004" fill="#e3bb58" d="M 565.5,386.5 C 566.833,387.167 566.833,387.167 565.5,386.5 Z"/></g>
<g><path style="opacity:0.004" fill="#e3bb58" d="M 568.5,388.5 C 568.897,387.475 569.563,387.308 570.5,388C 569.906,388.464 569.239,388.631 568.5,388.5 Z"/></g>
<g><path style="opacity:0.941" fill="#e6bf5f" d="M 545.5,437.5 C 555.833,451.5 566.167,465.5 576.5,479.5C 562.833,479.5 549.167,479.5 535.5,479.5C 526.59,468.012 517.923,456.345 509.5,444.5C 515.12,440.681 521.453,438.514 528.5,438C 534.157,437.501 539.824,437.334 545.5,437.5 Z"/></g>
<g><path style="opacity:0.939" fill="#e5bd5b" d="M 545.5,437.5 C 563.833,437.5 582.167,437.5 600.5,437.5C 610.833,451.5 621.167,465.5 631.5,479.5C 613.167,479.5 594.833,479.5 576.5,479.5C 566.167,465.5 555.833,451.5 545.5,437.5 Z"/></g>
<g><path style="opacity:0.94" fill="#e4ba58" d="M 600.5,437.5 C 607.5,437.5 614.5,437.5 621.5,437.5C 631.833,451.5 642.167,465.5 652.5,479.5C 645.5,479.5 638.5,479.5 631.5,479.5C 621.167,465.5 610.833,451.5 600.5,437.5 Z"/></g>
<g><path style="opacity:0.939" fill="#e2b754" d="M 621.5,437.5 C 645.5,437.5 669.5,437.5 693.5,437.5C 703.858,451.518 714.191,465.518 724.5,479.5C 700.5,479.5 676.5,479.5 652.5,479.5C 642.167,465.5 631.833,451.5 621.5,437.5 Z"/></g>
<g><path style="opacity:0.939" fill="#e1b450" d="M 693.5,437.5 C 701.833,437.5 710.167,437.5 718.5,437.5C 728.833,451.5 739.167,465.5 749.5,479.5C 741.167,479.5 732.833,479.5 724.5,479.5C 714.191,465.518 703.858,451.518 693.5,437.5 Z"/></g>
<g><path style="opacity:0.939" fill="#dfb24c" d="M 718.5,437.5 C 737.5,437.5 756.5,437.5 775.5,437.5C 785.833,451.5 796.167,465.5 806.5,479.5C 787.5,479.5 768.5,479.5 749.5,479.5C 739.167,465.5 728.833,451.5 718.5,437.5 Z"/></g>
<g><path style="opacity:0.94" fill="#ddaf49" d="M 775.5,437.5 C 785.833,437.5 796.167,437.5 806.5,437.5C 816.858,451.518 827.191,465.518 837.5,479.5C 827.167,479.5 816.833,479.5 806.5,479.5C 796.167,465.5 785.833,451.5 775.5,437.5 Z"/></g>
<g><path style="opacity:0.94" fill="#dcad46" d="M 806.5,437.5 C 819.167,437.5 831.833,437.5 844.5,437.5C 854.833,451.5 865.167,465.5 875.5,479.5C 862.833,479.5 850.167,479.5 837.5,479.5C 827.191,465.518 816.858,451.518 806.5,437.5 Z"/></g>
<g><path style="opacity:0.939" fill="#dbaa42" d="M 844.5,437.5 C 859.5,437.5 874.5,437.5 889.5,437.5C 899.833,451.5 910.167,465.5 920.5,479.5C 905.5,479.5 890.5,479.5 875.5,479.5C 865.167,465.5 854.833,451.5 844.5,437.5 Z"/></g>
<g><path style="opacity:0.942" fill="#daa940" d="M 889.5,437.5 C 893.167,437.5 896.833,437.5 900.5,437.5C 910.833,451.5 921.167,465.5 931.5,479.5C 927.833,479.5 924.167,479.5 920.5,479.5C 910.167,465.5 899.833,451.5 889.5,437.5 Z"/></g>
<g><path style="opacity:0.938" fill="#daa83f" d="M 900.5,437.5 C 905.5,437.5 910.5,437.5 915.5,437.5C 925.833,451.5 936.167,465.5 946.5,479.5C 941.5,479.5 936.5,479.5 931.5,479.5C 921.167,465.5 910.833,451.5 900.5,437.5 Z"/></g>
<g><path style="opacity:0.931" fill="#d8a53b" d="M 915.5,437.5 C 930.837,437.333 946.17,437.5 961.5,438C 986.267,442.14 1002.1,456.307 1009,480.5C 1010.26,487.121 1011.09,493.788 1011.5,500.5C 1009.59,500.216 1007.92,500.549 1006.5,501.5C 1003.17,501.5 999.833,501.5 996.5,501.5C 994.833,500.167 993.167,500.167 991.5,501.5C 988.094,490.926 981.094,483.759 970.5,480C 962.507,479.5 954.507,479.334 946.5,479.5C 936.167,465.5 925.833,451.5 915.5,437.5 Z"/></g>
<g><path style="opacity:0.932" fill="#e7c160" d="M 509.5,444.5 C 517.923,456.345 526.59,468.012 535.5,479.5C 531.833,479.5 528.167,479.5 524.5,479.5C 517.142,469.149 509.808,458.815 502.5,448.5C 504.336,446.412 506.669,445.079 509.5,444.5 Z"/></g>
<g><path style="opacity:0.004" fill="#d6a338" d="M 989.5,447.5 C 990.833,448.167 990.833,448.167 989.5,447.5 Z"/></g>
<g><path style="opacity:0.93" fill="#e8c262" d="M 502.5,448.5 C 509.808,458.815 517.142,469.149 524.5,479.5C 514.52,480.17 507.186,484.837 502.5,493.5C 497.568,485.571 491.901,478.238 485.5,471.5C 488.95,462.296 494.617,454.63 502.5,448.5 Z"/></g>
<g><path style="opacity:0.882" fill="#e8c364" d="M 485.5,471.5 C 491.901,478.238 497.568,485.571 502.5,493.5C 501.871,496.397 500.871,499.064 499.5,501.5C 497.389,500.258 495.389,500.258 493.5,501.5C 490.833,501.5 488.167,501.5 485.5,501.5C 484.081,500.549 482.415,500.216 480.5,500.5C 479.861,499.903 479.528,499.07 479.5,498C 479.563,488.592 481.563,479.759 485.5,471.5 Z"/></g>
<g><path style="opacity:0.004" fill="#e7c261" d="M 517.5,481.5 C 518.773,482.077 518.773,482.743 517.5,483.5C 516.537,483.03 516.537,482.363 517.5,481.5 Z"/></g>
<g><path style="opacity:0.004" fill="#d8a63c" d="M 969.5,481.5 C 970.833,482.167 970.833,482.167 969.5,481.5 Z"/></g>
<g><path style="opacity:0.004" fill="#d8a63b" d="M 986.5,494.5 C 987.833,495.167 987.833,495.167 986.5,494.5 Z"/></g>
<g><path style="opacity:0.004" fill="#deb24b" d="M 473.5,500.5 C 473.897,499.475 474.563,499.308 475.5,500C 474.906,500.464 474.239,500.631 473.5,500.5 Z"/></g>
<g><path style="opacity:0.004" fill="#e9c564" d="M 477.5,499.5 C 478.833,500.167 478.833,500.167 477.5,499.5 Z"/></g>
<g><path style="opacity:0.004" fill="#d7a439" d="M 1012.5,499.5 C 1013.83,500.167 1013.83,500.167 1012.5,499.5 Z"/></g>
<g><path style="opacity:0.804" fill="#dcad46" d="M 1011.5,500.5 C 1016.56,511.622 1021.89,522.622 1027.5,533.5C 1023.6,529.352 1019.93,525.019 1016.5,520.5C 1013.17,514.5 1009.83,508.5 1006.5,502.5C 1006.5,502.167 1006.5,501.833 1006.5,501.5C 1007.92,500.549 1009.59,500.216 1011.5,500.5 Z"/></g>
<g><path style="opacity:0.822" fill="#dfb24d" d="M 480.5,500.5 C 482.415,500.216 484.081,500.549 485.5,501.5C 482.072,508.692 478.405,515.692 474.5,522.5C 473.833,521.167 473.167,519.833 472.5,518.5C 475.167,512.5 477.833,506.5 480.5,500.5 Z"/></g>
<g><path style="opacity:0.819" fill="#dfb24d" d="M 996.5,501.5 C 993.418,507.999 990.085,514.332 986.5,520.5C 985.272,519.694 984.272,518.694 983.5,517.5C 986.167,512.167 988.833,506.833 991.5,501.5C 993.167,500.167 994.833,500.167 996.5,501.5 Z"/></g>
<g><path style="opacity:0.004" fill="#d7a53a" d="M 1006.5,502.5 C 1006.36,504.337 1005.69,504.67 1004.5,503.5C 1004.96,502.702 1005.62,502.369 1006.5,502.5 Z"/></g>
<g><path style="opacity:0.813" fill="#e2b754" d="M 983.5,517.5 C 984.272,518.694 985.272,519.694 986.5,520.5C 984.341,526.151 981.674,531.484 978.5,536.5C 977.728,535.306 976.728,534.306 975.5,533.5C 978.167,528.167 980.833,522.833 983.5,517.5 Z"/></g>
<g><path style="opacity:0.81" fill="#e2b754" d="M 472.5,518.5 C 473.167,519.833 473.833,521.167 474.5,522.5C 472.167,527.833 469.833,533.167 467.5,538.5C 466.512,537.205 465.512,535.872 464.5,534.5C 466.674,528.818 469.341,523.484 472.5,518.5 Z"/></g>
<g><path style="opacity:0.778" fill="#ddaf49" d="M 1016.5,520.5 C 1019.93,525.019 1023.6,529.352 1027.5,533.5C 1034.01,545.182 1040.01,557.182 1045.5,569.5C 1042.17,565.5 1038.83,561.5 1035.5,557.5C 1028.77,545.419 1022.44,533.086 1016.5,520.5 Z"/></g>
<g><path style="opacity:0.773" fill="#ddaf48" d="M 499.5,501.5 C 510.244,523.987 521.244,546.321 532.5,568.5C 528.596,564.352 524.929,560.019 521.5,555.5C 512.183,537.534 502.85,519.534 493.5,501.5C 495.389,500.258 497.389,500.258 499.5,501.5 Z"/></g>
<g><path style="opacity:0.807" fill="#e5bc5a" d="M 975.5,533.5 C 976.728,534.306 977.728,535.306 978.5,536.5C 976.07,542.357 973.403,548.023 970.5,553.5C 969.272,552.694 968.272,551.694 967.5,550.5C 969.896,544.708 972.563,539.041 975.5,533.5 Z"/></g>
<g><path style="opacity:0.779" fill="#e5bc5a" d="M 464.5,534.5 C 465.512,535.872 466.512,537.205 467.5,538.5C 464.214,544.075 461.214,549.741 458.5,555.5C 457.974,553.77 456.974,552.436 455.5,551.5C 458.262,545.64 461.262,539.974 464.5,534.5 Z"/></g>
<g><path style="opacity:0.992" fill="#dcad46" d="M 635.5,546.5 C 652.479,570.139 669.813,593.472 687.5,616.5C 687.5,620.167 687.5,623.833 687.5,627.5C 668.167,601.833 648.833,576.167 629.5,550.5C 629.5,549.167 629.5,547.833 629.5,546.5C 631.5,546.5 633.5,546.5 635.5,546.5 Z"/></g>
<g><path style="opacity:0.995" fill="#dbaa42" d="M 635.5,546.5 C 638.833,546.5 642.167,546.5 645.5,546.5C 658.77,566.042 672.77,585.042 687.5,603.5C 687.5,607.833 687.5,612.167 687.5,616.5C 669.813,593.472 652.479,570.139 635.5,546.5 Z"/></g>
<g><path style="opacity:0.993" fill="#daa83f" d="M 645.5,546.5 C 647.167,546.5 648.833,546.5 650.5,546.5C 662.48,563.141 674.814,579.474 687.5,595.5C 687.5,598.167 687.5,600.833 687.5,603.5C 672.77,585.042 658.77,566.042 645.5,546.5 Z"/></g>
<g><path style="opacity:0.992" fill="#d8a53b" d="M 650.5,546.5 C 655.833,546.5 661.167,546.5 666.5,546.5C 673.512,555.872 680.512,565.205 687.5,574.5C 687.5,581.5 687.5,588.5 687.5,595.5C 674.814,579.474 662.48,563.141 650.5,546.5 Z"/></g>
<g><path style="opacity:0.977" fill="#d6a135" d="M 666.5,546.5 C 673.5,546.5 680.5,546.5 687.5,546.5C 687.5,555.833 687.5,565.167 687.5,574.5C 680.512,565.205 673.512,555.872 666.5,546.5 Z"/></g>
<g><path style="opacity:0.971" fill="#dfb24c" d="M 795.5,548.5 C 807.191,564.518 818.858,580.518 830.5,596.5C 822.755,593.914 814.755,592.914 806.5,593.5C 796.246,579.981 786.246,566.315 776.5,552.5C 782.572,550.44 788.906,549.107 795.5,548.5 Z"/></g>
<g><path style="opacity:0.956" fill="#ddaf48" d="M 795.5,548.5 C 799.833,548.5 804.167,548.5 808.5,548.5C 827.087,573.352 845.42,598.352 863.5,623.5C 860.882,623.779 858.382,624.446 856,625.5C 852.584,611.256 844.084,601.59 830.5,596.5C 818.858,580.518 807.191,564.518 795.5,548.5 Z"/></g>
<g><path style="opacity:0.993" fill="#dcad46" d="M 808.5,548.5 C 813.5,548.5 818.5,548.5 823.5,548.5C 840.923,572.345 858.59,596.012 876.5,619.5C 872.12,620.678 867.787,622.012 863.5,623.5C 845.42,598.352 827.087,573.352 808.5,548.5 Z"/></g>
<g><path style="opacity:0.985" fill="#dbaa42" d="M 823.5,548.5 C 830.435,548.585 837.101,549.585 843.5,551.5C 859.191,572.852 874.858,594.185 890.5,615.5C 886.022,617.123 881.355,618.456 876.5,619.5C 858.59,596.012 840.923,572.345 823.5,548.5 Z"/></g>
<g><path style="opacity:0.987" fill="#ddaf49" d="M 629.5,550.5 C 648.833,576.167 668.167,601.833 687.5,627.5C 687.5,630.5 687.5,633.5 687.5,636.5C 668.167,610.833 648.833,585.167 629.5,559.5C 629.5,556.5 629.5,553.5 629.5,550.5 Z"/></g>
<g><path style="opacity:0.754" fill="#e7c060" d="M 967.5,550.5 C 968.272,551.694 969.272,552.694 970.5,553.5C 967.241,559.686 964.241,566.019 961.5,572.5C 960.512,571.205 959.512,569.872 958.5,568.5C 960.992,562.182 963.992,556.182 967.5,550.5 Z"/></g>
<g><path style="opacity:0.772" fill="#e7c060" d="M 455.5,551.5 C 456.974,552.436 457.974,553.77 458.5,555.5C 456.008,561.818 453.008,567.818 449.5,573.5C 448.833,572.167 447.833,571.167 446.5,570.5C 449.229,564.041 452.229,557.708 455.5,551.5 Z"/></g>
<g><path style="opacity:0.973" fill="#e1b450" d="M 776.5,552.5 C 786.246,566.315 796.246,579.981 806.5,593.5C 803.061,593.253 799.728,593.586 796.5,594.5C 786.858,581.185 777.191,567.852 767.5,554.5C 770.37,553.366 773.37,552.7 776.5,552.5 Z"/></g>
<g><path style="opacity:0.982" fill="#daa83f" d="M 843.5,551.5 C 848.54,551.85 853.206,553.184 857.5,555.5C 871.5,574.833 885.5,594.167 899.5,613.5C 896.598,614.578 893.598,615.244 890.5,615.5C 874.858,594.185 859.191,572.852 843.5,551.5 Z"/></g>
<g><path style="opacity:0.973" fill="#e2b854" d="M 767.5,554.5 C 777.191,567.852 786.858,581.185 796.5,594.5C 788.445,595.356 782.112,599.022 777.5,605.5C 766.814,592.141 756.48,578.474 746.5,564.5C 753.101,560.367 760.101,557.033 767.5,554.5 Z"/></g>
<g><path style="opacity:0.868" fill="#dfb24c" d="M 521.5,555.5 C 524.929,560.019 528.596,564.352 532.5,568.5C 538.392,579.282 544.059,590.282 549.5,601.5C 554.456,602.494 559.456,602.827 564.5,602.5C 564.984,611.256 563.651,619.589 560.5,627.5C 554.475,619.148 548.475,610.815 542.5,602.5C 543.376,602.631 544.043,602.298 544.5,601.5C 536.807,586.114 529.14,570.78 521.5,555.5 Z"/></g>
<g><path style="opacity:0.927" fill="#d8a63d" d="M 857.5,555.5 C 875.373,561.533 888.873,572.866 898,589.5C 901.577,596.153 904.744,602.987 907.5,610C 905.296,612.062 902.629,613.228 899.5,613.5C 885.5,594.167 871.5,574.833 857.5,555.5 Z"/></g>
<g><path style="opacity:0.871" fill="#dfb24c" d="M 1035.5,557.5 C 1038.83,561.5 1042.17,565.5 1045.5,569.5C 1051.43,579.031 1056.6,589.031 1061,599.5C 1065.74,600.469 1070.57,600.803 1075.5,600.5C 1075.82,608.901 1074.48,616.901 1071.5,624.5C 1065.12,616.788 1059.12,608.788 1053.5,600.5C 1054.55,600.649 1055.55,600.483 1056.5,600C 1049.09,586.012 1042.09,571.845 1035.5,557.5 Z"/></g>
<g><path style="opacity:0.987" fill="#dfb24c" d="M 629.5,559.5 C 648.833,585.167 668.167,610.833 687.5,636.5C 687.5,642.167 687.5,647.833 687.5,653.5C 668.167,627.833 648.833,602.167 629.5,576.5C 629.5,570.833 629.5,565.167 629.5,559.5 Z"/></g>
<g><path style="opacity:0.971" fill="#e4ba58" d="M 746.5,564.5 C 756.48,578.474 766.814,592.141 777.5,605.5C 776.677,608.461 776.01,611.461 775.5,614.5C 764.075,599.319 752.408,584.319 740.5,569.5C 742.091,567.367 744.091,565.701 746.5,564.5 Z"/></g>
<g><path style="opacity:0.748" fill="#e9c566" d="M 958.5,568.5 C 959.512,569.872 960.512,571.205 961.5,572.5C 958.072,579.692 954.405,586.692 950.5,593.5C 949.833,592.167 948.833,591.167 947.5,590.5C 950.657,582.854 954.323,575.52 958.5,568.5 Z"/></g>
<g><path style="opacity:0.986" fill="#e5bd5b" d="M 740.5,569.5 C 752.408,584.319 764.075,599.319 775.5,614.5C 776.12,622.421 780.12,627.754 787.5,630.5C 807.167,657.167 826.833,683.833 846.5,710.5C 838.097,707.553 829.431,705.886 820.5,705.5C 789.833,664.167 759.167,622.833 728.5,581.5C 731.5,576.5 735.5,572.5 740.5,569.5 Z"/></g>
<g><path style="opacity:0.78" fill="#e9c566" d="M 446.5,570.5 C 447.833,571.167 448.833,572.167 449.5,573.5C 446.403,580.691 443.07,587.691 439.5,594.5C 438.167,593.833 437.167,592.833 436.5,591.5C 439.597,584.309 442.93,577.309 446.5,570.5 Z"/></g>
<g><path style="opacity:0.987" fill="#e1b450" d="M 629.5,576.5 C 648.833,602.167 668.167,627.833 687.5,653.5C 687.5,655.833 687.5,658.167 687.5,660.5C 668.167,634.833 648.833,609.167 629.5,583.5C 629.5,581.167 629.5,578.833 629.5,576.5 Z"/></g>
<g><path style="opacity:0.99" fill="#e6bf5f" d="M 728.5,581.5 C 759.167,622.833 789.833,664.167 820.5,705.5C 814.152,704.593 807.819,703.593 801.5,702.5C 774.91,665.903 747.91,629.57 720.5,593.5C 722.178,588.803 724.844,584.803 728.5,581.5 Z"/></g>
<g><path style="opacity:0.987" fill="#e2b754" d="M 629.5,583.5 C 648.833,609.167 668.167,634.833 687.5,660.5C 687.5,667.5 687.5,674.5 687.5,681.5C 668.167,655.833 648.833,630.167 629.5,604.5C 629.5,597.5 629.5,590.5 629.5,583.5 Z"/></g>
<g><path style="opacity:0.988" fill="#e7c160" d="M 720.5,593.5 C 747.91,629.57 774.91,665.903 801.5,702.5C 800.041,702.567 798.708,702.234 797.5,701.5C 771.398,666.283 745.065,631.283 718.5,596.5C 718.932,595.29 719.599,594.29 720.5,593.5 Z"/></g>
<g><path style="opacity:0.971" fill="#ecca6c" d="M 947.5,590.5 C 948.833,591.167 949.833,592.167 950.5,593.5C 949.914,595.84 948.914,598.007 947.5,600C 948.094,600.464 948.761,600.631 949.5,600.5C 967.59,625.012 985.924,649.346 1004.5,673.5C 980.857,674.337 960.857,666.337 944.5,649.5C 932.776,635.326 927.442,618.993 928.5,600.5C 933.179,600.666 937.845,600.499 942.5,600C 944.277,596.791 945.943,593.624 947.5,590.5 Z"/></g>
<g><path style="opacity:0.972" fill="#ecca6c" d="M 436.5,591.5 C 437.167,592.833 438.167,593.833 439.5,594.5C 438.319,597.025 436.986,599.525 435.5,602C 436.448,602.483 437.448,602.649 438.5,602.5C 456.59,627.012 474.924,651.346 493.5,675.5C 460.458,676.26 436.625,661.926 422,632.5C 418.106,622.866 416.606,612.866 417.5,602.5C 421.846,602.666 426.179,602.499 430.5,602C 432.401,598.356 434.401,594.856 436.5,591.5 Z"/></g>
<g><path style="opacity:0.987" fill="#e8c262" d="M 718.5,596.5 C 745.065,631.283 771.398,666.283 797.5,701.5C 792.062,701.012 786.729,700.012 781.5,698.5C 759.52,668.526 737.186,638.86 714.5,609.5C 715.433,605.035 716.766,600.701 718.5,596.5 Z"/></g>
<g><path style="opacity:0.986" fill="#ebc869" d="M 949.5,600.5 C 951.833,600.5 954.167,600.5 956.5,600.5C 974.247,624.982 992.247,649.315 1010.5,673.5C 1008.5,673.5 1006.5,673.5 1004.5,673.5C 985.924,649.346 967.59,625.012 949.5,600.5 Z"/></g>
<g><path style="opacity:0.982" fill="#e9c566" d="M 956.5,600.5 C 965.167,600.5 973.833,600.5 982.5,600.5C 996.48,619.807 1010.81,638.807 1025.5,657.5C 1025.5,658.167 1025.83,658.5 1026.5,658.5C 1028.15,661.473 1030.15,664.14 1032.5,666.5C 1025.76,670.359 1018.42,672.692 1010.5,673.5C 992.247,649.315 974.247,624.982 956.5,600.5 Z"/></g>
<g><path style="opacity:0.974" fill="#e8c262" d="M 982.5,600.5 C 985.5,600.5 988.5,600.5 991.5,600.5C 1004.83,618.5 1018.17,636.5 1031.5,654.5C 1031.83,654.5 1032.17,654.5 1032.5,654.5C 1034.5,657.833 1036.5,661.167 1038.5,664.5C 1036.7,665.73 1034.7,666.396 1032.5,666.5C 1030.15,664.14 1028.15,661.473 1026.5,658.5C 1025.83,658.5 1025.5,658.167 1025.5,657.5C 1010.81,638.807 996.48,619.807 982.5,600.5 Z"/></g>
<g><path style="opacity:0.983" fill="#e7c05f" d="M 991.5,600.5 C 996.167,600.5 1000.83,600.5 1005.5,600.5C 1017.41,615.988 1029.08,631.655 1040.5,647.5C 1038.83,648.5 1037.5,649.833 1036.5,651.5C 1034.97,651.427 1033.97,652.094 1033.5,653.5C 1032.83,653.5 1032.5,653.833 1032.5,654.5C 1032.17,654.5 1031.83,654.5 1031.5,654.5C 1018.17,636.5 1004.83,618.5 991.5,600.5 Z"/></g>
<g><path style="opacity:0.974" fill="#e5bd5b" d="M 1005.5,600.5 C 1010.5,600.5 1015.5,600.5 1020.5,600.5C 1030.18,613.205 1039.84,625.872 1049.5,638.5C 1046.83,641.833 1043.83,644.833 1040.5,647.5C 1029.08,631.655 1017.41,615.988 1005.5,600.5 Z"/></g>
<g><path style="opacity:0.973" fill="#e4ba58" d="M 1020.5,600.5 C 1022.5,600.5 1024.5,600.5 1026.5,600.5C 1034.81,612.142 1043.48,623.475 1052.5,634.5C 1051.5,635.833 1050.5,637.167 1049.5,638.5C 1039.84,625.872 1030.18,613.205 1020.5,600.5 Z"/></g>
<g><path style="opacity:0.953" fill="#e2b854" d="M 1026.5,600.5 C 1033.17,600.5 1039.83,600.5 1046.5,600.5C 1053.69,610.899 1061.36,620.899 1069.5,630.5C 1067.25,636.005 1064.25,641.005 1060.5,645.5C 1057.94,642.72 1055.6,639.72 1053.5,636.5C 1053.67,635.508 1053.34,634.842 1052.5,634.5C 1043.48,623.475 1034.81,612.142 1026.5,600.5 Z"/></g>
<g><path style="opacity:0.96" fill="#e1b450" d="M 1046.5,600.5 C 1048.83,600.5 1051.17,600.5 1053.5,600.5C 1059.12,608.788 1065.12,616.788 1071.5,624.5C 1071.41,626.786 1070.74,628.786 1069.5,630.5C 1061.36,620.899 1053.69,610.899 1046.5,600.5 Z"/></g>
<g><path style="opacity:0.988" fill="#ebc869" d="M 438.5,602.5 C 440.833,602.5 443.167,602.5 445.5,602.5C 463.247,626.982 481.247,651.315 499.5,675.5C 497.5,675.5 495.5,675.5 493.5,675.5C 474.924,651.346 456.59,627.012 438.5,602.5 Z"/></g>
<g><path style="opacity:0.982" fill="#e9c566" d="M 445.5,602.5 C 454.167,602.5 462.833,602.5 471.5,602.5C 485.48,621.807 499.814,640.807 514.5,659.5C 514.5,660.167 514.833,660.5 515.5,660.5C 517.5,663.5 519.5,666.5 521.5,669.5C 514.534,672.742 507.2,674.742 499.5,675.5C 481.247,651.315 463.247,626.982 445.5,602.5 Z"/></g>
<g><path style="opacity:0.975" fill="#e8c262" d="M 471.5,602.5 C 474.5,602.5 477.5,602.5 480.5,602.5C 493.833,620.5 507.167,638.5 520.5,656.5C 520.833,656.5 521.167,656.5 521.5,656.5C 523.5,659.833 525.5,663.167 527.5,666.5C 525.574,667.486 523.574,668.486 521.5,669.5C 519.5,666.5 517.5,663.5 515.5,660.5C 514.833,660.5 514.5,660.167 514.5,659.5C 499.814,640.807 485.48,621.807 471.5,602.5 Z"/></g>
<g><path style="opacity:0.981" fill="#e7c05f" d="M 480.5,602.5 C 485.167,602.5 489.833,602.5 494.5,602.5C 506.41,617.988 518.077,633.655 529.5,649.5C 527.861,650.473 526.527,651.806 525.5,653.5C 523.973,653.427 522.973,654.094 522.5,655.5C 521.833,655.5 521.5,655.833 521.5,656.5C 521.167,656.5 520.833,656.5 520.5,656.5C 507.167,638.5 493.833,620.5 480.5,602.5 Z"/></g>
<g><path style="opacity:0.976" fill="#e5bd5b" d="M 494.5,602.5 C 499.5,602.5 504.5,602.5 509.5,602.5C 519.178,615.205 528.845,627.872 538.5,640.5C 535.833,643.833 532.833,646.833 529.5,649.5C 518.077,633.655 506.41,617.988 494.5,602.5 Z"/></g>
<g><path style="opacity:0.973" fill="#e4ba58" d="M 509.5,602.5 C 511.5,602.5 513.5,602.5 515.5,602.5C 523.814,614.142 532.481,625.475 541.5,636.5C 540.4,637.605 539.733,638.938 539.5,640.5C 539.167,640.5 538.833,640.5 538.5,640.5C 528.845,627.872 519.178,615.205 509.5,602.5 Z"/></g>
<g><path style="opacity:0.95" fill="#e2b854" d="M 515.5,602.5 C 522.167,602.5 528.833,602.5 535.5,602.5C 542.693,612.899 550.36,622.899 558.5,632.5C 556.772,638.293 553.772,643.293 549.5,647.5C 546.936,644.72 544.603,641.72 542.5,638.5C 542.5,637.833 542.5,637.167 542.5,636.5C 542.167,636.5 541.833,636.5 541.5,636.5C 532.481,625.475 523.814,614.142 515.5,602.5 Z M 544.5,633.5 C 544.573,635.027 543.906,636.027 542.5,636.5C 542.427,634.973 543.094,633.973 544.5,633.5 Z"/></g>
<g><path style="opacity:0.958" fill="#e1b450" d="M 535.5,602.5 C 537.833,602.5 540.167,602.5 542.5,602.5C 548.475,610.815 554.475,619.148 560.5,627.5C 560.598,629.553 559.931,631.22 558.5,632.5C 550.36,622.899 542.693,612.899 535.5,602.5 Z"/></g>
<g><path style="opacity:0.988" fill="#e4ba58" d="M 629.5,604.5 C 648.833,630.167 668.167,655.833 687.5,681.5C 687.5,683.5 687.5,685.5 687.5,687.5C 668.167,661.833 648.833,636.167 629.5,610.5C 629.5,608.5 629.5,606.5 629.5,604.5 Z"/></g>
<g><path style="opacity:0.963" fill="#e9c465" d="M 714.5,609.5 C 737.186,638.86 759.52,668.526 781.5,698.5C 764.885,695.354 749.552,689.187 735.5,680C 715.302,660.561 708.302,637.061 714.5,609.5 Z"/></g>
<g><path style="opacity:0.987" fill="#e5bd5b" d="M 629.5,610.5 C 648.833,636.167 668.167,661.833 687.5,687.5C 687.5,692.833 687.5,698.167 687.5,703.5C 668.167,677.833 648.833,652.167 629.5,626.5C 629.5,621.167 629.5,615.833 629.5,610.5 Z"/></g>
<g><path style="opacity:0.987" fill="#e7c05f" d="M 629.5,626.5 C 648.833,652.167 668.167,677.833 687.5,703.5C 687.5,708.5 687.5,713.5 687.5,718.5C 668.167,692.833 648.833,667.167 629.5,641.5C 629.5,636.5 629.5,631.5 629.5,626.5 Z"/></g>
<g><path style="opacity:0.981" fill="#e4ba58" d="M 787.5,630.5 C 791.152,631.629 794.818,632.629 798.5,633.5C 831.09,678.097 864.09,722.43 897.5,766.5C 896.167,768.5 894.5,770.167 892.5,771.5C 880.52,754.859 868.186,738.526 855.5,722.5C 854,717.339 851,713.339 846.5,710.5C 826.833,683.833 807.167,657.167 787.5,630.5 Z"/></g>
<g><path style="opacity:0.991" fill="#e2b854" d="M 798.5,633.5 C 808.799,635.079 819.132,636.412 829.5,637.5C 856.91,673.57 883.91,709.903 910.5,746.5C 907.657,754.198 903.324,760.865 897.5,766.5C 864.09,722.43 831.09,678.097 798.5,633.5 Z"/></g>
<g><path style="opacity:0.989" fill="#e1b450" d="M 829.5,637.5 C 833.454,638.381 837.454,639.048 841.5,639.5C 865.48,672.14 889.814,704.474 914.5,736.5C 913.733,740.149 912.4,743.482 910.5,746.5C 883.91,709.903 856.91,673.57 829.5,637.5 Z"/></g>
<g><path style="opacity:0.985" fill="#dfb24d" d="M 841.5,639.5 C 851.128,641.087 860.461,643.42 869.5,646.5C 885.016,668.2 901.016,689.533 917.5,710.5C 917.916,719.374 916.916,728.041 914.5,736.5C 889.814,704.474 865.48,672.14 841.5,639.5 Z"/></g>
<g><path style="opacity:0.911" fill="#e5bc5a" d="M 1053.5,636.5 C 1055.6,639.72 1057.94,642.72 1060.5,645.5C 1057.5,650.5 1053.5,654.5 1048.5,657.5C 1046.17,654.833 1043.83,652.167 1041.5,649.5C 1045.53,645.141 1049.53,640.807 1053.5,636.5 Z"/></g>
<g><path style="opacity:0.986" fill="#e8c262" d="M 629.5,641.5 C 648.833,667.167 668.167,692.833 687.5,718.5C 687.5,721.833 687.5,725.167 687.5,728.5C 668.167,702.833 648.833,677.167 629.5,651.5C 629.5,648.167 629.5,644.833 629.5,641.5 Z"/></g>
<g><path style="opacity:0.923" fill="#e5bc5a" d="M 542.5,638.5 C 544.603,641.72 546.936,644.72 549.5,647.5C 546.5,652.5 542.5,656.5 537.5,659.5C 535.167,656.833 532.833,654.167 530.5,651.5C 533.902,648.105 536.902,644.438 539.5,640.5C 540.5,639.833 541.5,639.167 542.5,638.5 Z"/></g>
<g><path style="opacity:0.967" fill="#ddaf48" d="M 869.5,646.5 C 891.836,652.002 906.669,665.669 914,687.5C 916.251,695.008 917.418,702.675 917.5,710.5C 901.016,689.533 885.016,668.2 869.5,646.5 Z"/></g>
<g><path style="opacity:0.004" fill="#eccb6d" d="M 944.5,649.5 C 943.833,650.167 943.833,650.167 944.5,649.5 Z"/></g>
<g><path style="opacity:0.923" fill="#e7c05f" d="M 1041.5,649.5 C 1043.83,652.167 1046.17,654.833 1048.5,657.5C 1045.2,659.821 1041.87,662.154 1038.5,664.5C 1036.5,661.167 1034.5,657.833 1032.5,654.5C 1033.17,654.5 1033.5,654.167 1033.5,653.5C 1035.03,653.573 1036.03,652.906 1036.5,651.5C 1038.17,650.833 1039.83,650.167 1041.5,649.5 Z"/></g>
<g><path style="opacity:0.922" fill="#e7c05f" d="M 530.5,651.5 C 532.833,654.167 535.167,656.833 537.5,659.5C 534.743,662.579 531.41,664.912 527.5,666.5C 525.5,663.167 523.5,659.833 521.5,656.5C 522.167,656.5 522.5,656.167 522.5,655.5C 524.027,655.573 525.027,654.906 525.5,653.5C 527.167,652.833 528.833,652.167 530.5,651.5 Z"/></g>
<g><path style="opacity:0.982" fill="#e9c566" d="M 629.5,651.5 C 648.833,677.167 668.167,702.833 687.5,728.5C 687.361,736.827 686.028,744.827 683.5,752.5C 666.229,727.624 648.229,703.29 629.5,679.5C 629.5,670.167 629.5,660.833 629.5,651.5 Z"/></g>
<g><path style="opacity:0.004" fill="#eccb6d" d="M 433.5,653.5 C 434.833,654.167 434.833,654.167 433.5,653.5 Z"/></g>
<g><path style="opacity:0.004" fill="#eccb6d" d="M 956.5,661.5 C 957.833,662.167 957.833,662.167 956.5,661.5 Z"/></g>
<g><path style="opacity:0.984" fill="#ebc869" d="M 629.5,679.5 C 648.229,703.29 666.229,727.624 683.5,752.5C 683.567,753.959 683.234,755.292 682.5,756.5C 664.833,733.167 647.167,709.833 629.5,686.5C 629.5,684.167 629.5,681.833 629.5,679.5 Z"/></g>
<g><path style="opacity:0.976" fill="#ecca6d" d="M 629.5,686.5 C 647.167,709.833 664.833,733.167 682.5,756.5C 676.124,775.042 663.457,786.876 644.5,792C 633.182,794.874 621.682,796.041 610,795.5C 597.064,795.695 584.231,794.695 571.5,792.5C 571.5,776.5 571.5,760.5 571.5,744.5C 584.448,746.248 597.448,746.748 610.5,746C 618.816,743.687 624.649,738.52 628,730.5C 629.394,715.878 629.894,701.211 629.5,686.5 Z"/></g>
<g><path style="opacity:0.993" fill="#ebc769" d="M 770.5,733.5 C 785.809,754.482 801.142,775.482 816.5,796.5C 813.5,796.5 810.5,796.5 807.5,796.5C 788.167,770.5 768.833,744.5 749.5,718.5C 754.199,717.659 758.866,717.659 763.5,718.5C 765.058,723.945 767.391,728.945 770.5,733.5 Z"/></g>
<g><path style="opacity:0.974" fill="#ecca6c" d="M 749.5,718.5 C 768.833,744.5 788.167,770.5 807.5,796.5C 781.398,797.476 757.398,790.976 735.5,777C 718.618,763.743 707.951,746.576 703.5,725.5C 718.927,723.535 734.26,721.201 749.5,718.5 Z"/></g>
<g><path style="opacity:0.976" fill="#e5bd5b" d="M 855.5,722.5 C 868.186,738.526 880.52,754.859 892.5,771.5C 888.223,775.312 883.557,778.645 878.5,781.5C 867.814,768.141 857.48,754.474 847.5,740.5C 853.813,736.263 856.479,730.263 855.5,722.5 Z"/></g>
<g><path style="opacity:0.974" fill="#eac566" d="M 770.5,733.5 C 784.43,745.741 800.763,750.741 819.5,748.5C 830.5,763.167 841.5,777.833 852.5,792.5C 840.677,795.311 828.677,796.644 816.5,796.5C 801.142,775.482 785.809,754.482 770.5,733.5 Z"/></g>
<g><path style="opacity:0.974" fill="#e7c05f" d="M 847.5,740.5 C 857.48,754.474 867.814,768.141 878.5,781.5C 873.93,784.616 868.93,786.95 863.5,788.5C 852.814,775.141 842.48,761.474 832.5,747.5C 837.587,745.458 842.587,743.125 847.5,740.5 Z"/></g>
<g><path style="opacity:0.976" fill="#e8c262" d="M 832.5,747.5 C 842.48,761.474 852.814,775.141 863.5,788.5C 860.045,790.209 856.379,791.542 852.5,792.5C 841.5,777.833 830.5,763.167 819.5,748.5C 823.857,748.414 828.19,748.08 832.5,747.5 Z"/></g>
<g><path style="opacity:0.931" fill="#ecc96c" d="M 629.5,820.5 C 639.5,833.833 649.5,847.167 659.5,860.5C 632.122,860.825 604.789,860.491 577.5,859.5C 576.45,841.112 584.45,828.278 601.5,821C 610.827,820.5 620.161,820.334 629.5,820.5 Z"/></g>
<g><path style="opacity:0.955" fill="#ebc869" d="M 629.5,820.5 C 637.167,820.5 644.833,820.5 652.5,820.5C 662.5,833.833 672.5,847.167 682.5,860.5C 674.833,860.5 667.167,860.5 659.5,860.5C 649.5,847.167 639.5,833.833 629.5,820.5 Z"/></g>
<g><path style="opacity:0.956" fill="#e9c566" d="M 652.5,820.5 C 684.833,820.5 717.167,820.5 749.5,820.5C 759.167,833.833 768.833,847.167 778.5,860.5C 746.5,860.5 714.5,860.5 682.5,860.5C 672.5,847.167 662.5,833.833 652.5,820.5 Z"/></g>
<g><path style="opacity:0.955" fill="#e8c262" d="M 749.5,820.5 C 760.167,820.5 770.833,820.5 781.5,820.5C 791.5,833.833 801.5,847.167 811.5,860.5C 800.5,860.5 789.5,860.5 778.5,860.5C 768.833,847.167 759.167,833.833 749.5,820.5 Z"/></g>
<g><path style="opacity:0.956" fill="#e7c160" d="M 781.5,820.5 C 785.167,820.5 788.833,820.5 792.5,820.5C 802.167,833.833 811.833,847.167 821.5,860.5C 818.167,860.5 814.833,860.5 811.5,860.5C 801.5,847.167 791.5,833.833 781.5,820.5 Z"/></g>
<g><path style="opacity:0.956" fill="#e6bf5f" d="M 792.5,820.5 C 806.167,820.5 819.833,820.5 833.5,820.5C 843.191,833.852 852.858,847.185 862.5,860.5C 848.833,860.5 835.167,860.5 821.5,860.5C 811.833,847.167 802.167,833.833 792.5,820.5 Z"/></g>
<g><path style="opacity:0.954" fill="#e5bd5b" d="M 833.5,820.5 C 852.341,820.17 871.007,820.503 889.5,821.5C 897.147,832.473 905.147,843.14 913.5,853.5C 914.605,855.713 914.605,857.88 913.5,860C 896.503,860.5 879.503,860.667 862.5,860.5C 852.858,847.185 843.191,833.852 833.5,820.5 Z"/></g>
<g><path style="opacity:0.8" fill="#e4bb58" d="M 889.5,821.5 C 904.253,826.97 912.253,837.637 913.5,853.5C 905.147,843.14 897.147,832.473 889.5,821.5 Z"/></g>
<g><path style="opacity:0.004" fill="#eccb6d" d="M 574.5,856.5 C 575.833,857.167 575.833,857.167 574.5,856.5 Z"/></g>
<g><path style="opacity:0.004" fill="#e4bc58" d="M 915.5,857.5 C 916.525,857.897 916.692,858.563 916,859.5C 915.536,858.906 915.369,858.239 915.5,857.5 Z"/></g>
<g><path style="opacity:0.004" fill="#eccb6d" d="M 574.5,859.5 C 575.833,860.167 575.833,860.167 574.5,859.5 Z"/></g>
<g><path style="opacity:0.004" fill="#eccb6d" d="M 620.5,906.5 C 620.897,905.475 621.563,905.308 622.5,906C 621.906,906.464 621.239,906.631 620.5,906.5 Z"/></g>
<g><path style="opacity:0.004" fill="#e7c362" d="M 820.5,905.5 C 821.833,906.167 821.833,906.167 820.5,905.5 Z"/></g>
<g><path style="opacity:0.936" fill="#ecca6d" d="M 695.5,907.5 C 705.475,921.148 715.475,934.815 725.5,948.5C 665.83,948.833 606.163,948.5 546.5,947.5C 546.634,937.319 549.467,927.986 555,919.5C 558.025,917.639 560.525,915.306 562.5,912.5C 565.262,911.62 567.929,910.454 570.5,909C 572.833,908.667 575.167,908.333 577.5,908C 616.832,907.5 656.165,907.333 695.5,907.5 Z"/></g>
<g><path style="opacity:0.936" fill="#ebc869" d="M 695.5,907.5 C 703.167,907.5 710.833,907.5 718.5,907.5C 728.5,921.167 738.5,934.833 748.5,948.5C 740.833,948.5 733.167,948.5 725.5,948.5C 715.475,934.815 705.475,921.148 695.5,907.5 Z"/></g>
<g><path style="opacity:0.938" fill="#e9c566" d="M 718.5,907.5 C 750.5,907.5 782.5,907.5 814.5,907.5C 824.754,921.019 834.754,934.685 844.5,948.5C 812.5,948.5 780.5,948.5 748.5,948.5C 738.5,934.833 728.5,921.167 718.5,907.5 Z"/></g>
<g><path style="opacity:0.936" fill="#e8c262" d="M 814.5,907.5 C 825.5,907.5 836.5,907.5 847.5,907.5C 857.5,921.167 867.5,934.833 877.5,948.5C 866.5,948.5 855.5,948.5 844.5,948.5C 834.754,934.685 824.754,921.019 814.5,907.5 Z"/></g>
<g><path style="opacity:0.938" fill="#e7c160" d="M 847.5,907.5 C 850.833,907.5 854.167,907.5 857.5,907.5C 867.754,921.019 877.754,934.685 887.5,948.5C 884.167,948.5 880.833,948.5 877.5,948.5C 867.5,934.833 857.5,921.167 847.5,907.5 Z"/></g>
<g><path style="opacity:0.936" fill="#e6bf5f" d="M 857.5,907.5 C 871.167,907.5 884.833,907.5 898.5,907.5C 908.59,921.346 918.924,935.013 929.5,948.5C 915.5,948.5 901.5,948.5 887.5,948.5C 877.754,934.685 867.754,921.019 857.5,907.5 Z"/></g>
<g><path style="opacity:0.901" fill="#e5be5c" d="M 898.5,907.5 C 915.05,904.227 928.05,909.227 937.5,922.5C 942.161,930.458 944.161,939.125 943.5,948.5C 938.833,948.5 934.167,948.5 929.5,948.5C 918.924,935.013 908.59,921.346 898.5,907.5 Z"/></g>
<g><path style="opacity:0.005" fill="#eccb6d" d="M 562.5,912.5 C 561.227,911.923 561.227,911.257 562.5,910.5C 563.463,910.97 563.463,911.637 562.5,912.5 Z"/></g>
<g><path style="opacity:0.004" fill="#e4bd5a" d="M 927.5,911.5 C 927.897,910.475 928.563,910.308 929.5,911C 928.906,911.464 928.239,911.631 927.5,911.5 Z"/></g>
<g><path style="opacity:0.004" fill="#e4bd5a" d="M 937.5,922.5 C 937.369,921.761 937.536,921.094 938,920.5C 938.692,921.437 938.525,922.103 937.5,922.5 Z"/></g>
<g><path style="opacity:0.004" fill="#e4bd5a" d="M 943.5,931.5 C 944.525,931.897 944.692,932.563 944,933.5C 943.536,932.906 943.369,932.239 943.5,931.5 Z"/></g>
<g><path style="opacity:0.004" fill="#e5bd5b" d="M 944.5,939.5 C 945.833,940.167 945.833,940.167 944.5,939.5 Z"/></g>
<g><path style="opacity:0.005" fill="#e5be5b" d="M 945.5,943.5 C 946.773,944.077 946.773,944.743 945.5,945.5C 944.537,945.03 944.537,944.363 945.5,943.5 Z"/></g>
<g><path style="opacity:0.004" fill="#eccb6d" d="M 548.5,949.5 C 549.833,950.167 549.833,950.167 548.5,949.5 Z"/></g>
<g><path style="opacity:0.004" fill="#ebc96a" d="M 714.5,949.5 C 715.833,950.167 715.833,950.167 714.5,949.5 Z"/></g>
<g><path style="opacity:0.004" fill="#eac768" d="M 751.5,949.5 C 752.833,950.167 752.833,950.167 751.5,949.5 Z"/></g>
<g><path style="opacity:0.004" fill="#e9c564" d="M 815.5,950.5 C 815.897,949.475 816.563,949.308 817.5,950C 816.906,950.464 816.239,950.631 815.5,950.5 Z"/></g>
<g><path style="opacity:0.004" fill="#e8c464" d="M 825.5,949.5 C 826.833,950.167 826.833,950.167 825.5,949.5 Z"/></g>
<g><path style="opacity:0.004" fill="#e8c362" d="M 853.5,950.5 C 853.897,949.475 854.563,949.308 855.5,950C 854.906,950.464 854.239,950.631 853.5,950.5 Z"/></g>
<g><path style="opacity:0.004" fill="#e7c160" d="M 879.5,950.5 C 880.251,949.427 881.251,949.26 882.5,950C 881.552,950.483 880.552,950.649 879.5,950.5 Z"/></g>
<g><path style="opacity:0.008" fill="#e5be5c" d="M 938.5,950.5 C 939.251,949.427 940.251,949.26 941.5,950C 940.552,950.483 939.552,950.649 938.5,950.5 Z"/></g>
<g><path style="opacity:0.946" fill="#eac566" d="M 591.5,1028.5 C 585.833,1021.17 580.167,1013.83 574.5,1006.5C 574.5,993.5 574.5,980.5 574.5,967.5C 580.167,967.5 585.833,967.5 591.5,967.5C 591.5,987.833 591.5,1008.17 591.5,1028.5 Z"/></g>
<g><path style="opacity:0.958" fill="#ebc769" d="M 562.5,1002.5 C 556.833,995.167 551.167,987.833 545.5,980.5C 545.5,976.167 545.5,971.833 545.5,967.5C 551.167,967.5 556.833,967.5 562.5,967.5C 562.5,979.167 562.5,990.833 562.5,1002.5 Z"/></g>
<g><path style="opacity:0.949" fill="#ecca6d" d="M 545.5,980.5 C 551.167,987.833 556.833,995.167 562.5,1002.5C 562.972,1027.9 562.472,1053.23 561,1078.5C 559.833,1079.67 558.667,1080.83 557.5,1082C 533.833,1082.33 510.167,1082.67 486.5,1083C 474.101,1087.63 470.267,1096.13 475,1108.5C 476.849,1111.54 478.682,1114.54 480.5,1117.5C 477.771,1123.96 474.771,1130.29 471.5,1136.5C 460.759,1126.64 455.426,1114.31 455.5,1099.5C 457.871,1067.81 474.871,1054.14 506.5,1058.5C 506.264,1047.62 502.597,1038.12 495.5,1030C 486.708,1025.62 477.375,1023.79 467.5,1024.5C 467.833,1016.5 468.167,1008.5 468.5,1000.5C 480.884,999.853 492.551,1002.35 503.5,1008C 512.969,1015.16 518.802,1024.66 521,1036.5C 522.491,1043.76 523.324,1051.1 523.5,1058.5C 530.833,1058.5 538.167,1058.5 545.5,1058.5C 545.5,1032.5 545.5,1006.5 545.5,980.5 Z"/></g>
<g><path style="opacity:0.945" fill="#e8c262" d="M 630.5,1008.5 C 634.147,1014.14 638.147,1019.47 642.5,1024.5C 639.214,1026.45 636.214,1028.78 633.5,1031.5C 627.185,1022.52 620.519,1013.86 613.5,1005.5C 613.5,1003.5 613.5,1001.5 613.5,999.5C 619.167,999.5 624.833,999.5 630.5,999.5C 630.5,1002.5 630.5,1005.5 630.5,1008.5 Z"/></g>
<g><path style="opacity:0.947" fill="#e6bf5f" d="M 645.5,1000.5 C 651.5,1008.5 657.5,1016.5 663.5,1024.5C 656.5,1024.5 649.5,1024.5 642.5,1024.5C 638.147,1019.47 634.147,1014.14 630.5,1008.5C 632.63,1006.87 634.63,1005.04 636.5,1003C 639.312,1001.45 642.312,1000.62 645.5,1000.5 Z"/></g>
<g><path style="opacity:0.961" fill="#e5bd5b" d="M 645.5,1000.5 C 655.506,1000.33 665.506,1000.5 675.5,1001C 678.438,1003.02 680.272,1005.86 681,1009.5C 681.5,1022.16 681.667,1034.83 681.5,1047.5C 675.5,1040.17 669.5,1032.83 663.5,1025.5C 663.5,1025.17 663.5,1024.83 663.5,1024.5C 657.5,1016.5 651.5,1008.5 645.5,1000.5 Z"/></g>
<g><path style="opacity:0.966" fill="#ddaf49" d="M 754.5,1000.5 C 761.116,1010.74 768.45,1020.41 776.5,1029.5C 776.5,1035.5 776.5,1041.5 776.5,1047.5C 770.5,1039.83 764.5,1032.17 758.5,1024.5C 753.141,1016.82 747.808,1009.15 742.5,1001.5C 746.298,1000.52 750.298,1000.18 754.5,1000.5 Z"/></g>
<g><path style="opacity:0.928" fill="#dcad46" d="M 754.5,1000.5 C 759.511,1000.33 764.511,1000.5 769.5,1001C 773.586,1003.66 775.753,1007.5 776,1012.5C 776.499,1018.16 776.666,1023.82 776.5,1029.5C 768.45,1020.41 761.116,1010.74 754.5,1000.5 Z"/></g>
<g><path style="opacity:0.96" fill="#d8a53b" d="M 830.5,1000.5 C 836.738,1010.4 843.738,1019.74 851.5,1028.5C 850.714,1038.86 847.714,1048.53 842.5,1057.5C 838.167,1052.17 833.833,1046.83 829.5,1041.5C 830.867,1037.24 832.533,1033.07 834.5,1029C 834.223,1027.11 833.223,1025.78 831.5,1025C 826.511,1024.5 821.511,1024.33 816.5,1024.5C 812.563,1017.62 807.896,1011.29 802.5,1005.5C 803.894,1003.29 805.894,1001.79 808.5,1001C 815.826,1000.5 823.159,1000.33 830.5,1000.5 Z"/></g>
<g><path style="opacity:0.957" fill="#d09728" d="M 993.5,1058.5 C 999.142,1066.48 1004.81,1074.48 1010.5,1082.5C 996.167,1082.5 981.833,1082.5 967.5,1082.5C 959.652,1070.8 951.319,1059.47 942.5,1048.5C 942.5,1040.5 942.5,1032.5 942.5,1024.5C 936.942,1024 931.608,1024.67 926.5,1026.5C 922.147,1021.47 918.147,1016.14 914.5,1010.5C 916.861,1005.96 920.527,1002.8 925.5,1001C 935.167,1000.33 944.833,1000.33 954.5,1001C 958.013,1003.52 959.846,1007.02 960,1011.5C 960.5,1027.16 960.667,1042.83 960.5,1058.5C 971.5,1058.5 982.5,1058.5 993.5,1058.5 Z"/></g>
<g><path style="opacity:0.945" fill="#cf9425" d="M 1010.5,1082.5 C 1004.81,1074.48 999.142,1066.48 993.5,1058.5C 999.833,1058.5 1006.17,1058.5 1012.5,1058.5C 1012.26,1047.62 1008.6,1038.12 1001.5,1030C 992.708,1025.62 983.375,1023.79 973.5,1024.5C 973.731,1016.49 974.065,1008.49 974.5,1000.5C 986.879,999.853 998.546,1002.35 1009.5,1008C 1017.87,1014.57 1023.37,1023.07 1026,1033.5C 1028.07,1041.71 1029.23,1050.04 1029.5,1058.5C 1031.5,1058.5 1033.5,1058.5 1035.5,1058.5C 1035.5,1066.5 1035.5,1074.5 1035.5,1082.5C 1027.17,1082.5 1018.83,1082.5 1010.5,1082.5 Z"/></g>
<g><path style="opacity:0.939" fill="#dfb24c" d="M 742.5,1001.5 C 747.808,1009.15 753.141,1016.82 758.5,1024.5C 754.154,1024.33 749.821,1024.5 745.5,1025C 743.627,1026.7 741.96,1028.54 740.5,1030.5C 736.167,1025.17 731.833,1019.83 727.5,1014.5C 730.358,1007.64 735.358,1003.3 742.5,1001.5 Z"/></g>
<g><path style="opacity:0.813" fill="#d6a237" d="M 830.5,1000.5 C 840.827,1001.65 847.327,1007.32 850,1017.5C 851.108,1021.09 851.608,1024.75 851.5,1028.5C 843.738,1019.74 836.738,1010.4 830.5,1000.5 Z"/></g>
<g><path style="opacity:0.959" fill="#d39d30" d="M 885.5,1026.5 C 880.073,1019.32 874.406,1012.32 868.5,1005.5C 873.735,1003.55 879.402,1002.88 885.5,1003.5C 885.5,1011.17 885.5,1018.83 885.5,1026.5 Z"/></g>
<g><path style="opacity:0.972" fill="#e9c566" d="M 613.5,1005.5 C 620.519,1013.86 627.185,1022.52 633.5,1031.5C 632.68,1033.81 631.847,1036.15 631,1038.5C 630.5,1045.16 630.334,1051.83 630.5,1058.5C 638.5,1058.5 646.5,1058.5 654.5,1058.5C 660.167,1066.5 665.833,1074.5 671.5,1082.5C 658.167,1082.5 644.833,1082.5 631.5,1082.5C 625.853,1074.19 619.853,1066.19 613.5,1058.5C 613.5,1040.83 613.5,1023.17 613.5,1005.5 Z"/></g>
<g><path style="opacity:0.964" fill="#d5a034" d="M 868.5,1005.5 C 874.406,1012.32 880.073,1019.32 885.5,1026.5C 885.5,1037.17 885.5,1047.83 885.5,1058.5C 891.833,1058.5 898.167,1058.5 904.5,1058.5C 904.5,1056.83 904.5,1055.17 904.5,1053.5C 912.594,1062.59 919.927,1072.26 926.5,1082.5C 916.167,1082.5 905.833,1082.5 895.5,1082.5C 886.488,1070.46 877.488,1058.46 868.5,1046.5C 868.5,1032.83 868.5,1019.17 868.5,1005.5 Z"/></g>
<g><path style="opacity:0.928" fill="#daa83f" d="M 802.5,1005.5 C 807.896,1011.29 812.563,1017.62 816.5,1024.5C 812.651,1024.02 810.651,1025.69 810.5,1029.5C 805.679,1023.86 801.346,1017.86 797.5,1011.5C 798.419,1008.91 800.086,1006.91 802.5,1005.5 Z"/></g>
<g><path style="opacity:0.927" fill="#d29a2d" d="M 914.5,1010.5 C 918.147,1016.14 922.147,1021.47 926.5,1026.5C 925.347,1028.81 924.18,1031.14 923,1033.5C 922.5,1041.16 922.334,1048.83 922.5,1056.5C 916.594,1049.68 910.927,1042.68 905.5,1035.5C 905.559,1025.98 908.559,1017.65 914.5,1010.5 Z"/></g>
<g><path style="opacity:0.96" fill="#dbaa42" d="M 797.5,1011.5 C 801.346,1017.86 805.679,1023.86 810.5,1029.5C 814.047,1038.26 817.88,1046.93 822,1055.5C 823.189,1053.77 824.356,1052.1 825.5,1050.5C 833.853,1060.86 841.853,1071.53 849.5,1082.5C 843.5,1082.5 837.5,1082.5 831.5,1082.5C 819.186,1065.53 806.519,1048.86 793.5,1032.5C 792.424,1025.03 793.757,1018.03 797.5,1011.5 Z"/></g>
<g><path style="opacity:0.935" fill="#e1b450" d="M 727.5,1014.5 C 731.833,1019.83 736.167,1025.17 740.5,1030.5C 739.083,1034 738.417,1037.66 738.5,1041.5C 733.259,1035.35 728.259,1029.02 723.5,1022.5C 724.655,1019.67 725.989,1017.01 727.5,1014.5 Z"/></g>
<g><path style="opacity:0.965" fill="#ecc96b" d="M 574.5,1006.5 C 580.167,1013.83 585.833,1021.17 591.5,1028.5C 591.5,1038.5 591.5,1048.5 591.5,1058.5C 595.833,1058.5 600.167,1058.5 604.5,1058.5C 610.192,1066.52 615.858,1074.52 621.5,1082.5C 607.496,1082.67 593.496,1082.5 579.5,1082C 578.333,1080.83 577.167,1079.67 576,1078.5C 574.53,1054.57 574.03,1030.57 574.5,1006.5 Z"/></g>
<g><path style="opacity:0.959" fill="#e2b854" d="M 723.5,1022.5 C 728.259,1029.02 733.259,1035.35 738.5,1041.5C 738.5,1047.17 738.5,1052.83 738.5,1058.5C 742.879,1058.92 747.212,1059.59 751.5,1060.5C 752.498,1068.47 752.831,1076.47 752.5,1084.5C 747.728,1084.29 743.062,1083.63 738.5,1082.5C 733.306,1074.77 727.639,1067.43 721.5,1060.5C 721.014,1047.74 721.68,1035.07 723.5,1022.5 Z"/></g>
<g><path style="opacity:0.964" fill="#dfb24c" d="M 758.5,1024.5 C 764.5,1032.17 770.5,1039.83 776.5,1047.5C 776.5,1051.17 776.5,1054.83 776.5,1058.5C 779.167,1058.5 781.833,1058.5 784.5,1058.5C 790.5,1066.5 796.5,1074.5 802.5,1082.5C 794.5,1082.5 786.5,1082.5 778.5,1082.5C 772.519,1073.86 766.186,1065.53 759.5,1057.5C 759.278,1046.5 758.944,1035.5 758.5,1024.5 Z"/></g>
<g><path style="opacity:0.906" fill="#e7c05f" d="M 663.5,1025.5 C 669.5,1032.83 675.5,1040.17 681.5,1047.5C 681.752,1056.87 681.418,1066.21 680.5,1075.5C 674.833,1068.17 669.167,1060.83 663.5,1053.5C 663.5,1044.17 663.5,1034.83 663.5,1025.5 Z"/></g>
<g><path style="opacity:0.958" fill="#dcad45" d="M 793.5,1032.5 C 806.519,1048.86 819.186,1065.53 831.5,1082.5C 826.167,1082.5 820.833,1082.5 815.5,1082.5C 809.808,1074.48 804.142,1066.48 798.5,1058.5C 799.873,1058.66 801.207,1058.49 802.5,1058C 797.648,1050.13 794.648,1041.63 793.5,1032.5 Z"/></g>
<g><path style="opacity:0.96" fill="#d49d30" d="M 905.5,1035.5 C 910.927,1042.68 916.594,1049.68 922.5,1056.5C 922.328,1057.49 922.662,1058.16 923.5,1058.5C 929.192,1066.52 934.858,1074.52 940.5,1082.5C 935.833,1082.5 931.167,1082.5 926.5,1082.5C 919.927,1072.26 912.594,1062.59 904.5,1053.5C 904.211,1047.41 904.545,1041.41 905.5,1035.5 Z"/></g>
<g><path style="opacity:0.971" fill="#daa83f" d="M 829.5,1041.5 C 833.833,1046.83 838.167,1052.17 842.5,1057.5C 842.5,1058.17 842.833,1058.5 843.5,1058.5C 849.142,1066.48 854.808,1074.48 860.5,1082.5C 856.833,1082.5 853.167,1082.5 849.5,1082.5C 841.853,1071.53 833.853,1060.86 825.5,1050.5C 826.075,1047.09 827.408,1044.09 829.5,1041.5 Z"/></g>
<g><path style="opacity:0.971" fill="#d6a337" d="M 868.5,1046.5 C 877.488,1058.46 886.488,1070.46 895.5,1082.5C 894.167,1082.5 892.833,1082.5 891.5,1082.5C 883.822,1072.46 876.155,1062.46 868.5,1052.5C 868.5,1050.5 868.5,1048.5 868.5,1046.5 Z"/></g>
<g><path style="opacity:0.965" fill="#d29a2d" d="M 942.5,1048.5 C 951.319,1059.47 959.652,1070.8 967.5,1082.5C 958.5,1082.5 949.5,1082.5 940.5,1082.5C 934.858,1074.52 929.192,1066.52 923.5,1058.5C 929.833,1058.5 936.167,1058.5 942.5,1058.5C 942.5,1055.17 942.5,1051.83 942.5,1048.5 Z"/></g>
<g><path style="opacity:0.971" fill="#d8a53b" d="M 868.5,1052.5 C 876.155,1062.46 883.822,1072.46 891.5,1082.5C 881.167,1082.5 870.833,1082.5 860.5,1082.5C 854.808,1074.48 849.142,1066.48 843.5,1058.5C 851.833,1058.5 860.167,1058.5 868.5,1058.5C 868.5,1056.5 868.5,1054.5 868.5,1052.5 Z"/></g>
<g><path style="opacity:0.953" fill="#e8c262" d="M 663.5,1053.5 C 669.167,1060.83 674.833,1068.17 680.5,1075.5C 679.542,1080.46 676.542,1082.79 671.5,1082.5C 665.833,1074.5 660.167,1066.5 654.5,1058.5C 657.5,1058.5 660.5,1058.5 663.5,1058.5C 663.5,1056.83 663.5,1055.17 663.5,1053.5 Z"/></g>
<g><path style="opacity:0.978" fill="#e1b450" d="M 759.5,1057.5 C 766.186,1065.53 772.519,1073.86 778.5,1082.5C 773.821,1082.67 769.155,1082.5 764.5,1082C 763.333,1080.83 762.167,1079.67 761,1078.5C 759.575,1071.62 759.075,1064.62 759.5,1057.5 Z"/></g>
<g><path style="opacity:0.972" fill="#ebc869" d="M 604.5,1058.5 C 607.5,1058.5 610.5,1058.5 613.5,1058.5C 619.853,1066.19 625.853,1074.19 631.5,1082.5C 628.167,1082.5 624.833,1082.5 621.5,1082.5C 615.858,1074.52 610.192,1066.52 604.5,1058.5 Z"/></g>
<g><path style="opacity:0.971" fill="#ddaf49" d="M 784.5,1058.5 C 789.167,1058.5 793.833,1058.5 798.5,1058.5C 804.142,1066.48 809.808,1074.48 815.5,1082.5C 811.167,1082.5 806.833,1082.5 802.5,1082.5C 796.5,1074.5 790.5,1066.5 784.5,1058.5 Z"/></g>
<g><path style="opacity:0.928" fill="#e4ba58" d="M 721.5,1060.5 C 727.639,1067.43 733.306,1074.77 738.5,1082.5C 724.239,1082.02 718.573,1074.69 721.5,1060.5 Z"/></g>
<g><path style="opacity:0.909" fill="#d9a63d" d="M 882.5,1094.5 C 885.649,1094.21 888.649,1094.71 891.5,1096C 896.6,1103.04 896.767,1110.21 892,1117.5C 890.088,1118.69 888.088,1119.69 886,1120.5C 879.803,1118.31 876.637,1113.81 876.5,1107C 876.778,1101.95 878.778,1097.78 882.5,1094.5 Z"/></g>
<g><path style="opacity:0.909" fill="#d1982a" d="M 993.5,1094.5 C 996.649,1094.21 999.649,1094.71 1002.5,1096C 1007.6,1103.04 1007.77,1110.21 1003,1117.5C 1001.09,1118.69 999.088,1119.69 997,1120.5C 990.803,1118.31 987.637,1113.81 987.5,1107C 987.778,1101.95 989.778,1097.78 993.5,1094.5 Z"/></g>
<g><path style="opacity:0.908" fill="#daa941" d="M 863.5,1094.5 C 869.468,1093.3 873.301,1095.63 875,1101.5C 877.473,1110.2 874.807,1116.53 867,1120.5C 862.036,1119.54 859.036,1116.54 858,1111.5C 856.376,1104.54 858.21,1098.87 863.5,1094.5 Z"/></g>
<g><path style="opacity:0.902" fill="#ddaf49" d="M 726.5,1151.5 C 725.833,1151.5 725.5,1151.83 725.5,1152.5C 724.833,1152.5 724.5,1152.83 724.5,1153.5C 723.5,1153.5 722.5,1153.5 721.5,1153.5C 721.5,1152.83 721.167,1152.5 720.5,1152.5C 720.5,1151.83 720.167,1151.5 719.5,1151.5C 717.48,1146.73 718.647,1143.06 723,1140.5C 727.489,1142.99 728.655,1146.66 726.5,1151.5 Z"/></g>
<g><path style="opacity:0.822" fill="#eccb6d" d="M 403.5,1150.5 C 406.044,1150.1 408.211,1150.77 410,1152.5C 411.004,1155.99 410.504,1159.16 408.5,1162C 405.196,1163.04 403.029,1161.88 402,1158.5C 401.554,1155.67 402.054,1153 403.5,1150.5 Z"/></g>
<g><path style="opacity:0.879" fill="#eccb6d" d="M 413.5,1150.5 C 415.722,1150.18 417.556,1150.84 419,1152.5C 420.004,1155.99 419.504,1159.16 417.5,1162C 415.299,1162.82 413.466,1162.32 412,1160.5C 411.037,1156.85 411.537,1153.52 413.5,1150.5 Z"/></g>
<g><path style="opacity:0.812" fill="#eccb6d" d="M 452.5,1150.5 C 458.997,1150.18 461.164,1153.18 459,1159.5C 457.419,1162.55 455.086,1163.22 452,1161.5C 450.028,1157.73 450.195,1154.06 452.5,1150.5 Z"/></g>
<g><path style="opacity:0.812" fill="#eccb6d" d="M 502.5,1150.5 C 508.997,1150.18 511.164,1153.18 509,1159.5C 507.419,1162.55 505.086,1163.22 502,1161.5C 500.028,1157.73 500.195,1154.06 502.5,1150.5 Z"/></g>
<g><path style="opacity:0.834" fill="#eccb6d" d="M 540.5,1150.5 C 543.044,1150.1 545.211,1150.77 547,1152.5C 548.004,1155.99 547.504,1159.16 545.5,1162C 542.196,1163.04 540.029,1161.88 539,1158.5C 538.572,1155.68 539.072,1153.01 540.5,1150.5 Z"/></g>
<g><path style="opacity:0.881" fill="#eccb6d" d="M 550.5,1150.5 C 552.722,1150.18 554.556,1150.84 556,1152.5C 557.004,1155.99 556.504,1159.16 554.5,1162C 552.299,1162.82 550.466,1162.32 549,1160.5C 548.037,1156.85 548.537,1153.52 550.5,1150.5 Z"/></g>
<g><path style="opacity:0.885" fill="#d9a63d" d="M 756.5,1150.5 C 758.722,1150.18 760.556,1150.84 762,1152.5C 763.004,1155.99 762.504,1159.16 760.5,1162C 758.299,1162.82 756.466,1162.32 755,1160.5C 754.037,1156.85 754.537,1153.52 756.5,1150.5 Z"/></g>
<g><path style="opacity:0.822" fill="#ce9424" d="M 905.5,1150.5 C 908.044,1150.1 910.211,1150.77 912,1152.5C 913.004,1155.99 912.504,1159.16 910.5,1162C 907.196,1163.04 905.029,1161.88 904,1158.5C 903.554,1155.67 904.054,1153 905.5,1150.5 Z"/></g>
<g><path style="opacity:0.879" fill="#ce9424" d="M 915.5,1150.5 C 917.722,1150.18 919.556,1150.84 921,1152.5C 922.004,1155.99 921.504,1159.16 919.5,1162C 917.299,1162.82 915.466,1162.32 914,1160.5C 913.037,1156.85 913.537,1153.52 915.5,1150.5 Z"/></g>
<g><path style="opacity:0.93" fill="#eccb6d" d="M 516.5,1151.5 C 519.167,1151.5 521.833,1151.5 524.5,1151.5C 524.5,1165.5 524.5,1179.5 524.5,1193.5C 527.833,1193.5 531.167,1193.5 534.5,1193.5C 533.665,1185.79 534.831,1178.46 538,1171.5C 540.95,1167.36 544.95,1165.69 550,1166.5C 552.167,1166.67 554.333,1166.83 556.5,1167C 557.667,1167.5 558.5,1168.33 559,1169.5C 559.5,1177.49 559.666,1185.49 559.5,1193.5C 562.5,1193.5 565.5,1193.5 568.5,1193.5C 568.5,1179.5 568.5,1165.5 568.5,1151.5C 571.167,1151.5 573.833,1151.5 576.5,1151.5C 576.667,1168.84 576.5,1186.17 576,1203.5C 575.5,1204 575,1204.5 574.5,1205C 555.833,1205.67 537.167,1205.67 518.5,1205C 518,1204.5 517.5,1204 517,1203.5C 516.5,1186.17 516.333,1168.84 516.5,1151.5 Z M 545.5,1178.5 C 547.5,1178.5 549.5,1178.5 551.5,1178.5C 551.5,1183.5 551.5,1188.5 551.5,1193.5C 543.944,1193.78 541.111,1190.11 543,1182.5C 543.662,1181.02 544.496,1179.68 545.5,1178.5 Z"/></g>
<g><path style="opacity:0.851" fill="#eccb6d" d="M 582.5,1151.5 C 585.5,1151.5 588.5,1151.5 591.5,1151.5C 591.5,1169.5 591.5,1187.5 591.5,1205.5C 588.5,1205.5 585.5,1205.5 582.5,1205.5C 582.5,1187.5 582.5,1169.5 582.5,1151.5 Z"/></g>
<g><path style="opacity:0.863" fill="#e9c566" d="M 661.5,1184.5 C 658.5,1181.17 655.5,1177.83 652.5,1174.5C 652.5,1166.83 652.5,1159.17 652.5,1151.5C 655.5,1151.5 658.5,1151.5 661.5,1151.5C 661.5,1162.5 661.5,1173.5 661.5,1184.5 Z"/></g>
<g><path style="opacity:0.844" fill="#e0b34e" d="M 719.5,1151.5 C 720.167,1151.5 720.5,1151.83 720.5,1152.5C 721.167,1152.5 721.5,1152.83 721.5,1153.5C 723.282,1157.55 722.615,1161.05 719.5,1164C 716.702,1164.56 714.869,1163.39 714,1160.5C 712.82,1155.51 714.654,1152.51 719.5,1151.5 Z"/></g>
<g><path style="opacity:0.846" fill="#daa941" d="M 746.5,1150.5 C 749.044,1150.1 751.211,1150.77 753,1152.5C 754.004,1155.99 753.504,1159.16 751.5,1162C 748.196,1163.04 746.029,1161.88 745,1158.5C 744.554,1155.67 745.054,1153 746.5,1150.5 Z"/></g>
<g><path style="opacity:0.936" fill="#d09728" d="M 834.5,1186.5 C 831.833,1183.5 829.167,1180.5 826.5,1177.5C 826.5,1168.83 826.5,1160.17 826.5,1151.5C 829.167,1151.5 831.833,1151.5 834.5,1151.5C 834.5,1163.17 834.5,1174.83 834.5,1186.5 Z"/></g>
<g><path style="opacity:0.854" fill="#cf9425" d="M 848.5,1176.5 C 845.261,1173.02 842.261,1169.35 839.5,1165.5C 839.5,1160.83 839.5,1156.17 839.5,1151.5C 842.5,1151.5 845.5,1151.5 848.5,1151.5C 848.5,1159.83 848.5,1168.17 848.5,1176.5 Z"/></g>
<g><path style="opacity:0.912" fill="#ce9424" d="M 930.5,1151.5 C 933.167,1151.5 935.833,1151.5 938.5,1151.5C 938.5,1165.5 938.5,1179.5 938.5,1193.5C 941.5,1193.5 944.5,1193.5 947.5,1193.5C 946.224,1183.67 948.891,1175.17 955.5,1168C 960.718,1166.44 966.051,1166.1 971.5,1167C 972,1167.5 972.5,1168 973,1168.5C 974.597,1179.43 974.931,1190.43 974,1201.5C 973.5,1202.5 973,1203.5 972.5,1204.5C 959.179,1205.67 945.846,1205.83 932.5,1205C 932,1204.5 931.5,1204 931,1203.5C 930.5,1186.17 930.333,1168.84 930.5,1151.5 Z M 959.5,1178.5 C 961.5,1178.5 963.5,1178.5 965.5,1178.5C 965.5,1183.5 965.5,1188.5 965.5,1193.5C 962.5,1193.5 959.5,1193.5 956.5,1193.5C 956.334,1189.49 956.501,1185.49 957,1181.5C 958.045,1180.63 958.878,1179.63 959.5,1178.5 Z"/></g>
<g><path style="opacity:0.913" fill="#ce9424" d="M 978.5,1151.5 C 981.167,1151.5 983.833,1151.5 986.5,1151.5C 986.5,1165.5 986.5,1179.5 986.5,1193.5C 995.833,1193.5 1005.17,1193.5 1014.5,1193.5C 1013.97,1181.97 1007.97,1176.97 996.5,1178.5C 996.5,1174.5 996.5,1170.5 996.5,1166.5C 1014.64,1166.31 1023.31,1175.31 1022.5,1193.5C 1025.17,1193.5 1027.83,1193.5 1030.5,1193.5C 1029.86,1186.18 1031.03,1179.18 1034,1172.5C 1037.23,1167.64 1041.73,1165.64 1047.5,1166.5C 1049.83,1166.67 1052.17,1166.83 1054.5,1167C 1055,1167.5 1055.5,1168 1056,1168.5C 1056.5,1176.83 1056.67,1185.16 1056.5,1193.5C 1059.5,1193.5 1062.5,1193.5 1065.5,1193.5C 1065.5,1179.5 1065.5,1165.5 1065.5,1151.5C 1068.5,1151.5 1071.5,1151.5 1074.5,1151.5C 1074.5,1165.5 1074.5,1179.5 1074.5,1193.5C 1077.83,1193.5 1081.17,1193.5 1084.5,1193.5C 1084.5,1179.5 1084.5,1165.5 1084.5,1151.5C 1087.17,1151.5 1089.83,1151.5 1092.5,1151.5C 1092.67,1168.84 1092.5,1186.17 1092,1203.5C 1091.5,1204 1091,1204.5 1090.5,1205C 1053.83,1205.67 1017.17,1205.67 980.5,1205C 980,1204.5 979.5,1204 979,1203.5C 978.5,1186.17 978.333,1168.84 978.5,1151.5 Z M 1041.5,1178.5 C 1043.83,1178.5 1046.17,1178.5 1048.5,1178.5C 1048.5,1183.5 1048.5,1188.5 1048.5,1193.5C 1045.5,1193.5 1042.5,1193.5 1039.5,1193.5C 1039.02,1188.27 1039.68,1183.27 1041.5,1178.5 Z"/></g>
<g><path style="opacity:0.825" fill="#deb04a" d="M 726.5,1151.5 C 732.342,1153.2 733.842,1156.87 731,1162.5C 728.88,1165.08 726.713,1165.08 724.5,1162.5C 723.175,1159.47 723.175,1156.47 724.5,1153.5C 725.167,1153.5 725.5,1153.17 725.5,1152.5C 726.167,1152.5 726.5,1152.17 726.5,1151.5 Z"/></g>
<g><path style="opacity:0.901" fill="#d29a2d" d="M 826.5,1177.5 C 829.167,1180.5 831.833,1183.5 834.5,1186.5C 834.88,1191.82 833.88,1196.82 831.5,1201.5C 826.547,1194.54 821.213,1187.88 815.5,1181.5C 813.627,1173.75 810.627,1166.41 806.5,1159.5C 808.138,1156.7 809.971,1154.03 812,1151.5C 819.711,1162.99 824.378,1175.65 826,1189.5C 826.499,1185.51 826.666,1181.51 826.5,1177.5 Z"/></g>
<g><path style="opacity:0.932" fill="#e5bc5a" d="M 696.5,1180.5 C 693.833,1177.5 691.167,1174.5 688.5,1171.5C 688.5,1164.83 688.5,1158.17 688.5,1151.5C 691.167,1151.5 693.833,1151.5 696.5,1151.5C 696.5,1161.17 696.5,1170.83 696.5,1180.5 Z"/></g>
<g><path style="opacity:0.824" fill="#ecca6c" d="M 621.5,1156.5 C 625.251,1156.08 627.418,1157.75 628,1161.5C 628.608,1157.54 630.774,1156.04 634.5,1157C 637.723,1160.11 638.223,1163.61 636,1167.5C 632.274,1169.35 629.608,1168.35 628,1164.5C 626.872,1168.46 624.372,1169.46 620.5,1167.5C 618.951,1163.58 619.284,1159.91 621.5,1156.5 Z"/></g>
<g><path style="opacity:0.859" fill="#d09729" d="M 839.5,1165.5 C 842.261,1169.35 845.261,1173.02 848.5,1176.5C 848.5,1186.17 848.5,1195.83 848.5,1205.5C 845.5,1205.5 842.5,1205.5 839.5,1205.5C 839.5,1192.17 839.5,1178.83 839.5,1165.5 Z"/></g>
<g><path style="opacity:0.923" fill="#eccb6d" d="M 406.5,1166.5 C 410.846,1166.33 415.179,1166.5 419.5,1167C 420.333,1167.83 421.167,1168.67 422,1169.5C 422.5,1177.49 422.666,1185.49 422.5,1193.5C 425.833,1193.5 429.167,1193.5 432.5,1193.5C 432.5,1185.17 432.5,1176.83 432.5,1168.5C 435.167,1168.5 437.833,1168.5 440.5,1168.5C 440.5,1176.83 440.5,1185.17 440.5,1193.5C 444.833,1193.5 449.167,1193.5 453.5,1193.5C 453.5,1185.17 453.5,1176.83 453.5,1168.5C 456.167,1168.5 458.833,1168.5 461.5,1168.5C 461.667,1180.17 461.5,1191.84 461,1203.5C 460.5,1204 460,1204.5 459.5,1205C 445.167,1205.67 430.833,1205.67 416.5,1205C 415.874,1204.25 415.374,1203.42 415,1202.5C 414.5,1194.51 414.334,1186.51 414.5,1178.5C 411.881,1178.23 409.381,1178.56 407,1179.5C 405.612,1184.37 405.112,1189.37 405.5,1194.5C 407.5,1194.5 409.5,1194.5 411.5,1194.5C 411.5,1198.5 411.5,1202.5 411.5,1206.5C 407.061,1206.25 402.728,1205.41 398.5,1204C 397.874,1203.25 397.374,1202.42 397,1201.5C 396.13,1193.1 396.463,1184.77 398,1176.5C 399.687,1172.08 402.52,1168.75 406.5,1166.5 Z"/></g>
<g><path style="opacity:0.909" fill="#eccb6d" d="M 474.5,1166.5 C 478.846,1166.33 483.179,1166.5 487.5,1167C 489.538,1168.24 490.705,1170.07 491,1172.5C 491.5,1179.49 491.666,1186.49 491.5,1193.5C 495.5,1193.5 499.5,1193.5 503.5,1193.5C 503.5,1185.17 503.5,1176.83 503.5,1168.5C 506.167,1168.5 508.833,1168.5 511.5,1168.5C 511.667,1180.17 511.5,1191.84 511,1203.5C 510.5,1204 510,1204.5 509.5,1205C 503.141,1205.17 496.807,1205.67 490.5,1206.5C 489.356,1211.43 487.522,1216.1 485,1220.5C 481.523,1224.82 477.023,1226.82 471.5,1226.5C 471.5,1222.5 471.5,1218.5 471.5,1214.5C 478.339,1215 481.339,1212 480.5,1205.5C 472.808,1207.33 467.974,1204.33 466,1196.5C 465.333,1190.17 465.333,1183.83 466,1177.5C 467.553,1172.79 470.386,1169.12 474.5,1166.5 Z M 476.5,1178.5 C 478.5,1178.5 480.5,1178.5 482.5,1178.5C 482.666,1183.84 482.499,1189.18 482,1194.5C 478.751,1196.12 476.084,1195.45 474,1192.5C 472.806,1187.37 473.639,1182.7 476.5,1178.5 Z"/></g>
<g><path style="opacity:0.892" fill="#cf9425" d="M 876.5,1213.5 C 874.167,1210.83 871.833,1208.17 869.5,1205.5C 864.398,1198.28 859.064,1191.28 853.5,1184.5C 854.34,1168.32 862.34,1162.98 877.5,1168.5C 879.028,1173.01 879.695,1177.68 879.5,1182.5C 879.302,1192.94 878.302,1203.28 876.5,1213.5 Z M 864.5,1178.5 C 866.5,1178.5 868.5,1178.5 870.5,1178.5C 870.666,1183.84 870.499,1189.18 870,1194.5C 866.751,1196.12 864.084,1195.45 862,1192.5C 860.806,1187.37 861.639,1182.7 864.5,1178.5 Z"/></g>
<g><path style="opacity:0.904" fill="#ce9424" d="M 909.5,1166.5 C 913.846,1166.33 918.179,1166.5 922.5,1167C 923.893,1168.17 924.727,1169.67 925,1171.5C 925.667,1181.17 925.667,1190.83 925,1200.5C 924.167,1202.67 922.667,1204.17 920.5,1205C 914.833,1207 909.167,1207 903.5,1205C 901.667,1204.5 900.5,1203.33 900,1201.5C 899.333,1193.83 899.333,1186.17 900,1178.5C 901.223,1172.8 904.389,1168.8 909.5,1166.5 Z M 910.5,1178.5 C 912.5,1178.5 914.5,1178.5 916.5,1178.5C 916.5,1183.83 916.5,1189.17 916.5,1194.5C 913.5,1194.5 910.5,1194.5 907.5,1194.5C 907.334,1190.49 907.501,1186.49 908,1182.5C 908.662,1181.02 909.496,1179.68 910.5,1178.5 Z"/></g>
<g><path style="opacity:0.919" fill="#ecca6d" d="M 639.5,1168.5 C 642.167,1168.5 644.833,1168.5 647.5,1168.5C 647.667,1180.17 647.5,1191.84 647,1203.5C 646.5,1204 646,1204.5 645.5,1205C 636.398,1205.94 627.398,1205.61 618.5,1204C 613.573,1199.64 611.24,1194.14 611.5,1187.5C 611.712,1182.53 612.879,1177.87 615,1173.5C 617,1174.83 619,1176.17 621,1177.5C 621.105,1180.47 620.938,1183.47 620.5,1186.5C 620.288,1189.01 620.955,1191.18 622.5,1193C 628.157,1193.5 633.824,1193.67 639.5,1193.5C 639.5,1185.17 639.5,1176.83 639.5,1168.5 Z"/></g>
<g><path style="opacity:0.847" fill="#e3b956" d="M 714.5,1188.5 C 711.5,1185.17 708.5,1181.83 705.5,1178.5C 705.5,1175.17 705.5,1171.83 705.5,1168.5C 708.5,1168.5 711.5,1168.5 714.5,1168.5C 714.5,1175.17 714.5,1181.83 714.5,1188.5 Z"/></g>
<g><path style="opacity:0.874" fill="#dfb24c" d="M 740.5,1190.5 C 737.739,1186.65 734.739,1182.98 731.5,1179.5C 731.5,1175.83 731.5,1172.17 731.5,1168.5C 734.5,1168.5 737.5,1168.5 740.5,1168.5C 740.5,1175.83 740.5,1183.17 740.5,1190.5 Z"/></g>
<g><path style="opacity:0.861" fill="#dcac45" d="M 758.5,1189.5 C 755.739,1185.65 752.739,1181.98 749.5,1178.5C 749.5,1175.17 749.5,1171.83 749.5,1168.5C 752.5,1168.5 755.5,1168.5 758.5,1168.5C 758.5,1175.5 758.5,1182.5 758.5,1189.5 Z"/></g>
<g><path style="opacity:0.937" fill="#d5a034" d="M 803.5,1194.5 C 800.833,1191.5 798.167,1188.5 795.5,1185.5C 795.5,1179.83 795.5,1174.17 795.5,1168.5C 798.167,1168.5 800.833,1168.5 803.5,1168.5C 803.5,1177.17 803.5,1185.83 803.5,1194.5 Z"/></g>
<g><path style="opacity:0.897" fill="#e2b753" d="M 731.5,1186.5 C 736.896,1192.29 741.563,1198.62 745.5,1205.5C 740.5,1205.5 735.5,1205.5 730.5,1205.5C 726.853,1199.86 722.853,1194.53 718.5,1189.5C 718.5,1182.5 718.5,1175.5 718.5,1168.5C 721.5,1168.5 724.5,1168.5 727.5,1168.5C 727.5,1176.83 727.5,1185.17 727.5,1193.5C 728.833,1193.5 730.167,1193.5 731.5,1193.5C 731.5,1191.17 731.5,1188.83 731.5,1186.5 Z"/></g>
<g><path style="opacity:0.937" fill="#d8a43a" d="M 795.5,1185.5 C 798.167,1188.5 800.833,1191.5 803.5,1194.5C 805.5,1203.83 801.833,1207.5 792.5,1205.5C 789.547,1200.55 786.214,1195.88 782.5,1191.5C 782.5,1183.83 782.5,1176.17 782.5,1168.5C 785.167,1168.5 787.833,1168.5 790.5,1168.5C 790.5,1176.83 790.5,1185.17 790.5,1193.5C 792.167,1193.5 793.833,1193.5 795.5,1193.5C 795.5,1190.83 795.5,1188.17 795.5,1185.5 Z"/></g>
<g><path style="opacity:0.931" fill="#e7c05f" d="M 688.5,1171.5 C 691.167,1174.5 693.833,1177.5 696.5,1180.5C 696.5,1184.83 696.5,1189.17 696.5,1193.5C 699.5,1193.5 702.5,1193.5 705.5,1193.5C 708.488,1197.46 711.488,1201.46 714.5,1205.5C 710.833,1205.5 707.167,1205.5 703.5,1205.5C 698.975,1198.44 693.975,1191.77 688.5,1185.5C 688.5,1180.83 688.5,1176.17 688.5,1171.5 Z"/></g>
<g><path style="opacity:0.954" fill="#e8c262" d="M 683.5,1186.5 C 680.833,1183.5 678.167,1180.5 675.5,1177.5C 675.5,1175.83 675.5,1174.17 675.5,1172.5C 678.167,1172.5 680.833,1172.5 683.5,1172.5C 683.5,1177.17 683.5,1181.83 683.5,1186.5 Z"/></g>
<g><path style="opacity:0.967" fill="#d9a73e" d="M 777.5,1191.5 C 774.833,1188.17 772.167,1184.83 769.5,1181.5C 769.5,1177.17 769.5,1172.83 769.5,1168.5C 772.167,1168.5 774.833,1168.5 777.5,1168.5C 777.5,1176.17 777.5,1183.83 777.5,1191.5 Z"/></g>
<g><path style="opacity:0.935" fill="#e9c566" d="M 675.5,1177.5 C 678.167,1180.5 680.833,1183.5 683.5,1186.5C 683.901,1194.97 683.234,1203.31 681.5,1211.5C 679.167,1208.83 676.833,1206.17 674.5,1203.5C 675.411,1194.87 675.745,1186.21 675.5,1177.5 Z"/></g>
<g><path style="opacity:0.924" fill="#e5bc5a" d="M 705.5,1178.5 C 708.5,1181.83 711.5,1185.17 714.5,1188.5C 714.5,1190.17 714.5,1191.83 714.5,1193.5C 715.833,1193.5 717.167,1193.5 718.5,1193.5C 718.5,1192.17 718.5,1190.83 718.5,1189.5C 722.853,1194.53 726.853,1199.86 730.5,1205.5C 725.167,1205.5 719.833,1205.5 714.5,1205.5C 711.488,1201.46 708.488,1197.46 705.5,1193.5C 705.5,1188.5 705.5,1183.5 705.5,1178.5 Z"/></g>
<g><path style="opacity:0.914" fill="#ddae48" d="M 749.5,1178.5 C 752.739,1181.98 755.739,1185.65 758.5,1189.5C 758.5,1190.83 758.5,1192.17 758.5,1193.5C 762.167,1193.5 765.833,1193.5 769.5,1193.5C 772.585,1197.25 775.251,1201.25 777.5,1205.5C 772.833,1205.5 768.167,1205.5 763.5,1205.5C 759.185,1199.19 754.518,1193.19 749.5,1187.5C 749.5,1184.5 749.5,1181.5 749.5,1178.5 Z"/></g>
<g><path style="opacity:0.907" fill="#e1b450" d="M 731.5,1179.5 C 734.739,1182.98 737.739,1186.65 740.5,1190.5C 740.285,1192.18 740.952,1193.18 742.5,1193.5C 745.5,1197.5 748.5,1201.5 751.5,1205.5C 749.5,1205.5 747.5,1205.5 745.5,1205.5C 741.563,1198.62 736.896,1192.29 731.5,1186.5C 731.5,1184.17 731.5,1181.83 731.5,1179.5 Z"/></g>
<g><path style="opacity:0.843" fill="#ecc96b" d="M 652.5,1174.5 C 655.5,1177.83 658.5,1181.17 661.5,1184.5C 661.5,1191.5 661.5,1198.5 661.5,1205.5C 658.5,1205.5 655.5,1205.5 652.5,1205.5C 652.5,1195.17 652.5,1184.83 652.5,1174.5 Z"/></g>
<g><path style="opacity:0.971" fill="#dbaa41" d="M 769.5,1181.5 C 772.167,1184.83 774.833,1188.17 777.5,1191.5C 777.791,1192.65 778.624,1193.32 780,1193.5C 781.376,1193.32 782.209,1192.65 782.5,1191.5C 786.214,1195.88 789.547,1200.55 792.5,1205.5C 787.5,1205.5 782.5,1205.5 777.5,1205.5C 775.251,1201.25 772.585,1197.25 769.5,1193.5C 769.5,1189.5 769.5,1185.5 769.5,1181.5 Z"/></g>
<g><path style="opacity:0.94" fill="#d49d30" d="M 815.5,1181.5 C 821.213,1187.88 826.547,1194.54 831.5,1201.5C 830.5,1203.17 829.167,1204.5 827.5,1205.5C 824.167,1201.5 820.833,1197.5 817.5,1193.5C 816.741,1189.52 816.075,1185.52 815.5,1181.5 Z"/></g>
<g><path style="opacity:0.928" fill="#d09627" d="M 853.5,1184.5 C 859.064,1191.28 864.398,1198.28 869.5,1205.5C 861.317,1207.82 856.151,1204.82 854,1196.5C 853.501,1192.51 853.334,1188.51 853.5,1184.5 Z"/></g>
<g><path style="opacity:0.986" fill="#e8c262" d="M 688.5,1185.5 C 693.975,1191.77 698.975,1198.44 703.5,1205.5C 699.154,1205.67 694.821,1205.5 690.5,1205C 690,1204.5 689.5,1204 689,1203.5C 688.501,1197.51 688.334,1191.51 688.5,1185.5 Z"/></g>
<g><path style="opacity:0.918" fill="#dfb24c" d="M 749.5,1187.5 C 754.518,1193.19 759.185,1199.19 763.5,1205.5C 759.5,1205.5 755.5,1205.5 751.5,1205.5C 748.5,1201.5 745.5,1197.5 742.5,1193.5C 744.833,1193.5 747.167,1193.5 749.5,1193.5C 749.5,1191.5 749.5,1189.5 749.5,1187.5 Z"/></g>
<g><path style="opacity:0.914" fill="#d5a034" d="M 817.5,1193.5 C 820.833,1197.5 824.167,1201.5 827.5,1205.5C 822.734,1208.33 817.567,1210.33 812,1211.5C 810.985,1207.56 810.485,1203.56 810.5,1199.5C 815.141,1199.89 817.474,1197.89 817.5,1193.5 Z"/></g>
<g><path style="opacity:0.882" fill="#d09728" d="M 869.5,1205.5 C 871.833,1208.17 874.167,1210.83 876.5,1213.5C 874.353,1222.41 868.687,1226.74 859.5,1226.5C 859.5,1222.5 859.5,1218.5 859.5,1214.5C 865.973,1215.03 869.306,1212.03 869.5,1205.5 Z"/></g>
<g><path style="opacity:0.885" fill="#ecc96c" d="M 674.5,1203.5 C 676.833,1206.17 679.167,1208.83 681.5,1211.5C 679.865,1221.14 674.198,1226.14 664.5,1226.5C 664.5,1222.5 664.5,1218.5 664.5,1214.5C 670.531,1213.46 673.864,1209.8 674.5,1203.5 Z"/></g>
<g><path style="opacity:0.809" fill="#eccb6d" d="M 430.5,1210.5 C 433.292,1210.45 435.125,1211.79 436,1214.5C 440.775,1208.76 443.941,1209.59 445.5,1217C 443.941,1224.41 440.775,1225.24 436,1219.5C 434.664,1222.59 432.498,1223.59 429.5,1222.5C 426.648,1218.16 426.981,1214.16 430.5,1210.5 Z"/></g>
</svg>
