<?xml version="1.0" encoding="utf-8"?>
<svg xmlns="http://www.w3.org/2000/svg" viewBox="417.2496 344.3792 1432.4999 606.1736" width="1432.5px" height="606.174px" xmlns:bx="https://boxy-svg.com">
  <defs>
    <linearGradient bx:pinned="true" id="color-0">
      <stop style="stop-color: rgb(236, 202, 109);" offset="0"/>
      <stop style="stop-color: rgb(207, 148, 37);" offset="1"/>
    </linearGradient>
    <style bx:fonts="ADLaM Display">@import url(https://fonts.googleapis.com/css2?family=ADLaM+Display%3Aital%2Cwght%400%2C400&amp;display=swap);</style>
  </defs>
  <g transform="matrix(0.9999999999999999, 0, 0, 0.9999999999999999, -5.684341886080802e-14, 0)">
    <path style="opacity:0.936" fill="#e4ba58" d="M 551.5,344.5 C 561.833,358.5 572.167,372.5 582.5,386.5C 555.742,386.08 541.076,372.413 538.5,345.5C 542.783,344.508 547.116,344.174 551.5,344.5 Z"/>
  </g>
  <g transform="matrix(0.9999999999999999, 0, 0, 0.9999999999999999, -5.684341886080802e-14, 0)">
    <path style="opacity:0.965" fill="#e2b754" d="M 551.5,344.5 C 575.5,344.5 599.5,344.5 623.5,344.5C 634.331,358.174 644.664,372.174 654.5,386.5C 630.5,386.5 606.5,386.5 582.5,386.5C 572.167,372.5 561.833,358.5 551.5,344.5 Z"/>
  </g>
  <g transform="matrix(0.9999999999999999, 0, 0, 0.9999999999999999, -5.684341886080802e-14, 0)">
    <path style="opacity:0.965" fill="#e1b450" d="M 623.5,344.5 C 631.833,344.5 640.167,344.5 648.5,344.5C 658.833,358.5 669.167,372.5 679.5,386.5C 671.167,386.5 662.833,386.5 654.5,386.5C 644.664,372.174 634.331,358.174 623.5,344.5 Z"/>
  </g>
  <g transform="matrix(0.9999999999999999, 0, 0, 0.9999999999999999, -5.684341886080802e-14, 0)">
    <path style="opacity:0.965" fill="#dfb24c" d="M 648.5,344.5 C 667.5,344.5 686.5,344.5 705.5,344.5C 715.833,358.5 726.167,372.5 736.5,386.5C 717.5,386.5 698.5,386.5 679.5,386.5C 669.167,372.5 658.833,358.5 648.5,344.5 Z"/>
  </g>
  <g transform="matrix(0.9999999999999999, 0, 0, 0.9999999999999999, -5.684341886080802e-14, 0)">
    <path style="opacity:0.966" fill="#ddaf49" d="M 705.5,344.5 C 715.833,344.5 726.167,344.5 736.5,344.5C 747.331,358.174 757.664,372.174 767.5,386.5C 757.167,386.5 746.833,386.5 736.5,386.5C 726.167,372.5 715.833,358.5 705.5,344.5 Z"/>
  </g>
  <g transform="matrix(0.9999999999999999, 0, 0, 0.9999999999999999, -5.684341886080802e-14, 0)">
    <path style="opacity:0.965" fill="#dcad46" d="M 736.5,344.5 C 749.167,344.5 761.833,344.5 774.5,344.5C 784.833,358.5 795.167,372.5 805.5,386.5C 792.833,386.5 780.167,386.5 767.5,386.5C 757.664,372.174 747.331,358.174 736.5,344.5 Z"/>
  </g>
  <g transform="matrix(0.9999999999999999, 0, 0, 0.9999999999999999, -5.684341886080802e-14, 0)">
    <path style="opacity:0.965" fill="#dbaa42" d="M 774.5,344.5 C 789.5,344.5 804.5,344.5 819.5,344.5C 829.833,358.5 840.167,372.5 850.5,386.5C 835.5,386.5 820.5,386.5 805.5,386.5C 795.167,372.5 784.833,358.5 774.5,344.5 Z"/>
  </g>
  <g transform="matrix(0.9999999999999999, 0, 0, 0.9999999999999999, -5.684341886080802e-14, 0)">
    <path style="opacity:0.966" fill="#daa940" d="M 819.5,344.5 C 823.167,344.5 826.833,344.5 830.5,344.5C 840.833,358.5 851.167,372.5 861.5,386.5C 857.833,386.5 854.167,386.5 850.5,386.5C 840.167,372.5 829.833,358.5 819.5,344.5 Z"/>
  </g>
  <g transform="matrix(0.9999999999999999, 0, 0, 0.9999999999999999, -5.684341886080802e-14, 0)">
    <path style="opacity:0.965" fill="#daa83f" d="M 830.5,344.5 C 835.5,344.5 840.5,344.5 845.5,344.5C 855.833,358.5 866.167,372.5 876.5,386.5C 871.5,386.5 866.5,386.5 861.5,386.5C 851.167,372.5 840.833,358.5 830.5,344.5 Z"/>
  </g>
  <g transform="matrix(0.9999999999999999, 0, 0, 0.9999999999999999, -5.684341886080802e-14, 0)">
    <path style="opacity:0.961" fill="#d8a53b" d="M 845.5,344.5 C 870.167,344.5 894.833,344.5 919.5,344.5C 926.5,354.5 933.5,364.5 940.5,374.5C 935.179,379.835 928.846,383.668 921.5,386C 906.504,386.5 891.504,386.667 876.5,386.5C 866.167,372.5 855.833,358.5 845.5,344.5 Z"/>
  </g>
  <g transform="matrix(0.9999999999999999, 0, 0, 0.9999999999999999, -5.684341886080802e-14, 0)">
    <path style="opacity:0.867" fill="#d6a237" d="M 919.5,344.5 C 930.5,344.5 941.5,344.5 952.5,344.5C 952.062,356.599 948.062,366.599 940.5,374.5C 933.5,364.5 926.5,354.5 919.5,344.5 Z"/>
  </g>
  <g transform="matrix(0.9999999999999999, 0, 0, 0.9999999999999999, -5.684341886080802e-14, 0)">
    <path style="opacity:0.008" fill="#d5a135" d="M 953.5,345.5 C 954.573,346.251 954.74,347.251 954,348.5C 953.517,347.552 953.351,346.552 953.5,345.5 Z"/>
  </g>
  <g transform="matrix(0.9999999999999999, 0, 0, 0.9999999999999999, -5.684341886080802e-14, 0)">
    <path style="opacity:0.004" fill="#e3bb58" d="M 562.5,386.5 C 562.897,385.475 563.563,385.308 564.5,386C 563.906,386.464 563.239,386.631 562.5,386.5 Z"/>
  </g>
  <g transform="matrix(0.9999999999999999, 0, 0, 0.9999999999999999, -5.684341886080802e-14, 0)">
    <path style="opacity:0.004" fill="#e3bb58" d="M 565.5,386.5 C 566.833,387.167 566.833,387.167 565.5,386.5 Z"/>
  </g>
  <g transform="matrix(0.9999999999999999, 0, 0, 0.9999999999999999, -5.684341886080802e-14, 0)">
    <path style="opacity:0.004" fill="#e3bb58" d="M 568.5,388.5 C 568.897,387.475 569.563,387.308 570.5,388C 569.906,388.464 569.239,388.631 568.5,388.5 Z"/>
  </g>
  <g transform="matrix(0.9999999999999999, 0, 0, 0.9999999999999999, -5.684341886080802e-14, 0)">
    <path style="opacity:0.941" fill="#e6bf5f" d="M 545.5,437.5 C 555.833,451.5 566.167,465.5 576.5,479.5C 562.833,479.5 549.167,479.5 535.5,479.5C 526.59,468.012 517.923,456.345 509.5,444.5C 515.12,440.681 521.453,438.514 528.5,438C 534.157,437.501 539.824,437.334 545.5,437.5 Z"/>
  </g>
  <g transform="matrix(0.9999999999999999, 0, 0, 0.9999999999999999, -5.684341886080802e-14, 0)">
    <path style="opacity:0.939" fill="#e5bd5b" d="M 545.5,437.5 C 563.833,437.5 582.167,437.5 600.5,437.5C 610.833,451.5 621.167,465.5 631.5,479.5C 613.167,479.5 594.833,479.5 576.5,479.5C 566.167,465.5 555.833,451.5 545.5,437.5 Z"/>
  </g>
  <g transform="matrix(0.9999999999999999, 0, 0, 0.9999999999999999, -5.684341886080802e-14, 0)">
    <path style="opacity:0.94" fill="#e4ba58" d="M 600.5,437.5 C 607.5,437.5 614.5,437.5 621.5,437.5C 631.833,451.5 642.167,465.5 652.5,479.5C 645.5,479.5 638.5,479.5 631.5,479.5C 621.167,465.5 610.833,451.5 600.5,437.5 Z"/>
  </g>
  <g transform="matrix(0.9999999999999999, 0, 0, 0.9999999999999999, -5.684341886080802e-14, 0)">
    <path style="opacity:0.939" fill="#e2b754" d="M 621.5,437.5 C 645.5,437.5 669.5,437.5 693.5,437.5C 703.858,451.518 714.191,465.518 724.5,479.5C 700.5,479.5 676.5,479.5 652.5,479.5C 642.167,465.5 631.833,451.5 621.5,437.5 Z"/>
  </g>
  <g transform="matrix(0.9999999999999999, 0, 0, 0.9999999999999999, -5.684341886080802e-14, 0)">
    <path style="opacity:0.939" fill="#e1b450" d="M 693.5,437.5 C 701.833,437.5 710.167,437.5 718.5,437.5C 728.833,451.5 739.167,465.5 749.5,479.5C 741.167,479.5 732.833,479.5 724.5,479.5C 714.191,465.518 703.858,451.518 693.5,437.5 Z"/>
  </g>
  <g transform="matrix(0.9999999999999999, 0, 0, 0.9999999999999999, -5.684341886080802e-14, 0)">
    <path style="opacity:0.939" fill="#dfb24c" d="M 718.5,437.5 C 737.5,437.5 756.5,437.5 775.5,437.5C 785.833,451.5 796.167,465.5 806.5,479.5C 787.5,479.5 768.5,479.5 749.5,479.5C 739.167,465.5 728.833,451.5 718.5,437.5 Z"/>
  </g>
  <g transform="matrix(0.9999999999999999, 0, 0, 0.9999999999999999, -5.684341886080802e-14, 0)">
    <path style="opacity:0.94" fill="#ddaf49" d="M 775.5,437.5 C 785.833,437.5 796.167,437.5 806.5,437.5C 816.858,451.518 827.191,465.518 837.5,479.5C 827.167,479.5 816.833,479.5 806.5,479.5C 796.167,465.5 785.833,451.5 775.5,437.5 Z"/>
  </g>
  <g transform="matrix(0.9999999999999999, 0, 0, 0.9999999999999999, -5.684341886080802e-14, 0)">
    <path style="opacity:0.94" fill="#dcad46" d="M 806.5,437.5 C 819.167,437.5 831.833,437.5 844.5,437.5C 854.833,451.5 865.167,465.5 875.5,479.5C 862.833,479.5 850.167,479.5 837.5,479.5C 827.191,465.518 816.858,451.518 806.5,437.5 Z"/>
  </g>
  <g transform="matrix(0.9999999999999999, 0, 0, 0.9999999999999999, -5.684341886080802e-14, 0)">
    <path style="opacity:0.939" fill="#dbaa42" d="M 844.5,437.5 C 859.5,437.5 874.5,437.5 889.5,437.5C 899.833,451.5 910.167,465.5 920.5,479.5C 905.5,479.5 890.5,479.5 875.5,479.5C 865.167,465.5 854.833,451.5 844.5,437.5 Z"/>
  </g>
  <g transform="matrix(0.9999999999999999, 0, 0, 0.9999999999999999, -5.684341886080802e-14, 0)">
    <path style="opacity:0.942" fill="#daa940" d="M 889.5,437.5 C 893.167,437.5 896.833,437.5 900.5,437.5C 910.833,451.5 921.167,465.5 931.5,479.5C 927.833,479.5 924.167,479.5 920.5,479.5C 910.167,465.5 899.833,451.5 889.5,437.5 Z"/>
  </g>
  <g transform="matrix(0.9999999999999999, 0, 0, 0.9999999999999999, -5.684341886080802e-14, 0)">
    <path style="opacity:0.938" fill="#daa83f" d="M 900.5,437.5 C 905.5,437.5 910.5,437.5 915.5,437.5C 925.833,451.5 936.167,465.5 946.5,479.5C 941.5,479.5 936.5,479.5 931.5,479.5C 921.167,465.5 910.833,451.5 900.5,437.5 Z"/>
  </g>
  <g transform="matrix(0.9999999999999999, 0, 0, 0.9999999999999999, -5.684341886080802e-14, 0)">
    <path style="opacity:0.931" fill="#d8a53b" d="M 915.5,437.5 C 930.837,437.333 946.17,437.5 961.5,438C 986.267,442.14 1002.1,456.307 1009,480.5C 1010.26,487.121 1011.09,493.788 1011.5,500.5C 1009.59,500.216 1007.92,500.549 1006.5,501.5C 1003.17,501.5 999.833,501.5 996.5,501.5C 994.833,500.167 993.167,500.167 991.5,501.5C 988.094,490.926 981.094,483.759 970.5,480C 962.507,479.5 954.507,479.334 946.5,479.5C 936.167,465.5 925.833,451.5 915.5,437.5 Z"/>
  </g>
  <g transform="matrix(0.9999999999999999, 0, 0, 0.9999999999999999, -5.684341886080802e-14, 0)">
    <path style="opacity:0.932" fill="#e7c160" d="M 509.5,444.5 C 517.923,456.345 526.59,468.012 535.5,479.5C 531.833,479.5 528.167,479.5 524.5,479.5C 517.142,469.149 509.808,458.815 502.5,448.5C 504.336,446.412 506.669,445.079 509.5,444.5 Z"/>
  </g>
  <g transform="matrix(0.9999999999999999, 0, 0, 0.9999999999999999, -5.684341886080802e-14, 0)">
    <path style="opacity:0.004" fill="#d6a338" d="M 989.5,447.5 C 990.833,448.167 990.833,448.167 989.5,447.5 Z"/>
  </g>
  <g transform="matrix(0.9999999999999999, 0, 0, 0.9999999999999999, -5.684341886080802e-14, 0)">
    <path style="opacity:0.93" fill="#e8c262" d="M 502.5,448.5 C 509.808,458.815 517.142,469.149 524.5,479.5C 514.52,480.17 507.186,484.837 502.5,493.5C 497.568,485.571 491.901,478.238 485.5,471.5C 488.95,462.296 494.617,454.63 502.5,448.5 Z"/>
  </g>
  <g transform="matrix(0.9999999999999999, 0, 0, 0.9999999999999999, -5.684341886080802e-14, 0)">
    <path style="opacity:0.882" fill="#e8c364" d="M 485.5,471.5 C 491.901,478.238 497.568,485.571 502.5,493.5C 501.871,496.397 500.871,499.064 499.5,501.5C 497.389,500.258 495.389,500.258 493.5,501.5C 490.833,501.5 488.167,501.5 485.5,501.5C 484.081,500.549 482.415,500.216 480.5,500.5C 479.861,499.903 479.528,499.07 479.5,498C 479.563,488.592 481.563,479.759 485.5,471.5 Z"/>
  </g>
  <g transform="matrix(0.9999999999999999, 0, 0, 0.9999999999999999, -5.684341886080802e-14, 0)">
    <path style="opacity:0.004" fill="#e7c261" d="M 517.5,481.5 C 518.773,482.077 518.773,482.743 517.5,483.5C 516.537,483.03 516.537,482.363 517.5,481.5 Z"/>
  </g>
  <g transform="matrix(0.9999999999999999, 0, 0, 0.9999999999999999, -5.684341886080802e-14, 0)">
    <path style="opacity:0.004" fill="#d8a63c" d="M 969.5,481.5 C 970.833,482.167 970.833,482.167 969.5,481.5 Z"/>
  </g>
  <g transform="matrix(0.9999999999999999, 0, 0, 0.9999999999999999, -5.684341886080802e-14, 0)">
    <path style="opacity:0.004" fill="#d8a63b" d="M 986.5,494.5 C 987.833,495.167 987.833,495.167 986.5,494.5 Z"/>
  </g>
  <g transform="matrix(0.9999999999999999, 0, 0, 0.9999999999999999, -5.684341886080802e-14, 0)">
    <path style="opacity:0.004" fill="#deb24b" d="M 473.5,500.5 C 473.897,499.475 474.563,499.308 475.5,500C 474.906,500.464 474.239,500.631 473.5,500.5 Z"/>
  </g>
  <g transform="matrix(0.9999999999999999, 0, 0, 0.9999999999999999, -5.684341886080802e-14, 0)">
    <path style="opacity:0.004" fill="#e9c564" d="M 477.5,499.5 C 478.833,500.167 478.833,500.167 477.5,499.5 Z"/>
  </g>
  <g transform="matrix(0.9999999999999999, 0, 0, 0.9999999999999999, -5.684341886080802e-14, 0)">
    <path style="opacity:0.004" fill="#d7a439" d="M 1012.5,499.5 C 1013.83,500.167 1013.83,500.167 1012.5,499.5 Z"/>
  </g>
  <g transform="matrix(0.9999999999999999, 0, 0, 0.9999999999999999, -5.684341886080802e-14, 0)">
    <path style="opacity:0.804" fill="#dcad46" d="M 1011.5,500.5 C 1016.56,511.622 1021.89,522.622 1027.5,533.5C 1023.6,529.352 1019.93,525.019 1016.5,520.5C 1013.17,514.5 1009.83,508.5 1006.5,502.5C 1006.5,502.167 1006.5,501.833 1006.5,501.5C 1007.92,500.549 1009.59,500.216 1011.5,500.5 Z"/>
  </g>
  <g transform="matrix(0.9999999999999999, 0, 0, 0.9999999999999999, -5.684341886080802e-14, 0)">
    <path style="opacity:0.822" fill="#dfb24d" d="M 480.5,500.5 C 482.415,500.216 484.081,500.549 485.5,501.5C 482.072,508.692 478.405,515.692 474.5,522.5C 473.833,521.167 473.167,519.833 472.5,518.5C 475.167,512.5 477.833,506.5 480.5,500.5 Z"/>
  </g>
  <g transform="matrix(0.9999999999999999, 0, 0, 0.9999999999999999, -5.684341886080802e-14, 0)">
    <path style="opacity:0.819" fill="#dfb24d" d="M 996.5,501.5 C 993.418,507.999 990.085,514.332 986.5,520.5C 985.272,519.694 984.272,518.694 983.5,517.5C 986.167,512.167 988.833,506.833 991.5,501.5C 993.167,500.167 994.833,500.167 996.5,501.5 Z"/>
  </g>
  <g transform="matrix(0.9999999999999999, 0, 0, 0.9999999999999999, -5.684341886080802e-14, 0)">
    <path style="opacity:0.004" fill="#d7a53a" d="M 1006.5,502.5 C 1006.36,504.337 1005.69,504.67 1004.5,503.5C 1004.96,502.702 1005.62,502.369 1006.5,502.5 Z"/>
  </g>
  <g transform="matrix(0.9999999999999999, 0, 0, 0.9999999999999999, -5.684341886080802e-14, 0)">
    <path style="opacity:0.813" fill="#e2b754" d="M 983.5,517.5 C 984.272,518.694 985.272,519.694 986.5,520.5C 984.341,526.151 981.674,531.484 978.5,536.5C 977.728,535.306 976.728,534.306 975.5,533.5C 978.167,528.167 980.833,522.833 983.5,517.5 Z"/>
  </g>
  <g transform="matrix(0.9999999999999999, 0, 0, 0.9999999999999999, -5.684341886080802e-14, 0)">
    <path style="opacity:0.81" fill="#e2b754" d="M 472.5,518.5 C 473.167,519.833 473.833,521.167 474.5,522.5C 472.167,527.833 469.833,533.167 467.5,538.5C 466.512,537.205 465.512,535.872 464.5,534.5C 466.674,528.818 469.341,523.484 472.5,518.5 Z"/>
  </g>
  <g transform="matrix(0.9999999999999999, 0, 0, 0.9999999999999999, -5.684341886080802e-14, 0)">
    <path style="opacity:0.778" fill="#ddaf49" d="M 1016.5,520.5 C 1019.93,525.019 1023.6,529.352 1027.5,533.5C 1034.01,545.182 1040.01,557.182 1045.5,569.5C 1042.17,565.5 1038.83,561.5 1035.5,557.5C 1028.77,545.419 1022.44,533.086 1016.5,520.5 Z"/>
  </g>
  <g transform="matrix(0.9999999999999999, 0, 0, 0.9999999999999999, -5.684341886080802e-14, 0)">
    <path style="opacity:0.773" fill="#ddaf48" d="M 499.5,501.5 C 510.244,523.987 521.244,546.321 532.5,568.5C 528.596,564.352 524.929,560.019 521.5,555.5C 512.183,537.534 502.85,519.534 493.5,501.5C 495.389,500.258 497.389,500.258 499.5,501.5 Z"/>
  </g>
  <g transform="matrix(0.9999999999999999, 0, 0, 0.9999999999999999, -5.684341886080802e-14, 0)">
    <path style="opacity:0.807" fill="#e5bc5a" d="M 975.5,533.5 C 976.728,534.306 977.728,535.306 978.5,536.5C 976.07,542.357 973.403,548.023 970.5,553.5C 969.272,552.694 968.272,551.694 967.5,550.5C 969.896,544.708 972.563,539.041 975.5,533.5 Z"/>
  </g>
  <g transform="matrix(0.9999999999999999, 0, 0, 0.9999999999999999, -5.684341886080802e-14, 0)">
    <path style="opacity:0.779" fill="#e5bc5a" d="M 464.5,534.5 C 465.512,535.872 466.512,537.205 467.5,538.5C 464.214,544.075 461.214,549.741 458.5,555.5C 457.974,553.77 456.974,552.436 455.5,551.5C 458.262,545.64 461.262,539.974 464.5,534.5 Z"/>
  </g>
  <g transform="matrix(0.9999999999999999, 0, 0, 0.9999999999999999, -5.684341886080802e-14, 0)">
    <path style="opacity:0.992" fill="#dcad46" d="M 635.5,546.5 C 652.479,570.139 669.813,593.472 687.5,616.5C 687.5,620.167 687.5,623.833 687.5,627.5C 668.167,601.833 648.833,576.167 629.5,550.5C 629.5,549.167 629.5,547.833 629.5,546.5C 631.5,546.5 633.5,546.5 635.5,546.5 Z"/>
  </g>
  <g transform="matrix(0.9999999999999999, 0, 0, 0.9999999999999999, -5.684341886080802e-14, 0)">
    <path style="opacity:0.995" fill="#dbaa42" d="M 635.5,546.5 C 638.833,546.5 642.167,546.5 645.5,546.5C 658.77,566.042 672.77,585.042 687.5,603.5C 687.5,607.833 687.5,612.167 687.5,616.5C 669.813,593.472 652.479,570.139 635.5,546.5 Z"/>
  </g>
  <g transform="matrix(0.9999999999999999, 0, 0, 0.9999999999999999, -5.684341886080802e-14, 0)">
    <path style="opacity:0.993" fill="#daa83f" d="M 645.5,546.5 C 647.167,546.5 648.833,546.5 650.5,546.5C 662.48,563.141 674.814,579.474 687.5,595.5C 687.5,598.167 687.5,600.833 687.5,603.5C 672.77,585.042 658.77,566.042 645.5,546.5 Z"/>
  </g>
  <g transform="matrix(0.9999999999999999, 0, 0, 0.9999999999999999, -5.684341886080802e-14, 0)">
    <path style="opacity:0.992" fill="#d8a53b" d="M 650.5,546.5 C 655.833,546.5 661.167,546.5 666.5,546.5C 673.512,555.872 680.512,565.205 687.5,574.5C 687.5,581.5 687.5,588.5 687.5,595.5C 674.814,579.474 662.48,563.141 650.5,546.5 Z"/>
  </g>
  <g transform="matrix(0.9999999999999999, 0, 0, 0.9999999999999999, -5.684341886080802e-14, 0)">
    <path style="opacity:0.977" fill="#d6a135" d="M 666.5,546.5 C 673.5,546.5 680.5,546.5 687.5,546.5C 687.5,555.833 687.5,565.167 687.5,574.5C 680.512,565.205 673.512,555.872 666.5,546.5 Z"/>
  </g>
  <g transform="matrix(0.9999999999999999, 0, 0, 0.9999999999999999, -5.684341886080802e-14, 0)">
    <path style="opacity:0.971" fill="#dfb24c" d="M 795.5,548.5 C 807.191,564.518 818.858,580.518 830.5,596.5C 822.755,593.914 814.755,592.914 806.5,593.5C 796.246,579.981 786.246,566.315 776.5,552.5C 782.572,550.44 788.906,549.107 795.5,548.5 Z"/>
  </g>
  <g transform="matrix(0.9999999999999999, 0, 0, 0.9999999999999999, -5.684341886080802e-14, 0)">
    <path style="opacity:0.956" fill="#ddaf48" d="M 795.5,548.5 C 799.833,548.5 804.167,548.5 808.5,548.5C 827.087,573.352 845.42,598.352 863.5,623.5C 860.882,623.779 858.382,624.446 856,625.5C 852.584,611.256 844.084,601.59 830.5,596.5C 818.858,580.518 807.191,564.518 795.5,548.5 Z"/>
  </g>
  <g transform="matrix(0.9999999999999999, 0, 0, 0.9999999999999999, -5.684341886080802e-14, 0)">
    <path style="opacity:0.993" fill="#dcad46" d="M 808.5,548.5 C 813.5,548.5 818.5,548.5 823.5,548.5C 840.923,572.345 858.59,596.012 876.5,619.5C 872.12,620.678 867.787,622.012 863.5,623.5C 845.42,598.352 827.087,573.352 808.5,548.5 Z"/>
  </g>
  <g transform="matrix(0.9999999999999999, 0, 0, 0.9999999999999999, -5.684341886080802e-14, 0)">
    <path style="opacity:0.985" fill="#dbaa42" d="M 823.5,548.5 C 830.435,548.585 837.101,549.585 843.5,551.5C 859.191,572.852 874.858,594.185 890.5,615.5C 886.022,617.123 881.355,618.456 876.5,619.5C 858.59,596.012 840.923,572.345 823.5,548.5 Z"/>
  </g>
  <g transform="matrix(0.9999999999999999, 0, 0, 0.9999999999999999, -5.684341886080802e-14, 0)">
    <path style="opacity:0.987" fill="#ddaf49" d="M 629.5,550.5 C 648.833,576.167 668.167,601.833 687.5,627.5C 687.5,630.5 687.5,633.5 687.5,636.5C 668.167,610.833 648.833,585.167 629.5,559.5C 629.5,556.5 629.5,553.5 629.5,550.5 Z"/>
  </g>
  <g transform="matrix(0.9999999999999999, 0, 0, 0.9999999999999999, -5.684341886080802e-14, 0)">
    <path style="opacity:0.754" fill="#e7c060" d="M 967.5,550.5 C 968.272,551.694 969.272,552.694 970.5,553.5C 967.241,559.686 964.241,566.019 961.5,572.5C 960.512,571.205 959.512,569.872 958.5,568.5C 960.992,562.182 963.992,556.182 967.5,550.5 Z"/>
  </g>
  <g transform="matrix(0.9999999999999999, 0, 0, 0.9999999999999999, -5.684341886080802e-14, 0)">
    <path style="opacity:0.772" fill="#e7c060" d="M 455.5,551.5 C 456.974,552.436 457.974,553.77 458.5,555.5C 456.008,561.818 453.008,567.818 449.5,573.5C 448.833,572.167 447.833,571.167 446.5,570.5C 449.229,564.041 452.229,557.708 455.5,551.5 Z"/>
  </g>
  <g transform="matrix(0.9999999999999999, 0, 0, 0.9999999999999999, -5.684341886080802e-14, 0)">
    <path style="opacity:0.973" fill="#e1b450" d="M 776.5,552.5 C 786.246,566.315 796.246,579.981 806.5,593.5C 803.061,593.253 799.728,593.586 796.5,594.5C 786.858,581.185 777.191,567.852 767.5,554.5C 770.37,553.366 773.37,552.7 776.5,552.5 Z"/>
  </g>
  <g transform="matrix(0.9999999999999999, 0, 0, 0.9999999999999999, -5.684341886080802e-14, 0)">
    <path style="opacity:0.982" fill="#daa83f" d="M 843.5,551.5 C 848.54,551.85 853.206,553.184 857.5,555.5C 871.5,574.833 885.5,594.167 899.5,613.5C 896.598,614.578 893.598,615.244 890.5,615.5C 874.858,594.185 859.191,572.852 843.5,551.5 Z"/>
  </g>
  <g transform="matrix(0.9999999999999999, 0, 0, 0.9999999999999999, -5.684341886080802e-14, 0)">
    <path style="opacity:0.973" fill="#e2b854" d="M 767.5,554.5 C 777.191,567.852 786.858,581.185 796.5,594.5C 788.445,595.356 782.112,599.022 777.5,605.5C 766.814,592.141 756.48,578.474 746.5,564.5C 753.101,560.367 760.101,557.033 767.5,554.5 Z"/>
  </g>
  <g transform="matrix(0.9999999999999999, 0, 0, 0.9999999999999999, -5.684341886080802e-14, 0)">
    <path style="opacity:0.868" fill="#dfb24c" d="M 521.5,555.5 C 524.929,560.019 528.596,564.352 532.5,568.5C 538.392,579.282 544.059,590.282 549.5,601.5C 554.456,602.494 559.456,602.827 564.5,602.5C 564.984,611.256 563.651,619.589 560.5,627.5C 554.475,619.148 548.475,610.815 542.5,602.5C 543.376,602.631 544.043,602.298 544.5,601.5C 536.807,586.114 529.14,570.78 521.5,555.5 Z"/>
  </g>
  <g transform="matrix(0.9999999999999999, 0, 0, 0.9999999999999999, -5.684341886080802e-14, 0)">
    <path style="opacity:0.927" fill="#d8a63d" d="M 857.5,555.5 C 875.373,561.533 888.873,572.866 898,589.5C 901.577,596.153 904.744,602.987 907.5,610C 905.296,612.062 902.629,613.228 899.5,613.5C 885.5,594.167 871.5,574.833 857.5,555.5 Z"/>
  </g>
  <g transform="matrix(0.9999999999999999, 0, 0, 0.9999999999999999, -5.684341886080802e-14, 0)">
    <path style="opacity:0.871" fill="#dfb24c" d="M 1035.5,557.5 C 1038.83,561.5 1042.17,565.5 1045.5,569.5C 1051.43,579.031 1056.6,589.031 1061,599.5C 1065.74,600.469 1070.57,600.803 1075.5,600.5C 1075.82,608.901 1074.48,616.901 1071.5,624.5C 1065.12,616.788 1059.12,608.788 1053.5,600.5C 1054.55,600.649 1055.55,600.483 1056.5,600C 1049.09,586.012 1042.09,571.845 1035.5,557.5 Z"/>
  </g>
  <g transform="matrix(0.9999999999999999, 0, 0, 0.9999999999999999, -5.684341886080802e-14, 0)">
    <path style="opacity:0.987" fill="#dfb24c" d="M 629.5,559.5 C 648.833,585.167 668.167,610.833 687.5,636.5C 687.5,642.167 687.5,647.833 687.5,653.5C 668.167,627.833 648.833,602.167 629.5,576.5C 629.5,570.833 629.5,565.167 629.5,559.5 Z"/>
  </g>
  <g transform="matrix(0.9999999999999999, 0, 0, 0.9999999999999999, -5.684341886080802e-14, 0)">
    <path style="opacity:0.971" fill="#e4ba58" d="M 746.5,564.5 C 756.48,578.474 766.814,592.141 777.5,605.5C 776.677,608.461 776.01,611.461 775.5,614.5C 764.075,599.319 752.408,584.319 740.5,569.5C 742.091,567.367 744.091,565.701 746.5,564.5 Z"/>
  </g>
  <g transform="matrix(0.9999999999999999, 0, 0, 0.9999999999999999, -5.684341886080802e-14, 0)">
    <path style="opacity:0.748" fill="#e9c566" d="M 958.5,568.5 C 959.512,569.872 960.512,571.205 961.5,572.5C 958.072,579.692 954.405,586.692 950.5,593.5C 949.833,592.167 948.833,591.167 947.5,590.5C 950.657,582.854 954.323,575.52 958.5,568.5 Z"/>
  </g>
  <g transform="matrix(0.9999999999999999, 0, 0, 0.9999999999999999, -5.684341886080802e-14, 0)">
    <path style="opacity:0.986" fill="#e5bd5b" d="M 740.5,569.5 C 752.408,584.319 764.075,599.319 775.5,614.5C 776.12,622.421 780.12,627.754 787.5,630.5C 807.167,657.167 826.833,683.833 846.5,710.5C 838.097,707.553 829.431,705.886 820.5,705.5C 789.833,664.167 759.167,622.833 728.5,581.5C 731.5,576.5 735.5,572.5 740.5,569.5 Z"/>
  </g>
  <g transform="matrix(0.9999999999999999, 0, 0, 0.9999999999999999, -5.684341886080802e-14, 0)">
    <path style="opacity:0.78" fill="#e9c566" d="M 446.5,570.5 C 447.833,571.167 448.833,572.167 449.5,573.5C 446.403,580.691 443.07,587.691 439.5,594.5C 438.167,593.833 437.167,592.833 436.5,591.5C 439.597,584.309 442.93,577.309 446.5,570.5 Z"/>
  </g>
  <g transform="matrix(0.9999999999999999, 0, 0, 0.9999999999999999, -5.684341886080802e-14, 0)">
    <path style="opacity:0.987" fill="#e1b450" d="M 629.5,576.5 C 648.833,602.167 668.167,627.833 687.5,653.5C 687.5,655.833 687.5,658.167 687.5,660.5C 668.167,634.833 648.833,609.167 629.5,583.5C 629.5,581.167 629.5,578.833 629.5,576.5 Z"/>
  </g>
  <g transform="matrix(0.9999999999999999, 0, 0, 0.9999999999999999, -5.684341886080802e-14, 0)">
    <path style="opacity:0.99" fill="#e6bf5f" d="M 728.5,581.5 C 759.167,622.833 789.833,664.167 820.5,705.5C 814.152,704.593 807.819,703.593 801.5,702.5C 774.91,665.903 747.91,629.57 720.5,593.5C 722.178,588.803 724.844,584.803 728.5,581.5 Z"/>
  </g>
  <g transform="matrix(0.9999999999999999, 0, 0, 0.9999999999999999, -5.684341886080802e-14, 0)">
    <path style="opacity:0.987" fill="#e2b754" d="M 629.5,583.5 C 648.833,609.167 668.167,634.833 687.5,660.5C 687.5,667.5 687.5,674.5 687.5,681.5C 668.167,655.833 648.833,630.167 629.5,604.5C 629.5,597.5 629.5,590.5 629.5,583.5 Z"/>
  </g>
  <g transform="matrix(0.9999999999999999, 0, 0, 0.9999999999999999, -5.684341886080802e-14, 0)">
    <path style="opacity:0.988" fill="#e7c160" d="M 720.5,593.5 C 747.91,629.57 774.91,665.903 801.5,702.5C 800.041,702.567 798.708,702.234 797.5,701.5C 771.398,666.283 745.065,631.283 718.5,596.5C 718.932,595.29 719.599,594.29 720.5,593.5 Z"/>
  </g>
  <g transform="matrix(0.9999999999999999, 0, 0, 0.9999999999999999, -5.684341886080802e-14, 0)">
    <path style="opacity:0.971" fill="#ecca6c" d="M 947.5,590.5 C 948.833,591.167 949.833,592.167 950.5,593.5C 949.914,595.84 948.914,598.007 947.5,600C 948.094,600.464 948.761,600.631 949.5,600.5C 967.59,625.012 985.924,649.346 1004.5,673.5C 980.857,674.337 960.857,666.337 944.5,649.5C 932.776,635.326 927.442,618.993 928.5,600.5C 933.179,600.666 937.845,600.499 942.5,600C 944.277,596.791 945.943,593.624 947.5,590.5 Z"/>
  </g>
  <g transform="matrix(0.9999999999999999, 0, 0, 0.9999999999999999, -5.684341886080802e-14, 0)">
    <path style="opacity:0.972" fill="#ecca6c" d="M 436.5,591.5 C 437.167,592.833 438.167,593.833 439.5,594.5C 438.319,597.025 436.986,599.525 435.5,602C 436.448,602.483 437.448,602.649 438.5,602.5C 456.59,627.012 474.924,651.346 493.5,675.5C 460.458,676.26 436.625,661.926 422,632.5C 418.106,622.866 416.606,612.866 417.5,602.5C 421.846,602.666 426.179,602.499 430.5,602C 432.401,598.356 434.401,594.856 436.5,591.5 Z"/>
  </g>
  <g transform="matrix(0.9999999999999999, 0, 0, 0.9999999999999999, -5.684341886080802e-14, 0)">
    <path style="opacity:0.987" fill="#e8c262" d="M 718.5,596.5 C 745.065,631.283 771.398,666.283 797.5,701.5C 792.062,701.012 786.729,700.012 781.5,698.5C 759.52,668.526 737.186,638.86 714.5,609.5C 715.433,605.035 716.766,600.701 718.5,596.5 Z"/>
  </g>
  <g transform="matrix(0.9999999999999999, 0, 0, 0.9999999999999999, -5.684341886080802e-14, 0)">
    <path style="opacity:0.986" fill="#ebc869" d="M 949.5,600.5 C 951.833,600.5 954.167,600.5 956.5,600.5C 974.247,624.982 992.247,649.315 1010.5,673.5C 1008.5,673.5 1006.5,673.5 1004.5,673.5C 985.924,649.346 967.59,625.012 949.5,600.5 Z"/>
  </g>
  <g transform="matrix(0.9999999999999999, 0, 0, 0.9999999999999999, -5.684341886080802e-14, 0)">
    <path style="opacity:0.982" fill="#e9c566" d="M 956.5,600.5 C 965.167,600.5 973.833,600.5 982.5,600.5C 996.48,619.807 1010.81,638.807 1025.5,657.5C 1025.5,658.167 1025.83,658.5 1026.5,658.5C 1028.15,661.473 1030.15,664.14 1032.5,666.5C 1025.76,670.359 1018.42,672.692 1010.5,673.5C 992.247,649.315 974.247,624.982 956.5,600.5 Z"/>
  </g>
  <g transform="matrix(0.9999999999999999, 0, 0, 0.9999999999999999, -5.684341886080802e-14, 0)">
    <path style="opacity:0.974" fill="#e8c262" d="M 982.5,600.5 C 985.5,600.5 988.5,600.5 991.5,600.5C 1004.83,618.5 1018.17,636.5 1031.5,654.5C 1031.83,654.5 1032.17,654.5 1032.5,654.5C 1034.5,657.833 1036.5,661.167 1038.5,664.5C 1036.7,665.73 1034.7,666.396 1032.5,666.5C 1030.15,664.14 1028.15,661.473 1026.5,658.5C 1025.83,658.5 1025.5,658.167 1025.5,657.5C 1010.81,638.807 996.48,619.807 982.5,600.5 Z"/>
  </g>
  <g transform="matrix(0.9999999999999999, 0, 0, 0.9999999999999999, -5.684341886080802e-14, 0)">
    <path style="opacity:0.983" fill="#e7c05f" d="M 991.5,600.5 C 996.167,600.5 1000.83,600.5 1005.5,600.5C 1017.41,615.988 1029.08,631.655 1040.5,647.5C 1038.83,648.5 1037.5,649.833 1036.5,651.5C 1034.97,651.427 1033.97,652.094 1033.5,653.5C 1032.83,653.5 1032.5,653.833 1032.5,654.5C 1032.17,654.5 1031.83,654.5 1031.5,654.5C 1018.17,636.5 1004.83,618.5 991.5,600.5 Z"/>
  </g>
  <g transform="matrix(0.9999999999999999, 0, 0, 0.9999999999999999, -5.684341886080802e-14, 0)">
    <path style="opacity:0.974" fill="#e5bd5b" d="M 1005.5,600.5 C 1010.5,600.5 1015.5,600.5 1020.5,600.5C 1030.18,613.205 1039.84,625.872 1049.5,638.5C 1046.83,641.833 1043.83,644.833 1040.5,647.5C 1029.08,631.655 1017.41,615.988 1005.5,600.5 Z"/>
  </g>
  <g transform="matrix(0.9999999999999999, 0, 0, 0.9999999999999999, -5.684341886080802e-14, 0)">
    <path style="opacity:0.973" fill="#e4ba58" d="M 1020.5,600.5 C 1022.5,600.5 1024.5,600.5 1026.5,600.5C 1034.81,612.142 1043.48,623.475 1052.5,634.5C 1051.5,635.833 1050.5,637.167 1049.5,638.5C 1039.84,625.872 1030.18,613.205 1020.5,600.5 Z"/>
  </g>
  <g transform="matrix(0.9999999999999999, 0, 0, 0.9999999999999999, -5.684341886080802e-14, 0)">
    <path style="opacity:0.953" fill="#e2b854" d="M 1026.5,600.5 C 1033.17,600.5 1039.83,600.5 1046.5,600.5C 1053.69,610.899 1061.36,620.899 1069.5,630.5C 1067.25,636.005 1064.25,641.005 1060.5,645.5C 1057.94,642.72 1055.6,639.72 1053.5,636.5C 1053.67,635.508 1053.34,634.842 1052.5,634.5C 1043.48,623.475 1034.81,612.142 1026.5,600.5 Z"/>
  </g>
  <g transform="matrix(0.9999999999999999, 0, 0, 0.9999999999999999, -5.684341886080802e-14, 0)">
    <path style="opacity:0.96" fill="#e1b450" d="M 1046.5,600.5 C 1048.83,600.5 1051.17,600.5 1053.5,600.5C 1059.12,608.788 1065.12,616.788 1071.5,624.5C 1071.41,626.786 1070.74,628.786 1069.5,630.5C 1061.36,620.899 1053.69,610.899 1046.5,600.5 Z"/>
  </g>
  <g transform="matrix(0.9999999999999999, 0, 0, 0.9999999999999999, -5.684341886080802e-14, 0)">
    <path style="opacity:0.988" fill="#ebc869" d="M 438.5,602.5 C 440.833,602.5 443.167,602.5 445.5,602.5C 463.247,626.982 481.247,651.315 499.5,675.5C 497.5,675.5 495.5,675.5 493.5,675.5C 474.924,651.346 456.59,627.012 438.5,602.5 Z"/>
  </g>
  <g transform="matrix(0.9999999999999999, 0, 0, 0.9999999999999999, -5.684341886080802e-14, 0)">
    <path style="opacity:0.982" fill="#e9c566" d="M 445.5,602.5 C 454.167,602.5 462.833,602.5 471.5,602.5C 485.48,621.807 499.814,640.807 514.5,659.5C 514.5,660.167 514.833,660.5 515.5,660.5C 517.5,663.5 519.5,666.5 521.5,669.5C 514.534,672.742 507.2,674.742 499.5,675.5C 481.247,651.315 463.247,626.982 445.5,602.5 Z"/>
  </g>
  <g transform="matrix(0.9999999999999999, 0, 0, 0.9999999999999999, -5.684341886080802e-14, 0)">
    <path style="opacity:0.975" fill="#e8c262" d="M 471.5,602.5 C 474.5,602.5 477.5,602.5 480.5,602.5C 493.833,620.5 507.167,638.5 520.5,656.5C 520.833,656.5 521.167,656.5 521.5,656.5C 523.5,659.833 525.5,663.167 527.5,666.5C 525.574,667.486 523.574,668.486 521.5,669.5C 519.5,666.5 517.5,663.5 515.5,660.5C 514.833,660.5 514.5,660.167 514.5,659.5C 499.814,640.807 485.48,621.807 471.5,602.5 Z"/>
  </g>
  <g transform="matrix(0.9999999999999999, 0, 0, 0.9999999999999999, -5.684341886080802e-14, 0)">
    <path style="opacity:0.981" fill="#e7c05f" d="M 480.5,602.5 C 485.167,602.5 489.833,602.5 494.5,602.5C 506.41,617.988 518.077,633.655 529.5,649.5C 527.861,650.473 526.527,651.806 525.5,653.5C 523.973,653.427 522.973,654.094 522.5,655.5C 521.833,655.5 521.5,655.833 521.5,656.5C 521.167,656.5 520.833,656.5 520.5,656.5C 507.167,638.5 493.833,620.5 480.5,602.5 Z"/>
  </g>
  <g transform="matrix(0.9999999999999999, 0, 0, 0.9999999999999999, -5.684341886080802e-14, 0)">
    <path style="opacity:0.976" fill="#e5bd5b" d="M 494.5,602.5 C 499.5,602.5 504.5,602.5 509.5,602.5C 519.178,615.205 528.845,627.872 538.5,640.5C 535.833,643.833 532.833,646.833 529.5,649.5C 518.077,633.655 506.41,617.988 494.5,602.5 Z"/>
  </g>
  <g transform="matrix(0.9999999999999999, 0, 0, 0.9999999999999999, -5.684341886080802e-14, 0)">
    <path style="opacity:0.973" fill="#e4ba58" d="M 509.5,602.5 C 511.5,602.5 513.5,602.5 515.5,602.5C 523.814,614.142 532.481,625.475 541.5,636.5C 540.4,637.605 539.733,638.938 539.5,640.5C 539.167,640.5 538.833,640.5 538.5,640.5C 528.845,627.872 519.178,615.205 509.5,602.5 Z"/>
  </g>
  <g transform="matrix(0.9999999999999999, 0, 0, 0.9999999999999999, -5.684341886080802e-14, 0)">
    <path style="opacity:0.95" fill="#e2b854" d="M 515.5,602.5 C 522.167,602.5 528.833,602.5 535.5,602.5C 542.693,612.899 550.36,622.899 558.5,632.5C 556.772,638.293 553.772,643.293 549.5,647.5C 546.936,644.72 544.603,641.72 542.5,638.5C 542.5,637.833 542.5,637.167 542.5,636.5C 542.167,636.5 541.833,636.5 541.5,636.5C 532.481,625.475 523.814,614.142 515.5,602.5 Z M 544.5,633.5 C 544.573,635.027 543.906,636.027 542.5,636.5C 542.427,634.973 543.094,633.973 544.5,633.5 Z"/>
  </g>
  <g transform="matrix(0.9999999999999999, 0, 0, 0.9999999999999999, -5.684341886080802e-14, 0)">
    <path style="opacity:0.958" fill="#e1b450" d="M 535.5,602.5 C 537.833,602.5 540.167,602.5 542.5,602.5C 548.475,610.815 554.475,619.148 560.5,627.5C 560.598,629.553 559.931,631.22 558.5,632.5C 550.36,622.899 542.693,612.899 535.5,602.5 Z"/>
  </g>
  <g transform="matrix(0.9999999999999999, 0, 0, 0.9999999999999999, -5.684341886080802e-14, 0)">
    <path style="opacity:0.988" fill="#e4ba58" d="M 629.5,604.5 C 648.833,630.167 668.167,655.833 687.5,681.5C 687.5,683.5 687.5,685.5 687.5,687.5C 668.167,661.833 648.833,636.167 629.5,610.5C 629.5,608.5 629.5,606.5 629.5,604.5 Z"/>
  </g>
  <g transform="matrix(0.9999999999999999, 0, 0, 0.9999999999999999, -5.684341886080802e-14, 0)">
    <path style="opacity:0.963" fill="#e9c465" d="M 714.5,609.5 C 737.186,638.86 759.52,668.526 781.5,698.5C 764.885,695.354 749.552,689.187 735.5,680C 715.302,660.561 708.302,637.061 714.5,609.5 Z"/>
  </g>
  <g transform="matrix(0.9999999999999999, 0, 0, 0.9999999999999999, -5.684341886080802e-14, 0)">
    <path style="opacity:0.987" fill="#e5bd5b" d="M 629.5,610.5 C 648.833,636.167 668.167,661.833 687.5,687.5C 687.5,692.833 687.5,698.167 687.5,703.5C 668.167,677.833 648.833,652.167 629.5,626.5C 629.5,621.167 629.5,615.833 629.5,610.5 Z"/>
  </g>
  <g transform="matrix(0.9999999999999999, 0, 0, 0.9999999999999999, -5.684341886080802e-14, 0)">
    <path style="opacity:0.987" fill="#e7c05f" d="M 629.5,626.5 C 648.833,652.167 668.167,677.833 687.5,703.5C 687.5,708.5 687.5,713.5 687.5,718.5C 668.167,692.833 648.833,667.167 629.5,641.5C 629.5,636.5 629.5,631.5 629.5,626.5 Z"/>
  </g>
  <g transform="matrix(0.9999999999999999, 0, 0, 0.9999999999999999, -5.684341886080802e-14, 0)">
    <path style="opacity:0.981" fill="#e4ba58" d="M 787.5,630.5 C 791.152,631.629 794.818,632.629 798.5,633.5C 831.09,678.097 864.09,722.43 897.5,766.5C 896.167,768.5 894.5,770.167 892.5,771.5C 880.52,754.859 868.186,738.526 855.5,722.5C 854,717.339 851,713.339 846.5,710.5C 826.833,683.833 807.167,657.167 787.5,630.5 Z"/>
  </g>
  <g transform="matrix(0.9999999999999999, 0, 0, 0.9999999999999999, -5.684341886080802e-14, 0)">
    <path style="opacity:0.991" fill="#e2b854" d="M 798.5,633.5 C 808.799,635.079 819.132,636.412 829.5,637.5C 856.91,673.57 883.91,709.903 910.5,746.5C 907.657,754.198 903.324,760.865 897.5,766.5C 864.09,722.43 831.09,678.097 798.5,633.5 Z"/>
  </g>
  <g transform="matrix(0.9999999999999999, 0, 0, 0.9999999999999999, -5.684341886080802e-14, 0)">
    <path style="opacity:0.989" fill="#e1b450" d="M 829.5,637.5 C 833.454,638.381 837.454,639.048 841.5,639.5C 865.48,672.14 889.814,704.474 914.5,736.5C 913.733,740.149 912.4,743.482 910.5,746.5C 883.91,709.903 856.91,673.57 829.5,637.5 Z"/>
  </g>
  <g transform="matrix(0.9999999999999999, 0, 0, 0.9999999999999999, -5.684341886080802e-14, 0)">
    <path style="opacity:0.985" fill="#dfb24d" d="M 841.5,639.5 C 851.128,641.087 860.461,643.42 869.5,646.5C 885.016,668.2 901.016,689.533 917.5,710.5C 917.916,719.374 916.916,728.041 914.5,736.5C 889.814,704.474 865.48,672.14 841.5,639.5 Z"/>
  </g>
  <g transform="matrix(0.9999999999999999, 0, 0, 0.9999999999999999, -5.684341886080802e-14, 0)">
    <path style="opacity:0.911" fill="#e5bc5a" d="M 1053.5,636.5 C 1055.6,639.72 1057.94,642.72 1060.5,645.5C 1057.5,650.5 1053.5,654.5 1048.5,657.5C 1046.17,654.833 1043.83,652.167 1041.5,649.5C 1045.53,645.141 1049.53,640.807 1053.5,636.5 Z"/>
  </g>
  <g transform="matrix(0.9999999999999999, 0, 0, 0.9999999999999999, -5.684341886080802e-14, 0)">
    <path style="opacity:0.986" fill="#e8c262" d="M 629.5,641.5 C 648.833,667.167 668.167,692.833 687.5,718.5C 687.5,721.833 687.5,725.167 687.5,728.5C 668.167,702.833 648.833,677.167 629.5,651.5C 629.5,648.167 629.5,644.833 629.5,641.5 Z"/>
  </g>
  <g transform="matrix(0.9999999999999999, 0, 0, 0.9999999999999999, -5.684341886080802e-14, 0)">
    <path style="opacity:0.923" fill="#e5bc5a" d="M 542.5,638.5 C 544.603,641.72 546.936,644.72 549.5,647.5C 546.5,652.5 542.5,656.5 537.5,659.5C 535.167,656.833 532.833,654.167 530.5,651.5C 533.902,648.105 536.902,644.438 539.5,640.5C 540.5,639.833 541.5,639.167 542.5,638.5 Z"/>
  </g>
  <g transform="matrix(0.9999999999999999, 0, 0, 0.9999999999999999, -5.684341886080802e-14, 0)">
    <path style="opacity:0.967" fill="#ddaf48" d="M 869.5,646.5 C 891.836,652.002 906.669,665.669 914,687.5C 916.251,695.008 917.418,702.675 917.5,710.5C 901.016,689.533 885.016,668.2 869.5,646.5 Z"/>
  </g>
  <g transform="matrix(0.9999999999999999, 0, 0, 0.9999999999999999, -5.684341886080802e-14, 0)">
    <path style="opacity:0.004" fill="#eccb6d" d="M 944.5,649.5 C 943.833,650.167 943.833,650.167 944.5,649.5 Z"/>
  </g>
  <g transform="matrix(0.9999999999999999, 0, 0, 0.9999999999999999, -5.684341886080802e-14, 0)">
    <path style="opacity:0.923" fill="#e7c05f" d="M 1041.5,649.5 C 1043.83,652.167 1046.17,654.833 1048.5,657.5C 1045.2,659.821 1041.87,662.154 1038.5,664.5C 1036.5,661.167 1034.5,657.833 1032.5,654.5C 1033.17,654.5 1033.5,654.167 1033.5,653.5C 1035.03,653.573 1036.03,652.906 1036.5,651.5C 1038.17,650.833 1039.83,650.167 1041.5,649.5 Z"/>
  </g>
  <g transform="matrix(0.9999999999999999, 0, 0, 0.9999999999999999, -5.684341886080802e-14, 0)">
    <path style="opacity:0.922" fill="#e7c05f" d="M 530.5,651.5 C 532.833,654.167 535.167,656.833 537.5,659.5C 534.743,662.579 531.41,664.912 527.5,666.5C 525.5,663.167 523.5,659.833 521.5,656.5C 522.167,656.5 522.5,656.167 522.5,655.5C 524.027,655.573 525.027,654.906 525.5,653.5C 527.167,652.833 528.833,652.167 530.5,651.5 Z"/>
  </g>
  <g transform="matrix(0.9999999999999999, 0, 0, 0.9999999999999999, -5.684341886080802e-14, 0)">
    <path style="opacity:0.982" fill="#e9c566" d="M 629.5,651.5 C 648.833,677.167 668.167,702.833 687.5,728.5C 687.361,736.827 686.028,744.827 683.5,752.5C 666.229,727.624 648.229,703.29 629.5,679.5C 629.5,670.167 629.5,660.833 629.5,651.5 Z"/>
  </g>
  <g transform="matrix(0.9999999999999999, 0, 0, 0.9999999999999999, -5.684341886080802e-14, 0)">
    <path style="opacity:0.004" fill="#eccb6d" d="M 433.5,653.5 C 434.833,654.167 434.833,654.167 433.5,653.5 Z"/>
  </g>
  <g transform="matrix(0.9999999999999999, 0, 0, 0.9999999999999999, -5.684341886080802e-14, 0)">
    <path style="opacity:0.004" fill="#eccb6d" d="M 956.5,661.5 C 957.833,662.167 957.833,662.167 956.5,661.5 Z"/>
  </g>
  <g transform="matrix(0.9999999999999999, 0, 0, 0.9999999999999999, -5.684341886080802e-14, 0)">
    <path style="opacity:0.984" fill="#ebc869" d="M 629.5,679.5 C 648.229,703.29 666.229,727.624 683.5,752.5C 683.567,753.959 683.234,755.292 682.5,756.5C 664.833,733.167 647.167,709.833 629.5,686.5C 629.5,684.167 629.5,681.833 629.5,679.5 Z"/>
  </g>
  <g transform="matrix(0.9999999999999999, 0, 0, 0.9999999999999999, -5.684341886080802e-14, 0)">
    <path style="opacity:0.976" fill="#ecca6d" d="M 629.5,686.5 C 647.167,709.833 664.833,733.167 682.5,756.5C 676.124,775.042 663.457,786.876 644.5,792C 633.182,794.874 621.682,796.041 610,795.5C 597.064,795.695 584.231,794.695 571.5,792.5C 571.5,776.5 571.5,760.5 571.5,744.5C 584.448,746.248 597.448,746.748 610.5,746C 618.816,743.687 624.649,738.52 628,730.5C 629.394,715.878 629.894,701.211 629.5,686.5 Z"/>
  </g>
  <g transform="matrix(0.9999999999999999, 0, 0, 0.9999999999999999, -5.684341886080802e-14, 0)">
    <path style="opacity:0.993" fill="#ebc769" d="M 770.5,733.5 C 785.809,754.482 801.142,775.482 816.5,796.5C 813.5,796.5 810.5,796.5 807.5,796.5C 788.167,770.5 768.833,744.5 749.5,718.5C 754.199,717.659 758.866,717.659 763.5,718.5C 765.058,723.945 767.391,728.945 770.5,733.5 Z"/>
  </g>
  <g transform="matrix(0.9999999999999999, 0, 0, 0.9999999999999999, -5.684341886080802e-14, 0)">
    <path style="opacity:0.974" fill="#ecca6c" d="M 749.5,718.5 C 768.833,744.5 788.167,770.5 807.5,796.5C 781.398,797.476 757.398,790.976 735.5,777C 718.618,763.743 707.951,746.576 703.5,725.5C 718.927,723.535 734.26,721.201 749.5,718.5 Z"/>
  </g>
  <g transform="matrix(0.9999999999999999, 0, 0, 0.9999999999999999, -5.684341886080802e-14, 0)">
    <path style="opacity:0.976" fill="#e5bd5b" d="M 855.5,722.5 C 868.186,738.526 880.52,754.859 892.5,771.5C 888.223,775.312 883.557,778.645 878.5,781.5C 867.814,768.141 857.48,754.474 847.5,740.5C 853.813,736.263 856.479,730.263 855.5,722.5 Z"/>
  </g>
  <g transform="matrix(0.9999999999999999, 0, 0, 0.9999999999999999, -5.684341886080802e-14, 0)">
    <path style="opacity:0.974" fill="#eac566" d="M 770.5,733.5 C 784.43,745.741 800.763,750.741 819.5,748.5C 830.5,763.167 841.5,777.833 852.5,792.5C 840.677,795.311 828.677,796.644 816.5,796.5C 801.142,775.482 785.809,754.482 770.5,733.5 Z"/>
  </g>
  <g transform="matrix(0.9999999999999999, 0, 0, 0.9999999999999999, -5.684341886080802e-14, 0)">
    <path style="opacity:0.974" fill="#e7c05f" d="M 847.5,740.5 C 857.48,754.474 867.814,768.141 878.5,781.5C 873.93,784.616 868.93,786.95 863.5,788.5C 852.814,775.141 842.48,761.474 832.5,747.5C 837.587,745.458 842.587,743.125 847.5,740.5 Z"/>
  </g>
  <g transform="matrix(0.9999999999999999, 0, 0, 0.9999999999999999, -5.684341886080802e-14, 0)">
    <path style="opacity:0.976" fill="#e8c262" d="M 832.5,747.5 C 842.48,761.474 852.814,775.141 863.5,788.5C 860.045,790.209 856.379,791.542 852.5,792.5C 841.5,777.833 830.5,763.167 819.5,748.5C 823.857,748.414 828.19,748.08 832.5,747.5 Z"/>
  </g>
  <g transform="matrix(0.9999999999999999, 0, 0, 0.9999999999999999, -5.684341886080802e-14, 0)">
    <path style="opacity:0.931" fill="#ecc96c" d="M 629.5,820.5 C 639.5,833.833 649.5,847.167 659.5,860.5C 632.122,860.825 604.789,860.491 577.5,859.5C 576.45,841.112 584.45,828.278 601.5,821C 610.827,820.5 620.161,820.334 629.5,820.5 Z"/>
  </g>
  <g transform="matrix(0.9999999999999999, 0, 0, 0.9999999999999999, -5.684341886080802e-14, 0)">
    <path style="opacity:0.955" fill="#ebc869" d="M 629.5,820.5 C 637.167,820.5 644.833,820.5 652.5,820.5C 662.5,833.833 672.5,847.167 682.5,860.5C 674.833,860.5 667.167,860.5 659.5,860.5C 649.5,847.167 639.5,833.833 629.5,820.5 Z"/>
  </g>
  <g transform="matrix(0.9999999999999999, 0, 0, 0.9999999999999999, -5.684341886080802e-14, 0)">
    <path style="opacity:0.956" fill="#e9c566" d="M 652.5,820.5 C 684.833,820.5 717.167,820.5 749.5,820.5C 759.167,833.833 768.833,847.167 778.5,860.5C 746.5,860.5 714.5,860.5 682.5,860.5C 672.5,847.167 662.5,833.833 652.5,820.5 Z"/>
  </g>
  <g transform="matrix(0.9999999999999999, 0, 0, 0.9999999999999999, -5.684341886080802e-14, 0)">
    <path style="opacity:0.955" fill="#e8c262" d="M 749.5,820.5 C 760.167,820.5 770.833,820.5 781.5,820.5C 791.5,833.833 801.5,847.167 811.5,860.5C 800.5,860.5 789.5,860.5 778.5,860.5C 768.833,847.167 759.167,833.833 749.5,820.5 Z"/>
  </g>
  <g transform="matrix(0.9999999999999999, 0, 0, 0.9999999999999999, -5.684341886080802e-14, 0)">
    <path style="opacity:0.956" fill="#e7c160" d="M 781.5,820.5 C 785.167,820.5 788.833,820.5 792.5,820.5C 802.167,833.833 811.833,847.167 821.5,860.5C 818.167,860.5 814.833,860.5 811.5,860.5C 801.5,847.167 791.5,833.833 781.5,820.5 Z"/>
  </g>
  <g transform="matrix(0.9999999999999999, 0, 0, 0.9999999999999999, -5.684341886080802e-14, 0)">
    <path style="opacity:0.956" fill="#e6bf5f" d="M 792.5,820.5 C 806.167,820.5 819.833,820.5 833.5,820.5C 843.191,833.852 852.858,847.185 862.5,860.5C 848.833,860.5 835.167,860.5 821.5,860.5C 811.833,847.167 802.167,833.833 792.5,820.5 Z"/>
  </g>
  <g transform="matrix(0.9999999999999999, 0, 0, 0.9999999999999999, -5.684341886080802e-14, 0)">
    <path style="opacity:0.954" fill="#e5bd5b" d="M 833.5,820.5 C 852.341,820.17 871.007,820.503 889.5,821.5C 897.147,832.473 905.147,843.14 913.5,853.5C 914.605,855.713 914.605,857.88 913.5,860C 896.503,860.5 879.503,860.667 862.5,860.5C 852.858,847.185 843.191,833.852 833.5,820.5 Z"/>
  </g>
  <g transform="matrix(0.9999999999999999, 0, 0, 0.9999999999999999, -5.684341886080802e-14, 0)">
    <path style="opacity:0.8" fill="#e4bb58" d="M 889.5,821.5 C 904.253,826.97 912.253,837.637 913.5,853.5C 905.147,843.14 897.147,832.473 889.5,821.5 Z"/>
  </g>
  <g transform="matrix(0.9999999999999999, 0, 0, 0.9999999999999999, -5.684341886080802e-14, 0)">
    <path style="opacity:0.004" fill="#eccb6d" d="M 574.5,856.5 C 575.833,857.167 575.833,857.167 574.5,856.5 Z"/>
  </g>
  <g transform="matrix(0.9999999999999999, 0, 0, 0.9999999999999999, -5.684341886080802e-14, 0)">
    <path style="opacity:0.004" fill="#e4bc58" d="M 915.5,857.5 C 916.525,857.897 916.692,858.563 916,859.5C 915.536,858.906 915.369,858.239 915.5,857.5 Z"/>
  </g>
  <g transform="matrix(0.9999999999999999, 0, 0, 0.9999999999999999, -5.684341886080802e-14, 0)">
    <path style="opacity:0.004" fill="#eccb6d" d="M 574.5,859.5 C 575.833,860.167 575.833,860.167 574.5,859.5 Z"/>
  </g>
  <g transform="matrix(0.9999999999999999, 0, 0, 0.9999999999999999, -5.684341886080802e-14, 0)">
    <path style="opacity:0.004" fill="#eccb6d" d="M 620.5,906.5 C 620.897,905.475 621.563,905.308 622.5,906C 621.906,906.464 621.239,906.631 620.5,906.5 Z"/>
  </g>
  <g transform="matrix(0.9999999999999999, 0, 0, 0.9999999999999999, -5.684341886080802e-14, 0)">
    <path style="opacity:0.004" fill="#e7c362" d="M 820.5,905.5 C 821.833,906.167 821.833,906.167 820.5,905.5 Z"/>
  </g>
  <g transform="matrix(0.9999999999999999, 0, 0, 0.9999999999999999, -5.684341886080802e-14, 0)">
    <path style="opacity:0.936" fill="#ecca6d" d="M 695.5,907.5 C 705.475,921.148 715.475,934.815 725.5,948.5C 665.83,948.833 606.163,948.5 546.5,947.5C 546.634,937.319 549.467,927.986 555,919.5C 558.025,917.639 560.525,915.306 562.5,912.5C 565.262,911.62 567.929,910.454 570.5,909C 572.833,908.667 575.167,908.333 577.5,908C 616.832,907.5 656.165,907.333 695.5,907.5 Z"/>
  </g>
  <g transform="matrix(0.9999999999999999, 0, 0, 0.9999999999999999, -5.684341886080802e-14, 0)">
    <path style="opacity:0.936" fill="#ebc869" d="M 695.5,907.5 C 703.167,907.5 710.833,907.5 718.5,907.5C 728.5,921.167 738.5,934.833 748.5,948.5C 740.833,948.5 733.167,948.5 725.5,948.5C 715.475,934.815 705.475,921.148 695.5,907.5 Z"/>
  </g>
  <g transform="matrix(0.9999999999999999, 0, 0, 0.9999999999999999, -5.684341886080802e-14, 0)">
    <path style="opacity:0.938" fill="#e9c566" d="M 718.5,907.5 C 750.5,907.5 782.5,907.5 814.5,907.5C 824.754,921.019 834.754,934.685 844.5,948.5C 812.5,948.5 780.5,948.5 748.5,948.5C 738.5,934.833 728.5,921.167 718.5,907.5 Z"/>
  </g>
  <g transform="matrix(0.9999999999999999, 0, 0, 0.9999999999999999, -5.684341886080802e-14, 0)">
    <path style="opacity:0.936" fill="#e8c262" d="M 814.5,907.5 C 825.5,907.5 836.5,907.5 847.5,907.5C 857.5,921.167 867.5,934.833 877.5,948.5C 866.5,948.5 855.5,948.5 844.5,948.5C 834.754,934.685 824.754,921.019 814.5,907.5 Z"/>
  </g>
  <g transform="matrix(0.9999999999999999, 0, 0, 0.9999999999999999, -5.684341886080802e-14, 0)">
    <path style="opacity:0.938" fill="#e7c160" d="M 847.5,907.5 C 850.833,907.5 854.167,907.5 857.5,907.5C 867.754,921.019 877.754,934.685 887.5,948.5C 884.167,948.5 880.833,948.5 877.5,948.5C 867.5,934.833 857.5,921.167 847.5,907.5 Z"/>
  </g>
  <g transform="matrix(0.9999999999999999, 0, 0, 0.9999999999999999, -5.684341886080802e-14, 0)">
    <path style="opacity:0.936" fill="#e6bf5f" d="M 857.5,907.5 C 871.167,907.5 884.833,907.5 898.5,907.5C 908.59,921.346 918.924,935.013 929.5,948.5C 915.5,948.5 901.5,948.5 887.5,948.5C 877.754,934.685 867.754,921.019 857.5,907.5 Z"/>
  </g>
  <g transform="matrix(0.9999999999999999, 0, 0, 0.9999999999999999, -5.684341886080802e-14, 0)">
    <path style="opacity:0.901" fill="#e5be5c" d="M 898.5,907.5 C 915.05,904.227 928.05,909.227 937.5,922.5C 942.161,930.458 944.161,939.125 943.5,948.5C 938.833,948.5 934.167,948.5 929.5,948.5C 918.924,935.013 908.59,921.346 898.5,907.5 Z"/>
  </g>
  <g transform="matrix(0.9999999999999999, 0, 0, 0.9999999999999999, -5.684341886080802e-14, 0)">
    <path style="opacity:0.005" fill="#eccb6d" d="M 562.5,912.5 C 561.227,911.923 561.227,911.257 562.5,910.5C 563.463,910.97 563.463,911.637 562.5,912.5 Z"/>
  </g>
  <g transform="matrix(0.9999999999999999, 0, 0, 0.9999999999999999, -5.684341886080802e-14, 0)">
    <path style="opacity:0.004" fill="#e4bd5a" d="M 927.5,911.5 C 927.897,910.475 928.563,910.308 929.5,911C 928.906,911.464 928.239,911.631 927.5,911.5 Z"/>
  </g>
  <g transform="matrix(0.9999999999999999, 0, 0, 0.9999999999999999, -5.684341886080802e-14, 0)">
    <path style="opacity:0.004" fill="#e4bd5a" d="M 937.5,922.5 C 937.369,921.761 937.536,921.094 938,920.5C 938.692,921.437 938.525,922.103 937.5,922.5 Z"/>
  </g>
  <g transform="matrix(0.9999999999999999, 0, 0, 0.9999999999999999, -5.684341886080802e-14, 0)">
    <path style="opacity:0.004" fill="#e4bd5a" d="M 943.5,931.5 C 944.525,931.897 944.692,932.563 944,933.5C 943.536,932.906 943.369,932.239 943.5,931.5 Z"/>
  </g>
  <g transform="matrix(0.9999999999999999, 0, 0, 0.9999999999999999, -5.684341886080802e-14, 0)">
    <path style="opacity:0.004" fill="#e5bd5b" d="M 944.5,939.5 C 945.833,940.167 945.833,940.167 944.5,939.5 Z"/>
  </g>
  <g transform="matrix(0.9999999999999999, 0, 0, 0.9999999999999999, -5.684341886080802e-14, 0)">
    <path style="opacity:0.005" fill="#e5be5b" d="M 945.5,943.5 C 946.773,944.077 946.773,944.743 945.5,945.5C 944.537,945.03 944.537,944.363 945.5,943.5 Z"/>
  </g>
  <g transform="matrix(0.9999999999999999, 0, 0, 0.9999999999999999, -5.684341886080802e-14, 0)">
    <path style="opacity:0.004" fill="#eccb6d" d="M 548.5,949.5 C 549.833,950.167 549.833,950.167 548.5,949.5 Z"/>
  </g>
  <g transform="matrix(0.9999999999999999, 0, 0, 0.9999999999999999, -5.684341886080802e-14, 0)">
    <path style="opacity:0.004" fill="#ebc96a" d="M 714.5,949.5 C 715.833,950.167 715.833,950.167 714.5,949.5 Z"/>
  </g>
  <g transform="matrix(0.9999999999999999, 0, 0, 0.9999999999999999, -5.684341886080802e-14, 0)">
    <path style="opacity:0.004" fill="#eac768" d="M 751.5,949.5 C 752.833,950.167 752.833,950.167 751.5,949.5 Z"/>
  </g>
  <g transform="matrix(0.9999999999999999, 0, 0, 0.9999999999999999, -5.684341886080802e-14, 0)">
    <path style="opacity:0.004" fill="#e9c564" d="M 815.5,950.5 C 815.897,949.475 816.563,949.308 817.5,950C 816.906,950.464 816.239,950.631 815.5,950.5 Z"/>
  </g>
  <g transform="matrix(0.9999999999999999, 0, 0, 0.9999999999999999, -5.684341886080802e-14, 0)">
    <path style="opacity:0.004" fill="#e8c464" d="M 825.5,949.5 C 826.833,950.167 826.833,950.167 825.5,949.5 Z"/>
  </g>
  <g transform="matrix(0.9999999999999999, 0, 0, 0.9999999999999999, -5.684341886080802e-14, 0)">
    <path style="opacity:0.004" fill="#e8c362" d="M 853.5,950.5 C 853.897,949.475 854.563,949.308 855.5,950C 854.906,950.464 854.239,950.631 853.5,950.5 Z"/>
  </g>
  <g transform="matrix(0.9999999999999999, 0, 0, 0.9999999999999999, -5.684341886080802e-14, 0)">
    <path style="opacity:0.004" fill="#e7c160" d="M 879.5,950.5 C 880.251,949.427 881.251,949.26 882.5,950C 881.552,950.483 880.552,950.649 879.5,950.5 Z"/>
  </g>
  <g transform="matrix(0.9999999999999999, 0, 0, 0.9999999999999999, -5.684341886080802e-14, 0)">
    <path style="opacity:0.008" fill="#e5be5c" d="M 938.5,950.5 C 939.251,949.427 940.251,949.26 941.5,950C 940.552,950.483 939.552,950.649 938.5,950.5 Z"/>
  </g>
  <text style="fill: url(&quot;#color-0&quot;); font-family: &quot;ADLaM Display&quot;; font-size: 106.152px; font-weight: 700; letter-spacing: -2px; line-height: 169.842px; text-transform: uppercase; word-spacing: -21.7px; white-space: pre; transform-origin: 1743.66px 1014.97px;" transform="matrix(1, 0, 0, 1.06451595, -277.53872681, -439.87377963)" x="1398.13" y="1049.89">JUMAIA     SALEH</text>
  <text style="fill: url(&quot;#color-0&quot;); font-family: &quot;ADLaM Display&quot;; font-size: 76.0909px; font-weight: 700; letter-spacing: -2px; line-height: 169.842px; text-anchor: middle; text-transform: capitalize; word-spacing: 3.5px; white-space: pre; transform-origin: 1743.66px 1014.97px;" transform="matrix(1, 0, 0, 1.06451595, 78.93406677, -323.47689853)"><tspan x="1398.13" y="1049.89">For Law and Legal</tspan><tspan x="1398.13" dy="1.2em"></tspan><tspan> Consultations</tspan></text>
</svg>