<svg width="1526" height="899" viewBox="0 0 1526 899" fill="none" xmlns="http://www.w3.org/2000/svg">
<path d="M46.2872 0.00110476L44.7795 1.50879L91.0632 47.7924L92.5709 46.2848L46.2872 0.00110476Z" fill="#ED9620" fill-opacity="0.16"/>
<path d="M135.84 0.00110476L134.332 1.50879L180.616 47.7924L182.123 46.2848L135.84 0.00110476Z" fill="#ED9620" fill-opacity="0.16"/>
<path d="M359.721 47.7913L361.229 46.2838L404.498 3.01494L447.767 46.2838L449.274 47.7913L492.543 91.0602L494.05 92.5677L538.827 137.344L540.334 135.837L495.558 91.0602L538.827 47.7913L582.096 91.0602L583.603 92.5677L585.111 91.0602L628.38 47.7913L673.156 92.5677L674.663 91.0602L629.887 46.2838L673.156 3.01494L717.932 47.7913L719.44 46.2838L674.663 1.50747L673.156 0L671.648 1.50747L628.38 44.7764L583.603 0L582.096 1.50747L626.872 46.2838L583.603 89.5527L540.334 46.2838L538.827 44.7764L494.05 0L492.543 1.50747L537.319 46.2838L494.05 89.5527L450.782 46.2838L449.274 44.7764L406.005 1.50747L404.498 0L402.99 1.50747L359.721 44.7764L314.945 0L313.438 1.50747L358.214 46.2838L359.721 47.7913Z" fill="#ED9620" fill-opacity="0.16"/>
<path d="M449.271 0.00305789L447.764 1.51074L494.047 47.7944L495.555 46.2867L449.271 0.00305789Z" fill="#ED9620" fill-opacity="0.16"/>
<path d="M538.824 0.00403445L537.316 1.51172L583.6 47.7954L585.108 46.2877L538.824 0.00403445Z" fill="#ED9620" fill-opacity="0.16"/>
<path d="M1479.12 0.0108704L1477.61 1.51855L1523.9 47.8022L1525.4 46.2945L1479.12 0.0108704Z" fill="#ED9620" fill-opacity="0.16"/>
<path d="M270.169 47.7913L313.438 91.0602L314.945 92.5677L358.214 135.837L314.945 179.105L271.676 135.837L270.169 134.329L225.392 89.5527L223.885 91.0602L268.661 135.837L225.392 179.105L223.885 180.613L225.392 182.12L268.661 225.389L270.169 226.897L313.438 270.166L314.945 271.673L359.722 316.45L361.229 314.942L316.453 270.166L359.722 226.897L361.229 225.389L404.498 182.12L447.767 225.389L449.274 226.897L450.782 225.389L495.558 180.613L494.051 179.105L449.274 223.882L406.005 180.613L404.498 179.105L361.229 135.837L406.005 91.0602L404.498 89.5527L359.722 134.329L316.453 91.0602L314.945 89.5527L271.676 46.2838L270.169 44.7764L225.392 0L223.885 1.50747L268.661 46.2838L270.169 47.7913ZM402.991 180.613L359.722 223.882L358.214 225.389L314.945 268.658L271.676 225.389L270.169 223.882L226.9 180.613L270.169 137.344L313.438 180.613L314.945 182.12L316.453 180.613L359.722 137.344L402.991 180.613Z" fill="#ED9620" fill-opacity="0.16"/>
<path d="M805.978 46.2838L761.201 91.0602L762.709 92.5677L807.485 47.7913L808.992 46.2838L853.769 1.50747L852.261 0L807.485 44.7764L805.978 46.2838Z" fill="#ED9620" fill-opacity="0.16"/>
<path d="M985.084 46.2838L941.815 89.5527L898.546 46.2838L897.039 44.7764L895.531 46.2838L852.262 89.5527L850.755 91.0602L807.486 134.329L805.979 135.837L762.71 179.105L717.933 134.329L716.426 135.837L761.202 180.613L716.426 225.389L717.933 226.897L762.71 182.12L805.979 225.389L762.71 268.658L761.202 270.166L762.71 271.673L805.979 314.942L807.486 316.45L850.755 359.718L852.262 361.226L853.77 359.718L897.039 316.45L941.815 361.226L943.323 359.718L898.546 314.942L897.039 313.435L895.531 314.942L852.262 358.211L808.993 314.942L807.486 313.435L764.217 270.166L807.486 226.897L852.262 271.673L853.77 270.166L808.993 225.389L807.486 223.882L764.217 180.613L807.486 137.344L808.993 135.837L852.262 92.5677L895.531 135.837L897.039 137.344L940.308 180.613L941.815 182.12L985.084 225.389L986.591 226.897L1029.86 270.166L986.591 313.435L985.084 314.942L986.591 316.45L1029.86 359.718L985.084 404.495L986.591 406.002L1031.37 361.226L1074.64 404.495L1076.14 406.002L1077.65 404.495L1120.92 361.226L1122.43 359.718L1165.7 316.45L1208.97 359.718L1164.19 404.495L1165.7 406.002L1210.47 361.226L1211.98 359.718L1255.25 316.45L1298.52 359.718L1255.25 402.987L1253.74 404.495L1208.97 449.271L1210.47 450.779L1255.25 406.002L1298.52 449.271L1300.03 450.779L1301.53 449.271L1344.8 406.002L1346.31 404.495L1344.8 402.987L1301.53 359.718L1300.03 358.211L1256.76 314.942L1255.25 313.435L1253.74 314.942L1210.47 358.211L1167.2 314.942L1165.7 313.435L1164.19 314.942L1120.92 358.211L1077.65 314.942L1120.92 271.673L1122.43 270.166L1120.92 268.658L1077.65 225.389L1076.14 223.882L1032.88 180.613L1031.37 179.105L988.099 135.837L1031.37 92.5677L1076.14 137.344L1077.65 135.837L1032.88 91.0602L1031.37 89.5527L1029.86 91.0602L986.591 134.329L985.084 135.837L986.591 137.344L1029.86 180.613L986.591 223.882L943.323 180.613L941.815 179.105L898.546 135.837L897.039 134.329L853.77 91.0602L897.039 47.7913L940.308 91.0602L941.815 92.5677L943.323 91.0602L986.591 47.7913L988.099 46.2838L1032.88 1.50747L1031.37 0L986.591 44.7764L985.084 46.2838ZM1343.3 404.495L1300.03 447.764L1256.76 404.495L1300.03 361.226L1343.3 404.495ZM1031.37 182.12L1074.64 225.389L1076.14 226.897L1119.41 270.166L1076.14 313.435L1074.64 314.942L1076.14 316.45L1119.41 359.718L1076.14 402.987L1032.88 359.718L1031.37 358.211L988.099 314.942L1031.37 271.673L1032.88 270.166L1031.37 268.658L988.099 225.389L1031.37 182.12Z" fill="#ED9620" fill-opacity="0.16"/>
<path d="M1479.13 44.7764L1435.86 1.50747L1434.36 0L1432.85 1.50747L1389.58 44.7764L1346.31 1.50747L1344.8 0L1343.3 1.50747L1300.03 44.7764L1256.76 1.50747L1255.25 0L1253.74 1.50747L1210.47 44.7764L1167.2 1.50747L1165.7 0L1164.19 1.50747L1120.92 44.7764L1077.65 1.50747L1076.14 0L1074.64 1.50747L1031.37 44.7764L1029.86 46.2838L986.592 89.5527L985.084 91.0602L941.815 134.329L897.039 89.5527L895.531 91.0602L940.308 135.837L941.815 137.344L986.592 182.12L988.099 180.613L943.323 135.837L986.592 92.5677L988.099 91.0602L1031.37 47.7913L1074.64 91.0602L1076.14 92.5677L1119.41 135.837L1076.14 179.105L1031.37 134.329L1029.86 135.837L1074.64 180.613L1076.14 182.12L1119.41 225.389L1120.92 226.897L1164.19 270.166L1119.41 314.942L1120.92 316.45L1165.7 271.673L1208.97 314.942L1210.47 316.45L1211.98 314.942L1255.25 271.673L1298.52 314.942L1300.03 316.45L1343.3 359.718L1344.8 361.226L1388.07 404.495L1344.8 447.764L1343.3 449.271L1300.03 492.54L1256.76 449.271L1255.25 447.764L1253.74 449.271L1210.47 492.54L1167.2 449.271L1210.47 406.002L1211.98 404.495L1256.76 359.718L1255.25 358.211L1210.47 402.987L1208.97 404.495L1165.7 447.764L1122.43 404.495L1167.2 359.718L1165.7 358.211L1120.92 402.987L1119.41 404.495L1076.14 447.764L1032.88 404.495L1031.37 402.987L1029.86 404.495L986.592 447.764L943.323 404.495L986.592 361.226L988.099 359.718L986.592 358.211L943.323 314.942L986.592 271.673L988.099 270.166L986.592 268.658L943.323 225.389L941.815 223.882L898.546 180.613L897.039 179.105L853.77 135.837L852.263 134.329L850.755 135.837L807.486 179.105L805.979 180.613L807.486 182.12L850.755 225.389L852.263 226.897L895.531 270.166L852.263 313.435L807.486 268.658L805.979 270.166L850.755 314.942L852.263 316.45L853.77 314.942L897.039 271.673L940.308 314.942L941.815 316.45L985.084 359.718L941.815 402.987L898.546 359.718L897.039 358.211L895.531 359.718L852.263 402.987L808.994 359.718L807.486 358.211L764.217 314.942L762.71 313.435L719.441 270.166L764.217 225.389L762.71 223.882L717.933 268.658L674.664 225.389L717.933 182.12L719.441 180.613L717.933 179.105L674.664 135.837L717.933 92.5677L761.202 135.837L762.71 137.344L764.217 135.837L807.486 92.5677L808.994 91.0602L852.263 47.7913L853.77 46.2838L897.039 3.01494L940.308 46.2838L941.815 47.7913L943.323 46.2838L988.099 1.50747L986.592 0L941.815 44.7764L898.546 1.50747L897.039 0L895.531 1.50747L852.263 44.7764L850.755 46.2838L807.486 89.5527L805.979 91.0602L762.71 134.329L719.441 91.0602L762.71 47.7913L764.217 46.2838L808.994 1.50747L807.486 0L762.71 44.7764L717.933 0L716.426 1.50747L761.202 46.2838L717.933 89.5527L673.157 44.7764L671.65 46.2838L716.426 91.0602L673.157 134.329L629.888 91.0602L628.381 89.5527L626.873 91.0602L583.604 134.329L538.828 89.5527L537.32 91.0602L582.097 135.837L538.828 179.105L495.559 135.837L494.052 134.329L450.783 91.0602L449.275 89.5527L406.006 46.2838L404.499 44.7764L402.991 46.2838L359.722 89.5527L316.453 46.2838L314.946 44.7764L270.17 0L268.662 1.50747L313.439 46.2838L314.946 47.7913L358.215 91.0602L359.722 92.5677L361.23 91.0602L404.499 47.7913L447.768 91.0602L404.499 134.329L402.991 135.837L404.499 137.344L447.768 180.613L449.275 182.12L450.783 180.613L494.052 137.344L537.32 180.613L494.052 223.882L492.544 225.389L449.275 268.658L406.006 225.389L404.499 223.882L402.991 225.389L359.722 268.658L358.215 270.166L359.722 271.673L402.991 314.942L359.722 358.211L316.453 314.942L314.946 313.435L271.677 270.166L270.17 268.658L226.901 225.389L225.393 223.882L182.124 180.613L225.393 137.344L226.901 135.837L225.393 134.329L182.124 91.0602L225.393 47.7913L268.662 91.0602L270.17 92.5677L314.946 137.344L316.453 135.837L271.677 91.0602L270.17 89.5527L226.901 46.2838L225.393 44.7764L180.617 0L179.109 1.50747L223.886 46.2838L180.617 89.5527L137.348 46.2838L135.84 44.7764L91.0641 0L89.5567 1.50747L134.333 46.2838L91.0641 89.5527L47.7952 46.2838L46.2878 44.7764L1.51138 0L0.00390625 1.50747L44.7803 46.2838L0.00390625 91.0602L1.51138 92.5677L46.2878 47.7913L89.5567 91.0602L46.2878 134.329L44.7803 135.837L1.51138 179.105L0.00390625 180.613L1.51138 182.12L44.7803 225.389L1.51138 268.658L0.00390625 270.166L1.51138 271.673L44.7803 314.942L1.51138 358.211L0.00390625 359.718L1.51138 361.226L44.7803 404.495L1.51138 447.764L0.00390625 449.271L1.51138 450.779L44.7803 494.048L0.00390625 538.824L1.51138 540.331L46.2878 495.555L89.5567 538.824L46.2878 582.093L44.7803 583.6L1.51138 626.869L0.00390625 628.377L1.51138 629.884L44.7803 673.153L46.2878 674.661L89.5567 717.929L91.0641 719.437L134.333 762.706L91.0641 805.975L89.5567 807.482L46.2878 850.751L3.01885 807.482L46.2878 764.213L47.7952 762.706L46.2878 761.198L1.51138 716.422L0.00390625 717.929L44.7803 762.706L1.51138 805.975L0.00390625 807.482L1.51138 808.99L44.7803 852.258L46.2878 853.766L47.7952 852.258L91.0641 808.99L92.5716 807.482L135.84 764.213L137.348 762.706L135.84 761.198L92.5716 717.929L91.0641 716.422L47.7952 673.153L46.2878 671.646L3.01885 628.377L46.2878 585.108L91.0641 629.884L92.5716 628.377L47.7952 583.6L91.0641 540.331L92.5716 538.824L91.0641 537.316L47.7952 494.048L91.0641 450.779L135.84 495.555L137.348 494.048L92.5716 449.271L91.0641 447.764L47.7952 404.495L91.0641 361.226L135.84 406.002L137.348 404.495L92.5716 359.718L135.84 316.45L179.109 359.718L180.617 361.226L223.886 404.495L179.109 449.271L180.617 450.779L225.393 406.002L268.662 449.271L270.17 450.779L313.439 494.048L314.946 495.555L358.215 538.824L359.722 540.331L402.991 583.6L359.722 626.869L316.453 583.6L314.946 582.093L271.677 538.824L270.17 537.316L225.393 492.54L223.886 494.048L268.662 538.824L225.393 582.093L182.124 538.824L180.617 537.316L179.109 538.824L135.84 582.093L134.333 583.6L135.84 585.108L179.109 628.377L180.617 629.884L223.886 673.153L225.393 674.661L268.662 717.929L225.393 761.198L182.124 717.929L180.617 716.422L135.84 671.646L134.333 673.153L179.109 717.929L180.617 719.437L223.886 762.706L225.393 764.213L270.17 808.99L271.677 807.482L226.901 762.706L270.17 719.437L313.439 762.706L314.946 764.213L316.453 762.706L359.722 719.437L402.991 762.706L404.499 764.213L447.768 807.482L404.499 850.751L402.991 852.258L404.499 853.766L449.275 898.542L450.783 897.035L406.006 852.258L449.275 808.99L450.783 807.482L494.052 764.213L538.828 808.99L540.335 807.482L495.559 762.706L494.052 761.198L492.544 762.706L449.275 805.975L406.006 762.706L404.499 761.198L361.23 717.929L359.722 716.422L316.453 673.153L359.722 629.884L361.23 628.377L404.499 585.108L449.275 629.884L450.783 628.377L406.006 583.6L404.499 582.093L361.23 538.824L404.499 495.555L406.006 494.048L404.499 492.54L361.23 449.271L359.722 447.764L316.453 404.495L314.946 402.987L271.677 359.718L270.17 358.211L268.662 359.718L225.393 402.987L182.124 359.718L180.617 358.211L137.348 314.942L135.84 313.435L91.0641 268.658L89.5567 270.166L134.333 314.942L91.0641 358.211L47.7952 314.942L46.2878 313.435L3.01885 270.166L46.2878 226.897L47.7952 225.389L46.2878 223.882L3.01885 180.613L46.2878 137.344L47.7952 135.837L91.0641 92.5677L134.333 135.837L135.84 137.344L179.109 180.613L180.617 182.12L223.886 225.389L179.109 270.166L180.617 271.673L225.393 226.897L268.662 270.166L270.17 271.673L313.439 314.942L314.946 316.45L358.215 359.718L359.722 361.226L361.23 359.718L404.499 316.45L406.006 314.942L404.499 313.435L361.23 270.166L404.499 226.897L447.768 270.166L449.275 271.673L492.544 314.942L449.275 358.211L447.768 359.718L402.991 404.495L404.499 406.002L449.275 361.226L450.783 359.718L494.052 316.45L495.559 314.942L538.828 271.673L540.335 270.166L538.828 268.658L495.559 225.389L538.828 182.12L582.097 225.389L583.604 226.897L626.873 270.166L628.381 271.673L671.65 314.942L673.157 316.45L716.426 359.718L717.933 361.226L761.202 404.495L717.933 447.764L673.157 402.987L671.65 404.495L716.426 449.271L717.933 450.779L719.441 449.271L762.71 406.002L805.979 449.271L807.486 450.779L808.994 449.271L852.263 406.002L895.531 449.271L852.263 492.54L850.755 494.048L852.263 495.555L895.531 538.824L897.039 540.331L940.308 583.6L897.039 626.869L895.531 628.377L852.263 671.646L850.755 673.153L852.263 674.661L895.531 717.929L852.263 761.198L850.755 762.706L852.263 764.213L895.531 807.482L897.039 808.99L940.308 852.258L897.039 895.527L852.263 850.751L850.755 852.258L895.531 897.035L897.039 898.542L898.546 897.035L941.815 853.766L986.592 898.542L988.099 897.035L943.323 852.258L941.815 850.751L898.546 807.482L941.815 764.213L985.084 807.482L986.592 808.99L988.099 807.482L1031.37 764.213L1032.88 762.706L1076.14 719.437L1120.92 764.213L1122.43 762.706L1077.65 717.929L1076.14 716.422L1074.64 717.929L1031.37 761.198L1029.86 762.706L986.592 805.975L943.323 762.706L986.592 719.437L988.099 717.929L1031.37 674.661L1032.88 673.153L1076.14 629.884L1119.41 673.153L1120.92 674.661L1164.19 717.929L1165.7 719.437L1208.97 762.706L1165.7 805.975L1164.19 807.482L1165.7 808.99L1208.97 852.258L1164.19 897.035L1165.7 898.542L1210.47 853.766L1253.74 897.035L1255.25 898.542L1256.76 897.035L1300.03 853.766L1344.8 898.542L1346.31 897.035L1301.53 852.258L1300.03 850.751L1256.76 807.482L1255.25 805.975L1253.74 807.482L1210.47 850.751L1167.2 807.482L1210.47 764.213L1211.98 762.706L1255.25 719.437L1256.76 717.929L1300.03 674.661L1344.8 719.437L1346.31 717.929L1301.53 673.153L1344.8 629.884L1389.58 674.661L1391.09 673.153L1346.31 628.377L1344.8 626.869L1301.53 583.6L1344.8 540.331L1389.58 585.108L1391.09 583.6L1346.31 538.824L1344.8 537.316L1343.3 538.824L1300.03 582.093L1298.52 583.6L1255.25 626.869L1253.74 628.377L1255.25 629.884L1298.52 673.153L1255.25 716.422L1253.74 717.929L1210.47 761.198L1167.2 717.929L1165.7 716.422L1122.43 673.153L1120.92 671.646L1077.65 628.377L1076.14 626.869L1074.64 628.377L1031.37 671.646L988.099 628.377L986.592 626.869L943.323 583.6L941.815 582.093L898.546 538.824L943.323 494.048L941.815 492.54L897.039 537.316L853.77 494.048L897.039 450.779L898.546 449.271L941.815 406.002L985.084 449.271L986.592 450.779L1029.86 494.048L1031.37 495.555L1074.64 538.824L1031.37 582.093L986.592 537.316L985.084 538.824L1029.86 583.6L1031.37 585.108L1032.88 583.6L1076.14 540.331L1119.41 583.6L1120.92 585.108L1164.19 628.377L1165.7 629.884L1210.47 674.661L1211.98 673.153L1167.2 628.377L1165.7 626.869L1122.43 583.6L1165.7 540.331L1167.2 538.824L1165.7 537.316L1122.43 494.048L1165.7 450.779L1208.97 494.048L1210.47 495.555L1211.98 494.048L1255.25 450.779L1298.52 494.048L1255.25 537.316L1253.74 538.824L1208.97 583.6L1210.47 585.108L1255.25 540.331L1256.76 538.824L1300.03 495.555L1301.53 494.048L1344.8 450.779L1389.58 495.555L1391.09 494.048L1346.31 449.271L1389.58 406.002L1391.09 404.495L1389.58 402.987L1346.31 359.718L1344.8 358.211L1301.53 314.942L1346.31 270.166L1344.8 268.658L1300.03 313.435L1256.76 270.166L1255.25 268.658L1211.98 225.389L1210.47 223.882L1167.2 180.613L1210.47 137.344L1211.98 135.837L1256.76 91.0602L1255.25 89.5527L1210.47 134.329L1165.7 89.5527L1164.19 91.0602L1208.97 135.837L1165.7 179.105L1122.43 135.837L1120.92 134.329L1077.65 91.0602L1076.14 89.5527L1032.88 46.2838L1076.14 3.01494L1119.41 46.2838L1120.92 47.7913L1122.43 46.2838L1165.7 3.01494L1208.97 46.2838L1210.47 47.7913L1211.98 46.2838L1255.25 3.01494L1298.52 46.2838L1300.03 47.7913L1343.3 91.0602L1300.03 134.329L1298.52 135.837L1253.74 180.613L1255.25 182.12L1300.03 137.344L1301.53 135.837L1344.8 92.5677L1388.07 135.837L1389.58 137.344L1432.85 180.613L1389.58 223.882L1344.8 179.105L1343.3 180.613L1388.07 225.389L1389.58 226.897L1432.85 270.166L1434.36 271.673L1435.86 270.166L1479.13 226.897L1523.91 271.673L1525.42 270.166L1480.64 225.389L1479.13 223.882L1435.86 180.613L1434.36 179.105L1391.09 135.837L1389.58 134.329L1346.31 91.0602L1389.58 47.7913L1432.85 91.0602L1434.36 92.5677L1479.13 137.344L1480.64 135.837L1435.86 91.0602L1434.36 89.5527L1391.09 46.2838L1434.36 3.01494L1477.62 46.2838L1479.13 47.7913L1523.91 92.5677L1525.42 91.0602L1480.64 46.2838L1479.13 44.7764ZM853.77 225.389L852.263 223.882L808.994 180.613L852.263 137.344L895.531 180.613L897.039 182.12L940.308 225.389L897.039 268.658L853.77 225.389ZM898.546 270.166L941.815 226.897L985.084 270.166L941.815 313.435L898.546 270.166ZM449.275 179.105L406.006 135.837L449.275 92.5677L492.544 135.837L449.275 179.105ZM137.348 583.6L180.617 540.331L223.886 583.6L180.617 626.869L137.348 583.6ZM182.124 628.377L225.393 585.108L268.662 628.377L225.393 671.646L182.124 628.377ZM358.215 717.929L314.946 761.198L271.677 717.929L270.17 716.422L226.901 673.153L270.17 629.884L313.439 673.153L314.946 674.661L358.215 717.929ZM314.946 671.646L271.677 628.377L270.17 626.869L226.901 583.6L270.17 540.331L313.439 583.6L314.946 585.108L358.215 628.377L314.946 671.646ZM402.991 494.048L359.722 537.316L316.453 494.048L359.722 450.779L402.991 494.048ZM270.17 361.226L313.439 404.495L314.946 406.002L358.215 449.271L314.946 492.54L271.677 449.271L270.17 447.764L226.901 404.495L270.17 361.226ZM89.5567 449.271L46.2878 492.54L3.01885 449.271L46.2878 406.002L89.5567 449.271ZM89.5567 359.718L46.2878 402.987L3.01885 359.718L46.2878 316.45L89.5567 359.718ZM137.348 135.837L135.84 134.329L92.5716 91.0602L135.84 47.7913L179.109 91.0602L180.617 92.5677L223.886 135.837L180.617 179.105L137.348 135.837ZM537.32 270.166L494.052 313.435L450.783 270.166L494.052 226.897L537.32 270.166ZM1255.25 808.99L1298.52 852.258L1255.25 895.527L1211.98 852.258L1255.25 808.99ZM1256.76 628.377L1300.03 585.108L1343.3 628.377L1300.03 671.646L1256.76 628.377ZM897.039 805.975L853.77 762.706L897.039 719.437L940.308 762.706L897.039 805.975ZM941.815 761.198L898.546 717.929L897.039 716.422L853.77 673.153L897.039 629.884L940.308 673.153L941.815 674.661L985.084 717.929L941.815 761.198ZM985.084 628.377L986.592 629.884L1029.86 673.153L986.592 716.422L943.323 673.153L941.815 671.646L898.546 628.377L941.815 585.108L985.084 628.377ZM540.335 180.613L583.604 137.344L585.112 135.837L628.381 92.5677L671.65 135.837L673.157 137.344L716.426 180.613L673.157 223.882L629.888 180.613L628.381 179.105L626.873 180.613L583.604 223.882L540.335 180.613ZM585.112 225.389L628.381 182.12L671.65 225.389L628.381 268.658L585.112 225.389ZM629.888 270.166L673.157 226.897L716.426 270.166L673.157 313.435L629.888 270.166ZM807.486 447.764L764.217 404.495L762.71 402.987L719.441 359.718L717.933 358.211L674.664 314.942L717.933 271.673L761.202 314.942L762.71 316.45L805.979 359.718L807.486 361.226L850.755 404.495L807.486 447.764ZM897.039 447.764L853.77 404.495L897.039 361.226L940.308 404.495L897.039 447.764ZM988.099 449.271L1031.37 406.002L1074.64 449.271L1031.37 492.54L988.099 449.271ZM1032.88 494.048L1076.14 450.779L1119.41 494.048L1076.14 537.316L1032.88 494.048ZM1164.19 538.824L1120.92 582.093L1077.65 538.824L1120.92 495.555L1164.19 538.824ZM1120.92 492.54L1077.65 449.271L1120.92 406.002L1164.19 449.271L1120.92 492.54ZM1208.97 225.389L1210.47 226.897L1253.74 270.166L1210.47 313.435L1167.2 270.166L1165.7 268.658L1122.43 225.389L1165.7 182.12L1208.97 225.389ZM1164.19 180.613L1120.92 223.882L1077.65 180.613L1120.92 137.344L1164.19 180.613ZM1477.62 225.389L1434.36 268.658L1391.09 225.389L1434.36 182.12L1477.62 225.389ZM1344.8 89.5527L1301.53 46.2838L1344.8 3.01494L1388.07 46.2838L1344.8 89.5527Z" fill="#ED9620" fill-opacity="0.16"/>
<path d="M46.2876 89.5513L0.00390625 135.835L1.51159 137.343L47.7952 91.059L46.2876 89.5513Z" fill="#ED9620" fill-opacity="0.16"/>
<path d="M135.84 89.5538L134.332 91.0615L180.616 137.345L182.123 135.837L135.84 89.5538Z" fill="#ED9620" fill-opacity="0.16"/>
<path d="M673.156 182.12L674.663 180.613L629.887 135.837L628.38 134.329L626.872 135.837L582.096 180.613L583.603 182.12L628.38 137.344L673.156 182.12Z" fill="#ED9620" fill-opacity="0.16"/>
<path d="M1525.41 135.837L1523.91 134.329L1480.64 91.0602L1479.13 89.5527L1434.35 44.7764L1432.85 46.2838L1477.62 91.0602L1479.13 92.5677L1522.4 135.837L1479.13 179.105L1435.86 135.837L1434.35 134.329L1389.58 89.5527L1388.07 91.0602L1432.85 135.837L1434.35 137.344L1477.62 180.613L1479.13 182.12L1523.91 226.897L1525.41 225.389L1480.64 180.613L1523.91 137.344L1525.41 135.837Z" fill="#ED9620" fill-opacity="0.16"/>
<path d="M91.0624 179.106L89.5547 180.613L135.838 226.897L137.346 225.389L91.0624 179.106Z" fill="#ED9620" fill-opacity="0.16"/>
<path d="M270.17 179.105L268.662 180.613L313.438 225.389L314.946 226.897L316.453 225.389L361.23 180.613L359.722 179.105L314.946 223.882L270.17 179.105Z" fill="#ED9620" fill-opacity="0.16"/>
<path d="M852.256 179.11L850.748 180.618L897.032 226.902L898.539 225.394L852.256 179.11Z" fill="#ED9620" fill-opacity="0.16"/>
<path d="M1165.69 223.889L1164.18 225.396L1210.46 271.68L1211.97 270.172L1165.69 223.889Z" fill="#ED9620" fill-opacity="0.16"/>
<path d="M1031.37 313.435L1029.86 314.942L1031.37 316.45L1076.14 361.226L1077.65 359.718L1032.87 314.942L1076.14 271.673L1077.65 270.166L1076.14 268.658L1031.37 223.882L1029.86 225.389L1074.64 270.166L1031.37 313.435Z" fill="#ED9620" fill-opacity="0.16"/>
<path d="M1479.13 268.658L1477.62 270.166L1434.36 313.435L1391.09 270.166L1389.58 268.658L1346.31 225.389L1344.8 223.882L1301.53 180.613L1344.8 137.344L1389.58 182.12L1391.09 180.613L1346.31 135.837L1344.8 134.329L1343.3 135.837L1300.03 179.105L1298.52 180.613L1255.25 223.882L1211.98 180.613L1255.25 137.344L1256.76 135.837L1300.03 92.5677L1301.53 91.0602L1300.03 89.5527L1256.76 46.2838L1255.25 44.7764L1253.74 46.2838L1210.47 89.5527L1167.2 46.2838L1165.7 44.7764L1164.19 46.2838L1120.92 89.5527L1076.14 44.7764L1074.64 46.2838L1119.41 91.0602L1120.92 92.5677L1165.7 137.344L1167.2 135.837L1122.43 91.0602L1165.7 47.7913L1208.97 91.0602L1210.47 92.5677L1211.98 91.0602L1255.25 47.7913L1298.52 91.0602L1255.25 134.329L1253.74 135.837L1210.47 179.105L1208.97 180.613L1210.47 182.12L1253.74 225.389L1255.25 226.897L1298.52 270.166L1300.03 271.673L1301.53 270.166L1344.8 226.897L1388.07 270.166L1344.8 313.435L1343.3 314.942L1344.8 316.45L1388.07 359.718L1389.58 361.226L1432.85 404.495L1389.58 447.764L1388.07 449.271L1389.58 450.779L1432.85 494.048L1389.58 537.316L1346.31 494.048L1344.8 492.54L1343.3 494.048L1300.03 537.316L1298.52 538.824L1255.25 582.093L1253.74 583.6L1210.47 626.869L1167.2 583.6L1210.47 540.331L1211.98 538.824L1256.76 494.048L1255.25 492.54L1210.47 537.316L1165.7 492.54L1164.19 494.048L1208.97 538.824L1165.7 582.093L1164.19 583.6L1165.7 585.108L1208.97 628.377L1210.47 629.884L1253.74 673.153L1210.47 716.422L1167.2 673.153L1165.7 671.646L1122.43 628.377L1120.92 626.869L1077.65 583.6L1076.14 582.093L1074.64 583.6L1031.37 626.869L988.099 583.6L986.591 582.093L943.323 538.824L986.591 495.555L1031.37 540.331L1032.88 538.824L988.099 494.048L986.591 492.54L943.323 449.271L941.815 447.764L940.308 449.271L895.531 494.048L897.039 495.555L941.815 450.779L985.084 494.048L941.815 537.316L940.308 538.824L941.815 540.331L985.084 583.6L986.591 585.108L1029.86 628.377L1031.37 629.884L1032.88 628.377L1076.14 585.108L1119.41 628.377L1120.92 629.884L1164.19 673.153L1165.7 674.661L1208.97 717.929L1210.47 719.437L1211.98 717.929L1255.25 674.661L1256.76 673.153L1255.25 671.646L1211.98 628.377L1255.25 585.108L1256.76 583.6L1300.03 540.331L1301.53 538.824L1344.8 495.555L1388.07 538.824L1389.58 540.331L1432.85 583.6L1389.58 626.869L1344.8 582.093L1343.3 583.6L1388.07 628.377L1389.58 629.884L1432.85 673.153L1389.58 716.422L1344.8 671.646L1343.3 673.153L1388.07 717.929L1344.8 761.198L1301.53 717.929L1300.03 716.422L1298.52 717.929L1255.25 761.198L1253.74 762.706L1208.97 807.482L1210.47 808.99L1255.25 764.213L1298.52 807.482L1300.03 808.99L1343.3 852.258L1344.8 853.766L1389.58 898.542L1391.09 897.035L1346.31 852.258L1344.8 850.751L1301.53 807.482L1344.8 764.213L1388.07 807.482L1389.58 808.99L1434.36 853.766L1435.86 852.258L1391.09 807.482L1389.58 805.975L1346.31 762.706L1389.58 719.437L1432.85 762.706L1434.36 764.213L1479.13 808.99L1480.64 807.482L1435.86 762.706L1479.13 719.437L1523.91 764.213L1525.42 762.706L1480.64 717.929L1479.13 716.422L1477.62 717.929L1434.36 761.198L1391.09 717.929L1434.36 674.661L1435.86 673.153L1434.36 671.646L1391.09 628.377L1434.36 585.108L1477.62 628.377L1479.13 629.884L1523.91 674.661L1525.42 673.153L1480.64 628.377L1479.13 626.869L1435.86 583.6L1434.36 582.093L1391.09 538.824L1434.36 495.555L1435.86 494.048L1479.13 450.779L1523.91 495.555L1525.42 494.048L1480.64 449.271L1479.13 447.764L1435.86 404.495L1434.36 402.987L1391.09 359.718L1389.58 358.211L1346.31 314.942L1389.58 271.673L1432.85 314.942L1434.36 316.45L1479.13 361.226L1480.64 359.718L1435.86 314.942L1479.13 271.673L1523.91 316.45L1525.42 314.942L1480.64 270.166L1479.13 268.658ZM1300.03 268.658L1256.76 225.389L1300.03 182.12L1343.3 225.389L1300.03 268.658ZM1300.03 805.975L1256.76 762.706L1300.03 719.437L1343.3 762.706L1300.03 805.975ZM1477.62 449.271L1434.36 492.54L1391.09 449.271L1434.36 406.002L1477.62 449.271Z" fill="#ED9620" fill-opacity="0.16"/>
<path d="M762.71 358.211L717.933 313.435L716.426 314.942L761.202 359.718L762.71 361.226L807.486 406.002L808.993 404.495L764.217 359.718L762.71 358.211Z" fill="#ED9620" fill-opacity="0.16"/>
<path d="M1525.41 359.718L1523.91 358.211L1479.13 313.435L1477.62 314.942L1522.4 359.718L1479.13 402.987L1435.86 359.718L1434.35 358.211L1389.58 313.435L1388.07 314.942L1432.85 359.718L1434.35 361.226L1477.62 404.495L1479.13 406.002L1523.91 450.779L1525.41 449.271L1480.64 404.495L1523.91 361.226L1525.41 359.718Z" fill="#ED9620" fill-opacity="0.16"/>
<path d="M270.164 402.986L268.656 404.494L314.94 450.778L316.448 449.27L270.164 402.986Z" fill="#ED9620" fill-opacity="0.16"/>
<path d="M1479.13 492.54L1477.62 494.048L1434.36 537.316L1432.85 538.824L1434.36 540.331L1477.62 583.6L1479.13 585.108L1523.91 629.884L1525.42 628.377L1480.64 583.6L1479.13 582.093L1435.86 538.824L1479.13 495.555L1523.91 540.331L1525.42 538.824L1480.64 494.048L1479.13 492.54Z" fill="#ED9620" fill-opacity="0.16"/>
<path d="M46.2837 537.312L0 583.596L1.50768 585.103L47.7913 538.82L46.2837 537.312Z" fill="#ED9620" fill-opacity="0.16"/>
<path d="M762.701 537.318L761.193 538.826L807.477 585.11L808.985 583.602L762.701 537.318Z" fill="#ED9620" fill-opacity="0.16"/>
<path d="M1479.12 537.323L1477.61 538.831L1523.89 585.115L1525.4 583.607L1479.12 537.323Z" fill="#ED9620" fill-opacity="0.16"/>
<path d="M270.164 582.091L268.656 583.599L314.94 629.882L316.448 628.375L270.164 582.091Z" fill="#ED9620" fill-opacity="0.16"/>
<path d="M941.805 626.871L940.297 628.379L986.581 674.663L988.088 673.155L941.805 626.871Z" fill="#ED9620" fill-opacity="0.16"/>
<path d="M270.164 671.644L268.656 673.151L314.94 719.435L316.448 717.927L270.164 671.644Z" fill="#ED9620" fill-opacity="0.16"/>
<path d="M404.492 671.645L402.984 673.152L449.268 719.436L450.776 717.928L404.492 671.645Z" fill="#ED9620" fill-opacity="0.16"/>
<path d="M897.027 671.648L895.52 673.155L941.803 719.439L943.311 717.931L897.027 671.648Z" fill="#ED9620" fill-opacity="0.16"/>
<path d="M1479.13 671.646L1434.36 626.869L1432.85 628.377L1477.62 673.153L1432.85 717.929L1434.36 719.437L1479.13 674.66L1523.91 719.437L1525.42 717.929L1480.64 673.153L1479.13 671.646Z" fill="#ED9620" fill-opacity="0.16"/>
<path d="M46.2878 719.437L89.5566 762.706L44.7803 807.482L46.2878 808.99L91.0641 764.213L92.5716 762.706L91.0641 761.198L47.7952 717.929L46.2878 716.422L1.51138 671.646L0.00390625 673.153L44.7803 717.929L46.2878 719.437Z" fill="#ED9620" fill-opacity="0.16"/>
<path d="M1479.13 761.198L1477.62 762.706L1522.4 807.482L1479.13 850.751L1435.86 807.482L1434.36 805.975L1389.58 761.198L1388.07 762.706L1432.85 807.482L1434.36 808.99L1477.62 852.258L1434.36 895.527L1391.09 852.258L1389.58 850.751L1344.8 805.975L1343.29 807.482L1388.07 852.258L1389.58 853.766L1432.85 897.035L1434.36 898.542L1435.86 897.035L1479.13 853.766L1480.64 852.258L1523.91 808.99L1525.42 807.482L1523.91 805.975L1479.13 761.198Z" fill="#ED9620" fill-opacity="0.16"/>
<path d="M180.609 805.971L179.102 807.479L225.385 853.762L226.893 852.254L180.609 805.971Z" fill="#ED9620" fill-opacity="0.16"/>
<path d="M404.499 808.99L406.006 807.482L404.499 805.975L361.23 762.706L359.722 761.198L358.215 762.706L314.946 805.975L270.17 761.198L268.662 762.706L313.439 807.482L270.17 850.751L226.901 807.482L225.393 805.975L182.124 762.706L180.617 761.198L137.348 717.929L135.84 716.422L92.5716 673.153L135.84 629.884L179.109 673.153L180.617 674.661L225.393 719.437L226.901 717.929L182.124 673.153L180.617 671.646L137.348 628.377L135.84 626.869L92.5716 583.6L135.84 540.331L137.348 538.824L180.617 495.555L225.393 540.331L226.901 538.824L182.124 494.048L225.393 450.779L268.662 494.048L270.17 495.555L313.439 538.824L314.946 540.331L359.722 585.108L361.23 583.6L316.453 538.824L314.946 537.316L271.677 494.048L270.17 492.54L226.901 449.271L225.393 447.764L223.886 449.271L180.617 492.54L137.348 449.271L180.617 406.002L182.124 404.495L180.617 402.987L135.84 358.211L134.333 359.718L179.109 404.495L135.84 447.764L91.0641 402.987L89.5566 404.495L134.333 449.271L135.84 450.779L179.109 494.048L135.84 537.316L91.0641 492.54L89.5566 494.048L134.333 538.824L91.0641 582.093L89.5566 583.6L91.0641 585.108L134.333 628.377L91.0641 671.646L46.2878 626.869L44.7803 628.377L89.5566 673.153L91.0641 674.661L134.333 717.929L135.84 719.437L179.109 762.706L135.84 805.975L134.333 807.482L91.0641 850.751L89.5566 852.259L46.2878 895.527L1.51138 850.751L0.00390625 852.259L44.7803 897.035L46.2878 898.542L47.7952 897.035L91.0641 853.766L135.84 898.542L137.348 897.035L92.5716 852.259L135.84 808.99L179.109 852.259L180.617 853.766L223.886 897.035L225.393 898.542L226.901 897.035L270.17 853.766L271.677 852.259L314.946 808.99L316.453 807.482L359.722 764.213L402.991 807.482L359.722 850.751L358.215 852.259L313.439 897.035L314.946 898.542L359.722 853.766L404.499 898.542L406.006 897.035L361.23 852.259L404.499 808.99ZM225.393 895.527L182.124 852.259L180.617 850.751L137.348 807.482L180.617 764.213L223.886 807.482L225.393 808.99L268.662 852.259L225.393 895.527Z" fill="#ED9620" fill-opacity="0.16"/>
<path d="M852.262 808.99L897.038 853.766L898.546 852.258L853.769 807.482L852.262 805.975L808.993 762.706L852.262 719.437L853.769 717.929L852.262 716.422L808.993 673.153L852.262 629.884L853.769 628.377L897.038 585.108L898.546 583.6L897.038 582.093L853.769 538.824L852.262 537.316L808.993 494.048L853.769 449.271L852.262 447.764L807.485 492.54L764.216 449.271L762.709 447.764L761.201 449.271L717.933 492.54L674.664 449.271L673.156 447.764L629.887 404.495L673.156 361.226L717.933 406.002L719.44 404.495L674.664 359.718L673.156 358.211L629.887 314.942L628.38 313.435L585.111 270.166L583.603 268.658L538.827 223.882L537.32 225.389L582.096 270.166L538.827 313.435L537.32 314.942L494.051 358.211L492.543 359.718L449.274 402.987L447.767 404.495L404.498 447.764L361.229 404.495L404.498 361.226L406.005 359.718L449.274 316.45L450.782 314.942L449.274 313.435L404.498 268.658L402.991 270.166L447.767 314.942L404.498 358.211L402.991 359.718L359.722 402.987L316.453 359.718L314.945 358.211L271.676 314.942L270.169 313.435L226.9 270.166L225.393 268.658L223.885 270.166L180.616 313.435L137.347 270.166L180.616 226.897L182.124 225.389L180.616 223.882L137.347 180.613L135.84 179.105L92.5709 135.837L91.0634 134.329L89.5559 135.837L46.287 179.105L44.7795 180.613L46.287 182.12L89.5559 225.389L46.287 268.658L44.7795 270.166L46.287 271.673L91.0634 316.45L92.5709 314.942L47.7945 270.166L91.0634 226.897L134.332 270.166L135.84 271.673L179.109 314.942L180.616 316.45L223.885 359.718L225.393 361.226L226.9 359.718L270.169 316.45L313.438 359.718L314.945 361.226L358.214 404.495L359.722 406.002L402.991 449.271L404.498 450.779L447.767 494.048L404.498 537.316L402.991 538.824L404.498 540.331L447.767 583.6L449.274 585.108L492.543 628.377L449.274 671.646L406.005 628.377L404.498 626.869L402.991 628.377L359.722 671.646L358.214 673.153L359.722 674.66L402.991 717.929L404.498 719.437L447.767 762.706L449.274 764.213L450.782 762.706L494.051 719.437L537.32 762.706L538.827 764.213L582.096 807.482L538.827 850.751L495.558 807.482L494.051 805.975L492.543 807.482L449.274 850.751L447.767 852.258L449.274 853.766L492.543 897.035L494.051 898.542L495.558 897.035L538.827 853.766L582.096 897.035L583.603 898.542L585.111 897.035L629.887 852.258L628.38 850.751L583.603 895.527L540.335 852.258L583.603 808.99L585.111 807.482L629.887 762.706L628.38 761.198L583.603 805.975L540.335 762.706L538.827 761.198L495.558 717.929L538.827 674.66L540.335 673.153L538.827 671.646L495.558 628.377L538.827 585.108L583.603 629.884L585.111 628.377L540.335 583.6L538.827 582.093L494.051 537.316L492.543 538.824L537.32 583.6L494.051 626.869L450.782 583.6L449.274 582.093L406.005 538.824L449.274 495.555L450.782 494.048L494.051 450.779L537.32 494.048L538.827 495.555L583.603 540.331L585.111 538.824L540.335 494.048L538.827 492.54L495.558 449.271L538.827 406.002L582.096 449.271L583.603 450.779L626.872 494.048L628.38 495.555L673.156 540.331L674.664 538.824L629.887 494.048L628.38 492.54L585.111 449.271L583.603 447.764L540.335 404.495L583.603 361.226L626.872 404.495L628.38 406.002L671.649 449.271L673.156 450.779L716.425 494.048L717.933 495.555L719.44 494.048L762.709 450.779L805.978 494.048L807.485 495.555L850.754 538.824L852.262 540.331L895.531 583.6L852.262 626.869L850.754 628.377L807.485 671.646L762.709 626.869L761.201 628.377L805.978 673.153L807.485 674.66L850.754 717.929L807.485 761.198L764.216 717.929L762.709 716.422L761.201 717.929L717.933 761.198L674.664 717.929L673.156 716.422L628.38 671.646L626.872 673.153L671.649 717.929L673.156 719.437L716.425 762.706L717.933 764.213L761.201 807.482L762.709 808.99L805.978 852.258L807.485 853.766L852.262 898.542L853.769 897.035L808.993 852.258L852.262 808.99ZM92.5709 225.389L91.0634 223.882L47.7945 180.613L91.0634 137.344L134.332 180.613L135.84 182.12L179.109 225.389L135.84 268.658L92.5709 225.389ZM225.393 358.211L182.124 314.942L225.393 271.673L268.661 314.942L225.393 358.211ZM494.051 895.527L450.782 852.258L494.051 808.99L537.32 852.258L494.051 895.527ZM449.274 761.198L406.005 717.929L404.498 716.422L361.229 673.153L404.498 629.884L447.767 673.153L449.274 674.66L492.543 717.929L449.274 761.198ZM537.32 673.153L494.051 716.422L450.782 673.153L494.051 629.884L537.32 673.153ZM583.603 271.673L626.872 314.942L583.603 358.211L540.335 314.942L583.603 271.673ZM449.274 492.54L406.005 449.271L449.274 406.002L492.543 449.271L449.274 492.54ZM494.051 447.764L450.782 404.495L494.051 361.226L537.32 404.495L494.051 447.764ZM538.827 402.987L495.558 359.718L538.827 316.45L582.096 359.718L538.827 402.987ZM585.111 359.718L628.38 316.45L671.649 359.718L628.38 402.987L585.111 359.718ZM719.44 762.706L762.709 719.437L805.978 762.706L762.709 805.975L719.44 762.706ZM764.216 807.482L807.485 764.213L850.754 807.482L807.485 850.751L764.216 807.482Z" fill="#ED9620" fill-opacity="0.16"/>
<path d="M135.834 850.746L134.326 852.254L180.61 898.538L182.117 897.03L135.834 850.746Z" fill="#ED9620" fill-opacity="0.16"/>
<path d="M316.453 852.258L361.23 807.482L359.722 805.975L314.946 850.751L313.438 852.258L268.662 897.035L270.17 898.542L314.946 853.766L316.453 852.258Z" fill="#ED9620" fill-opacity="0.16"/>
<path d="M717.932 850.751L716.425 852.258L671.648 897.035L673.156 898.542L717.932 853.766L762.709 898.542L764.216 897.035L719.44 852.258L717.932 850.751Z" fill="#ED9620" fill-opacity="0.16"/>
<path d="M762.71 850.751L719.441 807.482L717.933 805.975L674.664 762.706L673.157 761.198L629.888 717.929L628.381 716.422L585.112 673.153L628.381 629.884L671.649 673.153L673.157 674.66L716.426 717.929L717.933 719.437L719.441 717.929L762.71 674.66L807.486 719.437L808.993 717.929L764.217 673.153L762.71 671.646L719.441 628.377L762.71 585.108L805.979 628.377L807.486 629.884L808.993 628.377L852.262 585.108L853.77 583.6L852.262 582.093L808.993 538.824L807.486 537.316L764.217 494.048L762.71 492.54L761.202 494.048L717.933 537.316L674.664 494.048L673.157 492.54L629.888 449.271L628.381 447.764L583.604 402.987L582.097 404.495L626.873 449.271L628.381 450.779L671.649 494.048L673.157 495.555L716.426 538.824L673.157 582.093L629.888 538.824L628.381 537.316L585.112 494.048L583.604 492.54L538.828 447.764L537.32 449.271L582.097 494.048L583.604 495.555L626.873 538.824L583.604 582.093L540.335 538.824L538.828 537.316L495.559 494.048L494.051 492.54L492.544 494.048L449.275 537.316L447.768 538.824L449.275 540.331L494.051 585.108L495.559 583.6L450.783 538.824L494.051 495.555L537.32 538.824L538.828 540.331L582.097 583.6L583.604 585.108L626.873 628.377L583.604 671.646L538.828 626.869L537.32 628.377L582.097 673.153L538.828 716.422L537.32 717.929L538.828 719.437L582.097 762.706L583.604 764.213L585.112 762.706L628.381 719.437L671.649 762.706L628.381 805.975L626.873 807.482L582.097 852.258L583.604 853.766L628.381 808.99L671.649 852.258L626.873 897.035L628.381 898.542L673.157 853.766L674.664 852.258L717.933 808.99L761.202 852.258L762.71 853.766L807.486 898.542L808.993 897.035L764.217 852.258L762.71 850.751ZM629.888 628.377L673.157 585.108L716.426 628.377L673.157 671.646L629.888 628.377ZM761.202 673.153L717.933 716.422L674.664 673.153L717.933 629.884L761.202 673.153ZM762.71 495.555L805.979 538.824L807.486 540.331L850.755 583.6L807.486 626.869L764.217 583.6L762.71 582.093L719.441 538.824L762.71 495.555ZM717.933 540.331L761.202 583.6L717.933 626.869L674.664 583.6L717.933 540.331ZM585.112 583.6L628.381 540.331L671.649 583.6L628.381 626.869L585.112 583.6ZM583.604 761.198L540.335 717.929L583.604 674.66L626.873 717.929L583.604 761.198ZM673.157 850.751L629.888 807.482L673.157 764.213L716.426 807.482L673.157 850.751Z" fill="#ED9620" fill-opacity="0.16"/>
<path d="M1031.36 850.753L1029.85 852.261L1076.13 898.544L1077.64 897.037L1031.36 850.753Z" fill="#ED9620" fill-opacity="0.16"/>
<path d="M1167.2 852.258L1165.7 850.751L1122.43 807.482L1165.7 764.213L1167.2 762.706L1165.7 761.198L1122.43 717.929L1120.92 716.422L1077.65 673.153L1076.14 671.646L1074.64 673.153L1031.37 716.422L1029.86 717.929L985.083 762.706L986.59 764.213L1031.37 719.437L1032.87 717.929L1076.14 674.66L1119.41 717.929L1120.92 719.437L1164.19 762.706L1120.92 805.975L1077.65 762.706L1076.14 761.198L1074.64 762.706L1031.37 805.975L1029.86 807.482L986.59 850.751L941.814 805.975L940.307 807.482L985.083 852.258L986.59 853.766L1031.37 898.542L1032.87 897.035L988.098 852.258L1031.37 808.99L1074.64 852.258L1076.14 853.766L1119.41 897.035L1120.92 898.542L1122.43 897.035L1165.7 853.766L1167.2 852.258ZM1032.87 807.482L1076.14 764.213L1119.41 807.482L1076.14 850.751L1032.87 807.482ZM1120.92 895.527L1077.65 852.258L1120.92 808.99L1164.19 852.258L1120.92 895.527Z" fill="#ED9620" fill-opacity="0.16"/>
<path d="M1523.89 850.755L1477.61 897.039L1479.12 898.547L1525.4 852.263L1523.89 850.755Z" fill="#ED9620" fill-opacity="0.16"/>
</svg>
